STARTFONT 2.3
FONT -FontForge-Fontdiner Swanky-Book-R-Normal--36-360-72-72-P-227-ISO10646-1
SIZE 36 72 72  4
FONTBOUNDINGBOX 51 56 -9 -18
COMMENT "Generated by fontforge, http://fontforge.sourceforge.net"
COMMENT "Copyright (c) 2010 by Font Diner, Inc. All rights reserved."
STARTPROPERTIES 40
FOUNDRY "FontForge"
FAMILY_NAME "Fontdiner Swanky"
WEIGHT_NAME "Book"
SLANT "R"
SETWIDTH_NAME "Normal"
ADD_STYLE_NAME ""
PIXEL_SIZE 36
POINT_SIZE 360
RESOLUTION_X 72
RESOLUTION_Y 72
SPACING "P"
AVERAGE_WIDTH 227
CHARSET_REGISTRY "ISO10646"
CHARSET_ENCODING "1"
FONTNAME_REGISTRY ""
CHARSET_COLLECTIONS "ISO10646-1"
BITS_PER_PIXEL 4
FONT_NAME "FontdinerSwanky-Regular"
FACE_NAME "Fontdiner Swanky Regular"
COPYRIGHT "Copyright (c) 2010 by Font Diner, Inc. All rights reserved."
FONT_VERSION "1.001"
FONT_ASCENT 29
FONT_DESCENT 7
UNDERLINE_POSITION -4
UNDERLINE_THICKNESS 2
X_HEIGHT 20
CAP_HEIGHT 22
RAW_ASCENT 799
RAW_DESCENT 200
NORM_SPACE 12
RELATIVE_WEIGHT 40
RELATIVE_SETWIDTH 50
SUPERSCRIPT_X 0
SUPERSCRIPT_Y 16
SUPERSCRIPT_SIZE 22
SUBSCRIPT_X 0
SUBSCRIPT_Y 4
SUBSCRIPT_SIZE 22
AVG_LOWERCASE_WIDTH 226
AVG_UPPERCASE_WIDTH 278
ENDPROPERTIES
CHARS 231
STARTCHAR space
ENCODING 32
SWIDTH 320 0
DWIDTH 12 0
BBX 1 1 0 0
BITMAP
00
ENDCHAR
STARTCHAR exclam
ENCODING 33
SWIDTH 305 0
DWIDTH 11 0
BBX 11 32 0 -1
BITMAP
000354320000
0008FFFFFEC0
0009FFFFFFB0
000AFFFFFF90
000AFFFFFF60
000BFFFFFF30
000BFFFFFF00
000CFFFFFD00
000DFFFFFA00
000DFFFFF700
000EFFFFF400
000EFFFFF200
000FFFFFE000
001FFFFFB000
001FFFFF8000
002FFFFF6000
002FFFFF3000
003FFFFF0000
004FFFFC0000
004FFFFA0000
005FFFF70000
006FFFF40000
006FFFF10000
007FFFE00000
000246600000
000110000000
05DFFB200000
5FFFFFD00000
9FFFFFF30000
7FFFFFF20000
08FFFF700000
001451000000
ENDCHAR
STARTCHAR quotedbl
ENCODING 34
SWIDTH 369 0
DWIDTH 13 0
BBX 13 10 0 14
BITMAP
7CCCCC09CCCCB0
8FFFFE0AFFFFC0
7FFFFD08FFFFB0
5FFFFB07FFFF90
4FFFFA06FFFF80
3FFFF805FFFF70
2FFFF704FFFF50
0FFFF602FFFF40
0EFFF401FFFF30
08AAA2009AAA10
ENDCHAR
STARTCHAR numbersign
ENCODING 35
SWIDTH 702 0
DWIDTH 25 0
BBX 25 25 0 0
BITMAP
00000035666000004678000000
000000CFFFC00000BFFE000000
000000DFFFB00000DFFD000000
000000EFFF900000EFFC000000
000000FFFF700001FFFC000000
08EDDDFFFFCAA99AFFFD776650
0AFFFFFFFFFFFFFFFFFFFFFFB0
0CFFFFFFFFFFFFFFFFFFFFFF90
0EFFFFFFFFFFFFFFFFFFFFFF60
1BBAABFFFF88888DFFFB766610
000005FFFD00000BFFF7000000
000006FFFC00000CFFF6000000
000007FFFA00000EFFF5000000
000008FFF900000FFFF3000000
000009FFF811113FFFF4333300
6DEEEFFFFFFFFFFFFFFFFFFD00
9FFFFFFFFFFFFFFFFFFFFFFC00
CFFFFFFFFFFFFFFFFFFFFFFA00
CDDEEFFFFFFFFFFFFFFFFFF800
00000EFFF22222AFFFD4566300
00000FFFD00000AFFFC0000000
00001FFFC00000CFFFB0000000
00001FFFB00000DFFFB0000000
00002FFD700000EEDD80000000
00000100000000000000000000
ENDCHAR
STARTCHAR dollar
ENCODING 36
SWIDTH 545 0
DWIDTH 20 0
BBX 20 32 0 -5
BITMAP
00000023344200000000
0000009FFFF500000000
0000007FFFF400000000
0000006FFFF300000000
0000004FFFF100000220
0000038FFFF300000920
0005DFFFFFFFD6002F10
00AFFFFFFFFFFFB29F00
09FFFFD878CFFFFEFF00
2FFFFA000002AFFFFE00
7FFFF600000005EFFE00
9FFFFC100000004EFD00
8FFFFFE610000004FC00
4FFFFFFFEA5000006C00
0BFFFFFFFFFE94000800
01CFFFFFFFFFFFC50000
001AFFFFFFFFFFFFA100
03004CFFFFFFFFFFFC10
0A300039EFFFFFFFFF90
0CC0000004AFFFFFFFF1
0DFA000000019FFFFFF3
0FFFB100000007FFFFF4
1FFFFD50000004FFFFF1
3FFFFFFD85347EFFFFA0
4FFEFFFFFFFFFFFFFC10
6FA18EFFFFFFFFFE8100
7C100039FFFEA7410000
71000005FFFD00000000
00000007FFFF00000000
00000008FFFF20000000
0000000AFFFF30000000
00000005766620000000
ENDCHAR
STARTCHAR percent
ENCODING 37
SWIDTH 657 0
DWIDTH 24 0
BBX 25 30 0 -2
BITMAP
0000000000000003EA51000000
0001465300000009FFFF700000
008EFFFFC300001EFFFF400000
0AFFFFFFFE30006FFFFC000000
4FFFE79FFFB000CFFFF6000000
8FFF500CFFF103FFFFE0000000
9FFF2009FFF209FFFF80000000
8FFF500CFFF01EFFFF10000000
3FFFE8AFFFA06FFFF900000000
08FFFFFFFE20CFFFF300000000
007EFFFFB203FFFFB000000000
000146520009FFFF5000000000
00000000001FFFFD0000000000
00000000007FFFF70000000000
0000000000DFFFE10000000000
0000000004FFFF900000000000
000000000AFFFF200000000000
000000001FFFFB000000000000
000000007FFFF4000366400000
00000000DFFFC005DFFFFE5000
00000004FFFF606FFFFFFFF600
0000000AFFFE11EFFF97FFFE10
0000001FFFF804FFF9008FFF40
0000007FFFF205FFF6005FFF60
000000DFFFA004FFF9008FFF40
000004FFFF3000EFFF99FFFE00
00000AFFFC00004FFFFFFFF400
00001FFFF5000004CFFFFC4000
00002BFFD00000000355200000
00000016500000000000000000
ENDCHAR
STARTCHAR ampersand
ENCODING 38
SWIDTH 668 0
DWIDTH 24 0
BBX 28 32 1 -5
BITMAP
0000027BDEDB6100000000000000
00019FFFFFFFFD40000000000000
001DFFFE98DFFFE3000000000000
009FFFE3001DFFFB000000000000
00FFFF800006FFFF100000000000
02FFFF700002FFFF300000000000
01FFFFC00001FFFF200000000000
00CFFFF80004FFFC000000000000
006FFFFF500AFFF4000000000000
000CFFFFE35FFF90000000000000
0002EFFFFDFFFA00000000000000
00005FFFFFFF9000100000000000
000009FFFFFB0000080000000000
00004DFFFFFF50000B5000000000
0007FFFFFFFFE30007E200000000
006FFFF8FFFFFD1004FC10000000
05FFFF709FFFFFB003FFA0000000
1EFFFD000CFFFFF905FFF6000000
6FFFF90002EFFFFF6BFFFF300000
BFFFF800005FFFFFFFFDBED10000
DFFFFC000009FFFFFFF300120001
DFFFFF800000CFFFFFD000258BB3
AFFFFFFA20017FFFFFFBBEFFF800
4FFFFFFFFEEFFFFFFFFFFFFD3000
09FFFFFFFFFFFFEFFFFFFF810000
009FFFFFFFFFC61CFFFFD4000000
0003AEFFFC83001EFFF910000000
000000110000008FFD4000000000
00000000000002FF910000000000
0000000000000AD4000000000000
0000000000004910000000000000
0000000000002000000000000000
ENDCHAR
STARTCHAR quotesingle
ENCODING 39
SWIDTH 177 0
DWIDTH 6 0
BBX 6 11 0 14
BITMAP
011111
9FFFFF
8FFFFE
6FFFFC
5FFFFB
4FFFF9
3FFFF8
1FFFF7
0FFFF5
0EFFF4
056661
ENDCHAR
STARTCHAR parenleft
ENCODING 40
SWIDTH 384 0
DWIDTH 14 0
BBX 13 37 1 -6
BITMAP
00000000000010
00000000016B60
000000017EF800
0000003DFFA000
000006FFFD1000
00006FFFF40000
0004FFFF900000
000DFFFF200000
007FFFFA000000
00DFFFF4000000
03FFFFE0000000
08FFFFB0000000
0BFFFF70000000
0DFFFF50000000
0FFFFF40000000
1FFFFF30000000
2FFFFF20000000
3FFFFF20000000
3FFFFF20000000
2FFFFF30000000
1FFFFF40000000
0FFFFF60000000
0DFFFF80000000
0BFFFFB0000000
08FFFFF1000000
03FFFFF4000000
00DFFFF9000000
008FFFFE100000
001EFFFF600000
0007FFFFD00000
0000AFFFF60000
00001CFFFE1000
000001BFFF8000
00000008FFF300
000000003BFC10
00000000004A80
00000000000010
ENDCHAR
STARTCHAR parenright
ENCODING 41
SWIDTH 375 0
DWIDTH 14 0
BBX 14 37 -1 -6
BITMAP
01000000000000
08B50000000000
00AFD600000000
001CFFC2000000
0002EFFE500000
00006FFFF40000
00000BFFFE3000
000004FFFFB000
000000CFFFF400
0000006FFFFB00
0000001FFFFF10
0000000DFFFF50
0000000AFFFF80
00000007FFFFB0
00000005FFFFD0
00000004FFFFE0
00000004FFFFF0
00000003FFFFF0
00000004FFFFF1
00000005FFFFF0
00000006FFFFE0
00000008FFFFD0
0000000AFFFFB0
0000000DFFFF80
0000002FFFFF60
0000006FFFFF10
000000BFFFFB00
000002FFFFF600
000008FFFFD000
00001EFFFF4000
00008FFFF80000
0002EFFFB00000
000AFFF9000000
005FFE70000000
01EFA200000000
0A930000000000
11000000000000
ENDCHAR
STARTCHAR asterisk
ENCODING 42
SWIDTH 640 0
DWIDTH 23 0
BBX 23 23 0 0
BITMAP
0000006C3000049100000000
00017EFF90000AFD40000000
0009FFFFF1001EFFFA100000
0001DFFFF7006FFFFFE40000
00004FFFFE00BFFFFFD10000
000008FFFF61FFFFFE300000
000000CFFFC7FFFFF4000000
1300002EFFFEFFFF60000000
4FEC9636FFFFFFF900012450
5FFFFFFEFFFFFFF9BCEFFFE0
6FFFFFFFFFFFFFFFFFFFFFD0
7FFFFFFFFFFFFFFFFFFFFFB0
8FFFFFFFFFFFFFFFFFFFFFA0
9FFECA78FFFFFFE44579AC70
4420001DFFFFFFFD10000000
000000AFFFECFFFFB0000000
000006FFFF76FFFFF9000000
00003FFFFE11FFFFFF600000
0001DFFFF800BFFFFFF40000
0006FFFFF1006FFFFD600000
00005EFF90001FFD60000000
000002CF2000096000000000
000000050000000000000000
ENDCHAR
STARTCHAR plus
ENCODING 43
SWIDTH 607 0
DWIDTH 22 0
BBX 22 22 0 1
BITMAP
0000000076654400000000
00000000FFFFFD00000000
00000000EFFFFC00000000
00000000EFFFFC00000000
00000000EFFFFB00000000
00000000DFFFFA00000000
00000000DFFFFA00000000
24332211CFFFF900000000
7FFFFFFFFFFFFDBAA98873
8FFFFFFFFFFFFFFFFFFFF6
8FFFFFFFFFFFFFFFFFFFF5
9FFFFFFFFFFFFFFFFFFFF4
9FFFFFFFFFFFFFFFFFFFF4
58887776CFFFF733222110
00000000AFFFF500000000
00000000AFFFF400000000
000000009FFFF300000000
000000009FFFF300000000
000000008FFFF200000000
000000008FFFF200000000
000000008FFFF100000000
000000003789A000000000
ENDCHAR
STARTCHAR comma
ENCODING 44
SWIDTH 226 0
DWIDTH 8 0
BBX 8 11 0 -8
BITMAP
00488400
0AFFFFB0
6FFFFFF8
9FFFFFFC
7FFFFFFB
0AFFFFF8
001AFFF2
000DFF70
004FF900
00AE5000
01600000
ENDCHAR
STARTCHAR hyphen
ENCODING 45
SWIDTH 549 0
DWIDTH 20 0
BBX 16 7 2 9
BITMAP
7987655432100000
AFFFFFFFFFFFEDC7
BFFFFFFFFFFFFFF9
BFFFFFFFFFFFFFF8
CFFFFFFFFFFFFFF7
CFFFFFFFFFFFFFF6
9A98877655443220
ENDCHAR
STARTCHAR period
ENCODING 46
SWIDTH 226 0
DWIDTH 8 0
BBX 8 7 0 -4
BITMAP
029DEA30
2DFFFFE3
8FFFFFFA
9FFFFFFB
4FFFFFF6
04CFFD60
00011000
ENDCHAR
STARTCHAR slash
ENCODING 47
SWIDTH 600 0
DWIDTH 22 0
BBX 24 35 -1 -3
BITMAP
000000000000000000820000
000000000000000006FE6000
00000000000000001EFFFC20
00000000000000008FFFFFF6
0000000000000002FFFFFFF3
000000000000000BFFFFFF90
000000000000004FFFFFFE10
00000000000000DFFFFFF500
00000000000007FFFFFFB000
0000000000001EFFFFFE2000
0000000000009FFFFFF70000
000000000003FFFFFFD00000
00000000000BFFFFFF400000
00000000005FFFFFF9000000
0000000001DFFFFFE1000000
0000000007FFFFFF60000000
000000002EFFFFFB00000000
00000000AFFFFFF300000000
00000004FFFFFF8000000000
0000000CFFFFFD1000000000
0000006FFFFFF40000000000
000001EFFFFFA00000000000
000008FFFFFE200000000000
00002FFFFFF7000000000000
0000BFFFFFC0000000000000
0004FFFFFF30000000000000
000DFFFFF900000000000000
007FFFFFE100000000000000
01EFFFFF5000000000000000
09FFFFFB0000000000000000
3FFFFFF20000000000000000
BFFFFF700000000000000000
7EFFFD000000000000000000
019FF4000000000000000000
000370000000000000000000
ENDCHAR
STARTCHAR zero
ENCODING 48
SWIDTH 740 0
DWIDTH 27 0
BBX 26 23 0 0
BITMAP
000000001479ABA97300000000
00000039EFFFFFFFFFE7100000
000019FFFFFFFFFFFFFFE50000
0002DFFFFFFFECDFFFFFFF8000
001DFFFFFF9300018FFFFFF700
00AFFFFFE400000005FFFFFF30
04FFFFFF50000000009FFFFFB0
0AFFFFFA00000000001FFFFFF2
0EFFFFF300000000000AFFFFF7
2FFFFFE0000000000006FFFFFB
4FFFFFC0000000000004FFFFFC
4FFFFFB0000000000003FFFFFD
3FFFFFC0000000000004FFFFFD
2FFFFFE0000000000006FFFFFB
0DFFFFF3000000000009FFFFF7
08FFFFF800000000000EFFFFF2
03FFFFFE10000000007FFFFFA0
009FFFFFB000000004FFFFFE20
001CFFFFFB2000017FFFFFF500
0001DFFFFFFB99BEFFFFFF6000
00001AFFFFFFFFFFFFFFD40000
0000005CFFFFFFFFFFD7100000
0000000037ACDDCB7400000000
ENDCHAR
STARTCHAR one
ENCODING 49
SWIDTH 503 0
DWIDTH 18 0
BBX 23 29 -3 -2
BITMAP
000000000000000010000000
00000000000259CF50000000
000000147BEFFFFF40000000
00369DFFFFFFFFFF40000000
16ADFFFFFFFFFFFF30000000
0000147BEFFFFFFF30000000
0000000005FFFFFF20000000
0000000004FFFFFF20000000
0000000003FFFFFF10000000
0000000003FFFFFF10000000
0000000002FFFFFF00000000
0000000001FFFFFF00000000
0000000001FFFFFF00000000
0000000000FFFFFE00000000
0000000000EFFFFE00000000
0000000000EFFFFD00000000
0000000000DFFFFD00000000
0000000000DFFFFC00000000
0000000000CFFFFC00000000
0000000000BFFFFB00000000
0000000000BFFFFB00000000
0000000000AFFFFA00000000
00000000009FFFFA00000000
00000000009FFFF900000000
0000000003CFFFFC20000000
00000004BFFFFFFFFA300000
000006CFFFFFFFFFFFFB3000
0017EFFFFFFFFFFFFFFFFB40
000000011111111111111110
ENDCHAR
STARTCHAR two
ENCODING 50
SWIDTH 638 0
DWIDTH 23 0
BBX 23 31 -1 -2
BITMAP
001000000000000000000000
008000000000000000000000
00B600000000000000000000
009F3000026ACDCA61000000
007FD102AFFFFFFFFE910000
005FF95EFFFFFFFFFFFE3000
003FFFFFFFFFDEFFFFFFF300
001FFFFFFE610029FFFFFD10
000EFFFFD20000006FFFFF70
000CFFFD100000000CFFFFB0
000AFFF30000000009FFFFD0
0008FF90000000000AFFFFD0
0006FE10000000000CFFFFC0
0004F900000000003FFFFF80
0002F40000000001CFFFFE20
0000E0000000002CFFFFF700
00008000000018EFFFFF8020
000030000029EFFFFFE50170
0000000018FFFFFFE8100780
00000005EFFFFFE710001E70
000001AFFFFFE71000008F60
00002CFFFFFA10000001EF50
0001DFFFFF6000000008FF40
001CFFFFF6000000001EFF40
009FFFFFA0000000008FFF30
04FFFFFF9899AABBCCFFFF20
0BFFFFFFFFFFFFFFFFFFFF10
1FFFFFFFFFFFFFFFFFFFFF00
4FFFFFFFFFFFFFFFFFFFFF00
25677889AABCCDDEFFFFFE00
000000000000000000122200
ENDCHAR
STARTCHAR three
ENCODING 51
SWIDTH 620 0
DWIDTH 22 0
BBX 23 32 -1 -4
BITMAP
040000000000000000000000
0A1000000000000000000000
08B000000134430000000000
05F60004AEFFFFFB61000000
02FF31AFFFFFFFFFFE600000
00EFDDFFFFFFFFFFFFF90000
00AFFFFFFD978DFFFFFF8000
007FFFFD5000006FFFFFF200
004FFFC100000006FFFFF800
001FFE2000000000CFFFFB00
000DF600000000009FFFFC00
0009D00000000000BFFFFB00
0006700000000003FFFFF800
000320000000003DFFFFF200
000000006A878BFFFFFF8000
000000008FFFFFFFFFFB0000
000000008FFFFFFFFFFF8000
000000009EEFFFFFFFFFF500
00050000000027EFFFFFFD00
000A40000000002EFFFFFF40
000D900000000006FFFFFF70
002FF20000000002FFFFFF80
006FFA0000000002FFFFFF70
009FFF7000000007FFFFFF40
00DFFFF90000005FFFFFFC00
02FFFFFFD7436BFFFFFFF300
06FFBFFFFFFFFFFFFFFF5000
09F905EFFFFFFFFFFFC30000
0DC00018EFFFFFFFB6000000
2E2000000368874100000000
550000000000000000000000
300000000000000000000000
ENDCHAR
STARTCHAR four
ENCODING 52
SWIDTH 606 0
DWIDTH 22 0
BBX 24 31 -2 -3
BITMAP
000000000000000000400000
000000000000000006A00000
00000000000000004FA00000
0000000000000003EF900000
000000000000001DFF900000
00000000000000CFFF900000
0000000000000AFFFF800000
0000000000007FFFFF800000
000000000005FFFFFF800000
00000000003EFFFFFF700000
0000000002EFFFFFFF700000
000000001CFFFFFFFF600000
00000000AFFFFFFFFF600000
00000008FFFF8FFFFF600020
0000006FFFF82FFFFF5000A0
000004FFFF902FFFFF5004E0
00002EFFFB001FFFFF500CE0
0001DFFFC1001FFFFF405FD0
000BFFFD10001FFFFF41DFD0
009FFFFEDDDEEFFFFFFFFFC0
06FFFFFFFFFFFFFFFFFFFFC0
4FFFFFFFFFFEEFFFFFDCFFB0
1211110000000EFFFF20AFB0
0000000000000DFFFF104FA0
0000000000000DFFFF100CA0
0000000000000CFFFF000590
0000000000000BFFFF000070
0000000000017EFFFF600010
0000000004AFFFFFFFFC4000
00000017DFFFFFFFFFFFFB30
000002666666666655555551
ENDCHAR
STARTCHAR five
ENCODING 53
SWIDTH 610 0
DWIDTH 22 0
BBX 21 29 0 -2
BITMAP
0000000000000000025740
00000000002479BDFFFF60
0002469BDFFFFFFFFFFF40
ADFFFFFFFFFFFFFFFFFF20
CFFFFFFFFFFFFFFFFFFF00
9FFFFFFFFFEDB9866FFD00
7FFFFD64310000000CFB00
4FFFFC000000000006FA00
1FFFFD000000000001F800
0EFFFE000000000000A600
0BFFFF69BCDDB850005400
08FFFFFFFFFFFFFE811100
05FFFFFFFFFFFFFFFD2000
03FFFFFEDDFFFFFFFFE200
00FFF9300016EFFFFFFC00
00CC300000001CFFFFFF40
00500000000001EFFFFFA0
000000000000009FFFFFC0
002000000000007FFFFFD0
03A000000000007FFFFFC0
05F80000000000BFFFFFA0
07FF8000000004FFFFFF60
09FFFB2000003EFFFFFE10
0CFFFFFB757AFFFFFFF800
0EFFFFFFFFFFFFFFFFC000
1FFAAFFFFFFFFFFFFD2000
4FA007FFFFFFFFFFA10000
6A000028CFFFFE93000000
3000000000121000000000
ENDCHAR
STARTCHAR six
ENCODING 54
SWIDTH 619 0
DWIDTH 22 0
BBX 23 33 0 -3
BITMAP
000000000000000000300000
000000000000000000A00000
000000000000000003E00000
000000000000000008F10000
00000000000000000EF30000
00000005BEFFC7104FF50000
000002BFFFFFFFE69FF60000
00003EFFFFFFFFFFFFF80000
0001EFFFFFFFFFFFFFFA0000
000BFFFFFFC88BFFFFFB0000
005FFFFFF6000018FFFD0000
00CFFFFF800000002DFF0000
04FFFFFE1000000001BF2000
09FFFFFA13455430000B3000
0EFFFFFDFFFFFFFEA5013000
4FFFFFFFFFFFFFFFFFB20000
7FFFFFFFFFDBBEFFFFFD2000
AFFFFFFFC40001AFFFFFC000
CFFFFFFC1000000BFFFFF600
EFFFFFF200000002FFFFFB00
FFFFFF9000000000BFFFFF00
FFFFFF50000000007FFFFF10
DFFFFF30000000005FFFFF20
CFFFFF30000000006FFFFF10
9FFFFF50000000007FFFFF00
5FFFFF9000000000AFFFFB00
1EFFFFD000000001FFFFF700
07FFFFF70000000AFFFFE100
00CFFFFF6000019FFFFF5000
002DFFFFFD99AEFFFFF70000
0001BFFFFFFFFFFFFE500000
000004BFFFFFFFFD71000000
000000014678752000000000
ENDCHAR
STARTCHAR seven
ENCODING 55
SWIDTH 598 0
DWIDTH 22 0
BBX 24 28 0 -2
BITMAP
AAA988766544321100000000
9FFFFFFFFFFFFFFFFEEDCCB4
4FFFFFFFFFFFFFFFFFFFFFE1
0EFFFFFFFFFFFFFFFFFFFF90
0AFFFF789ABCDEFFFFFFFF30
05FFFC000000008FFFFFFC00
01FFF800000000CFFFFFF600
00BFF400000001FFFFFFE100
006FF100000004FFFFFF9000
002FC000000008FFFFFF3000
000C800000000CFFFFFB0000
0007400000001FFFFFF50000
0002100000004FFFFFE00000
0000000000008FFFFF800000
000000000000CFFFFF200000
000000000001FFFFFB000000
000000000004FFFFF5000000
000000000008FFFFE0000000
00000000000CFFFF80000000
00000000001FFFFF20000000
00000000004FFFFB00000000
00000000008FFFF500000000
0000000000CFFFD000000000
0000000005FFFF8000000000
00000005CFFFFFE710000000
000005CFFFFFFFFFE7000000
0004CFFFFFFFFFFFFFD60000
0025667788899AABBCCDB400
ENDCHAR
STARTCHAR eight
ENCODING 56
SWIDTH 642 0
DWIDTH 23 0
BBX 24 30 0 -4
BITMAP
000000001467652000000000
0000005BFFFFFFFC71000000
00002BFFFFFFFFFFFE500000
0003EFFFFFDBCFFFFFF70000
001DFFFFF60003DFFFFF5000
009FFFFF8000002EFFFFD000
01EFFFFE10000009FFFFF500
03FFFFFA00000004FFFFF800
04FFFFF900000003FFFFF900
03FFFFF900000003FFFFF900
01FFFFFC00000007FFFFF600
00CFFFFF4000000DFFFFF200
004FFFFFD30001AFFFFF9000
0007FFFFFFCABEFFFFFC1000
0005FFFFFFFFFFFFFFF90000
008FFFFFFFFFFFFFFFFFC100
06FFFFFFFE978CFFFFFFFA00
1EFFFFFF8000005EFFFFFF60
8FFFFFF900000004FFFFFFD0
DFFFFFF100000000BFFFFFF3
FFFFFFD0000000008FFFFFF5
EFFFFFD0000000008FFFFFF5
CFFFFFF100000000BFFFFFF2
8FFFFFF800000003FFFFFFD0
2EFFFFFF4000001CFFFFFF50
04FFFFFFF71004DFFFFFF800
005EFFFFFFFDEFFFFFFF8000
0002AFFFFFFFFFFFFFC40000
0000027CEFFFFFFC83000000
000000000234320000000000
ENDCHAR
STARTCHAR nine
ENCODING 57
SWIDTH 610 0
DWIDTH 22 0
BBX 22 31 0 -5
BITMAP
000000158ABB9720000000
00003AFFFFFFFFFC300000
0007FFFFFFFFFFFFF80000
008FFFFFFA77AFFFFFA000
05FFFFFD200003EFFFF700
1DFFFFF20000005FFFFF20
5FFFFF900000000CFFFF90
AFFFFF5000000008FFFFF1
DFFFFF3000000006FFFFF5
EFFFFF2000000005FFFFF9
EFFFFF3000000006FFFFFA
DFFFFF700000000AFFFFFB
AFFFFFD00000002FFFFFFB
4FFFFFF7000001CFFFFFFA
0BFFFFFF81005DFFFFFFF9
02DFFFFFFFEFFFFFFFFFF8
002DFFFFFFFFFFFFFFFFF5
00019FFFFFFFFFFFFFFFF2
0250017BEFFFC83DFFFFD0
00E400000010004FFFFF80
00DF5000000000CFFFFF20
00BFF810000008FFFFFA00
009FFFD610019FFFFFE200
007FFFFFFDDFFFFFFF7000
005FFFFFFFFFFFFFF90000
003FFEEFFFFFFFFF800000
001FF918FFFFFFD4000000
000EF20015786300000000
000CA00000000000000000
000A300000000000000000
0005000000000000000000
ENDCHAR
STARTCHAR colon
ENCODING 58
SWIDTH 223 0
DWIDTH 8 0
BBX 8 17 0 -4
BITMAP
00021000
07EFFA20
8FFFFFD1
EFFFFFF6
EFFFFFF6
6FFFFFD1
04BDC810
00000000
00000000
00000000
05BED810
6FFFFFB0
DFFFFFF5
EFFFFFF6
9FFFFFE2
08EFFB30
00011000
ENDCHAR
STARTCHAR semicolon
ENCODING 59
SWIDTH 228 0
DWIDTH 8 0
BBX 8 21 0 -8
BITMAP
00011000
06DFFB20
6FFFFFD1
CFFFFFF7
CFFFFFF7
4FFFFFD1
03ADD920
00000000
00000000
00000000
00687200
2DFFFF60
BFFFFFF3
FFFFFFF6
DFFFFFF6
3DFFFFF2
002EFFA0
003FFE30
009FF400
01EB2000
03300000
ENDCHAR
STARTCHAR less
ENCODING 60
SWIDTH 563 0
DWIDTH 20 0
BBX 22 25 0 -1
BITMAP
0000000000000000001700
000000000000000006EF10
0000000000000004CFFF50
00000000000002AFFFFF90
0000000000007EFFFFFFD0
00000000004DFFFFFFFFF2
000000002BFFFFFFFFFFE3
00000018FFFFFFFFFFF810
000005DFFFFFFFFFF92000
0003BFFFFFFFFFFA200000
019FFFFFFFFFFA20000000
6EFFFFFFFFFB3000000000
3DFFFFFFFC400000000000
007FFFFFFD200000000000
0002BFFFFFE50000000000
000006EFFFFF8000000000
0000001AFFFFFB10000000
000000004DFFFFD3000000
00000000018FFFFE500000
000000000003CFFFF80000
00000000000007EFFFB100
000000000000002BFFFC00
00000000000000005EFB00
0000000000000000019800
0000000000000000000100
ENDCHAR
STARTCHAR equal
ENCODING 61
SWIDTH 531 0
DWIDTH 19 0
BBX 19 14 0 3
BITMAP
9BA98876554322100000
DFFFFFFFFFFFFFFFFEB0
DFFFFFFFFFFFFFFFFFB0
EFFFFFFFFFFFFFFFFFA0
EFFFFFFFFFFFFFFFFF90
EFFFFFFFFFFFFEEDDC70
55443322110000000000
00000000000000000110
699AAABBCCDDDEEFFFC0
CFFFFFFFFFFFFFFFFFB0
DFFFFFFFFFFFFFFFFFB0
EFFFFFFFFFFFFFFFFFA0
FFFFFFFFFFFFFFFFFFA0
2334566789AABCDDEF90
ENDCHAR
STARTCHAR greater
ENCODING 62
SWIDTH 576 0
DWIDTH 21 0
BBX 22 24 0 0
BITMAP
0440000000000000000000
09FA200000000000000000
0DFFE70000000000000000
2FFFFFD500000000000000
7FFFFFFFB2000000000000
BFFFFFFFFF810000000000
CFFFFFFFFFFD5000000000
05DFFFFFFFFFFB30000000
0006DFFFFFFFFFF9100000
000006EFFFFFFFFFE60000
00000017EFFFFFFFFFC300
0000000017EFFFFFFFFF91
000000000018FFFFFFFF70
000000000008FFFFFFB200
0000000001BFFFFFE60000
000000003DFFFFFA100000
00000005EFFFFD40000000
0000008FFFFF8100000000
00001BFFFFC30000000000
0003DFFFE7000000000000
005EFFFB20000000000000
05FFFE5000000000000000
04FF910000000000000000
02D4000000000000000000
ENDCHAR
STARTCHAR question
ENCODING 63
SWIDTH 592 0
DWIDTH 21 0
BBX 22 34 0 -2
BITMAP
0020000000000000000000
0093000000000000000000
00DC000000000000000000
01FF624666652000000000
04FFFFFFFFFFFEA4000000
08FFFFFFFFFFFFFFC40000
0BFFFA6446AEFFFFFF6000
0EFC200000018FFFFFF600
2FC10000000005FFFFFF20
6E2000000000006FFFFFA0
940000000000000DFFFFE0
600000000000000AFFFFF2
000000000000000AFFFFF2
000000000000000DFFFFF1
000000000000004FFFFFE0
00000000000002EFFFFF80
00000A5100017EFFFFFE20
00001FFFCBCFFFFFFFF500
00003FFFFFFFFFFFFD4000
00005FFFFFFFFFFD710000
00007FFFFFA66420000000
00009FFFFF200000000000
0000BFFFFA000000000000
0000CFFFF4000000000000
0000CFFFD0000000000000
0000015960000000000000
0000000000000000000000
018DEC7100000000000000
0CFFFFFC10000000000000
4FFFFFFF70000000000000
3FFFFFFF90000000000000
0AFFFFFF50000000000000
006CFFD500000000000000
0000010000000000000000
ENDCHAR
STARTCHAR at
ENCODING 64
SWIDTH 792 0
DWIDTH 29 0
BBX 30 27 0 -2
BITMAP
000000000000012220000000000000
00000000048BEFFFFFD95100000000
00000017DFFFFFFFFFFFFE71000000
000005DFFFFFEBA9ABEFFFFD300000
00009FFFFFA400000005DFFFF60000
000AFFFFC2000011000008FFFF5000
008FFFF90005AEFFFC60008FFFF300
03FFFFA001BFFFFFFFFC100CFFFB00
0CFFFE100BFFD623CFFF9004FFFF50
3FFFF7004FFF70001EFFF100CFFFB0
8FFFF2007FFFD0000AFFF4008FFFF1
BFFFC0006FFFC00008FFF6005FFFF4
EFFFA0001AFC300008FFF7003FFFF6
FFFF8000002689875AFFF6002FFFF7
FFFF800019FFFFFFFFFFF5003FFFF7
EFFFA000AFFFE9679FFFF3004FFFF6
CFFFC002FFFF50000FFFF2005FFFF3
AFFFF104FFFF30002FFFF0007FFFE0
5FFFF602FFFFA1004FFFD000AFFF90
1EFFFD108FFFFEDEFFFFD000EFFF30
06FFFF9006DFFFFFEFFFC004FFFA00
00BFFFF7000355414FFFF21CFFD100
001CFFFF910000000BFFFEEFFE3000
0001BFFFFD61000001AFFFFFB20000
000005DFFFFE962000036873000000
000000038CFFFFFFDB920000000000
000000000002345543100000000000
ENDCHAR
STARTCHAR A
ENCODING 65
SWIDTH 788 0
DWIDTH 28 0
BBX 42 33 -6 -8
BITMAP
000000001110000000000000000000000000000000
0000000007EFEEDCCBBA9800000000000000000000
000000000017EFFFFFFFFF60000000000000000000
00000000000017EFFFFFFFD0000000000000000000
0000000000000018EFFFFFF6000000000000000000
000000000000000019FFFFFD000000000000000000
000000000000000009FFFFFF600000000000000000
00000000000000002FFFFFFFD00000000000000000
00000000000000009FFFFFFFF50000000000000000
0000000000000002FFFDFFFFFD0000000000000000
000000000000000AFFB3FFFFFF5000000000000000
000000000000003FFF30BFFFFFC000000000000000
00000000000000BFFA003FFFFFF500000000000000
00000000000004FFF2000BFFFFFC00000000000000
0000000000000BFF900004FFFFFF50000000000000
0000000000004FFE100000CFFFFFC0000000000000
000000000000CFFFDCBBA9CFFFFFF4000000000000
000000000005FFFFFFFFFFFFFFFFFC000000000000
00000000000DFFFFFFFFFFFFFFFFFF400000000000
00000000006FFFDCBBAA9988FFFFFFB00000000000
0000000000DFF70000000000AFFFFFF40000000000
0000000006FFD100000000003FFFFFFB0000000000
000000001EFF6000000000000BFFFFFF3000000000
00000039EFFF20000000000005FFFFFFB000000000
00005BFFFFFFE7000000000000DFFFFFF300000000
017DFFFFFFFFFFC200000000007FFFFFFB00000000
28ABCDEFFFFFFFFF70000000001EFFFFFFA5100000
0000000001234567860000000009FFFFFFFFFB7200
000000000000000000000000000BFFFFFFFFFFFE91
00000000000000000000000000BFFFFFFFFEB73000
0000000000000000000000000AFFFFFEB730000000
0000000000000000000000009FFEB7300000000000
000000000000000000000008B73000000000000000
ENDCHAR
STARTCHAR B
ENCODING 66
SWIDTH 774 0
DWIDTH 28 0
BBX 32 29 -4 -5
BITMAP
4CDDDCCCCBBBAAA99987531000000000
018FFFFFFFFFFFFFFFFFFFFD95100000
0002BFFFFFFFFFFFFFFFFFFFFFFA3000
000004DFFFFFFFFEEEEFFFFFFFFFF800
0000000AFFFFFF000001369EFFFFFFA0
00000006FFFFFF00000000017FFFFFF5
00000005FFFFFF000000000005FFFFFB
00000003FFFFFF100000000000FFFFFD
00000002FFFFFF100000000002FFFFFB
00000001FFFFFF10000000001CFFFFF6
00000000FFFFFF2000000028EFFFFFB0
00000000DFFFFF976678ADFFFFFFFC10
00000000CFFFFFFFFFFFFFFFFFFF8000
00000000BFFFFFFFFFFFFFFFFE930000
000000009FFFFFFFFFFFFFFFFD710000
000000008FFFFFC679BEFFFFFFFD4000
000000007FFFFFB0000038EFFFFFF500
000000005FFFFFB00000001CFFFFFE20
000000004FFFFFC000000002FFFFFF80
000000003FFFFFC000000000EFFFFFB0
000000002FFFFFD000000005FFFFFFB0
000000000FFFFFD00000006FFFFFFF60
000000000EFFFFE000027DFFFFFFFB00
000000001DFFFFF57ADFFFFFFFFF9100
00000005DFFFFFFFFFFFFFFFFFA30000
000002BFFFFFFFFFFFFFFFC961000000
00018FFFFFFFFFFDCA86310000000000
005EFFDBA86532000000000000000000
03431000000000000000000000000000
ENDCHAR
STARTCHAR C
ENCODING 67
SWIDTH 766 0
DWIDTH 28 0
BBX 28 30 0 -3
BITMAP
0000000000000000000000000032
00000000000000000000000001D0
00000000001589AA963000000BD0
000000016DFFFFFFFFFD60007FA0
0000006EFFFFFFFFFFFFFD24FF80
00001BFFFFFFFFFFFFFFFFEEFF50
0001CFFFFFFFD953359EFFFFFF30
000CFFFFFFE700000001AFFFFF10
007FFFFFFE300000000008FFFD00
01EFFFFFF40000000000009FFB00
07FFFFFF900000000000001DF800
0CFFFFFF2000000000000005F600
1FFFFFFC0000000000000000D300
3FFFFFF900000000000000007100
4FFFFFF700000000000000001000
4FFFFFF700000000000000000000
4FFFFFF800000000000000000000
2FFFFFF900000000000000000000
0EFFFFFC00000000000000003000
0AFFFFFF10000000000000009000
05FFFFFF8000000000000002F100
00CFFFFFE200000000000008F400
004FFFFFFB1000000000003FF700
0009FFFFFFC10000000003EFFA00
0000BFFFFFFE720000028FFFFD00
00001BFFFFFFFFDBABDFFFFFFF10
0000007FFFFFFFFFFFFFFFE56F40
000000029FFFFFFFFFFFFA200B70
000000000159CEFFEDA610000190
0000000000000000000000000030
ENDCHAR
STARTCHAR D
ENCODING 68
SWIDTH 833 0
DWIDTH 30 0
BBX 34 27 -4 -2
BITMAP
2221110000000000001100000000000000
17DFFFFFFFFFFFFFFFFFFEDA7200000000
0005CFFFFFFFFFFFFFFFFFFFFFC6000000
000003AFFFFFFFFFFFFFFFFFFFFFC30000
000000018EFFFFFFF77778BFFFFFFF5000
0000000001FFFFFFF00000018FFFFFF600
0000000000EFFFFFF000000005FFFFFE20
0000000000DFFFFFE0000000007FFFFFC0
0000000000CFFFFFD0000000000EFFFFF4
0000000000AFFFFFC00000000009FFFFF9
00000000009FFFFFB00000000006FFFFFD
00000000008FFFFFB00000000003FFFFFF
00000000007FFFFFA00000000002FFFFFF
00000000005FFFFF900000000002FFFFFE
00000000004FFFFF800000000003FFFFFD
00000000003FFFFF800000000004FFFFFC
00000000002FFFFF700000000007FFFFF8
00000000001FFFFF60000000000AFFFFF4
00000000000FFFFF50000000001EFFFFE1
00000000000FFFFF50000000009FFFFF70
00000000000FFFFF4000000006FFFFFC00
00000000000EFFFF30000004AFFFFFE200
00000000029FFFFFEDDDDDFFFFFFFC2000
000000018FFFFFFFFFFFFFFFFFFE800000
0000017EFFFFFFFFFFFFFFFFEB61000000
00006EFFEDCBAA98766554320000000000
0001210000000000000000000000000000
ENDCHAR
STARTCHAR E
ENCODING 69
SWIDTH 781 0
DWIDTH 28 0
BBX 30 27 -3 -1
BITMAP
000000000000000012345679ABCDEA
00012346789ABCDFFFFFFFFFFFFFF9
5BFFFFFFFFFFFFFFFFFFFFFFFFFFF9
0027CFFFFFFFFFFFFEDCA9876EFFF8
0000027CFFFFFFF20000000008FFF7
000000008FFFFFF00000000002FFF7
000000008FFFFFF00000040000AFF6
000000007FFFFFE000000B00003FF5
000000006FFFFFE000006D00000BF5
000000006FFFFFE00000DD000004F4
000000005FFFFFD00007FC000000C3
000000005FFFFFD0001EFC00000053
000000004FFFFFD0007FFC00000001
000000004FFFFFE89AEFFB00000010
000000003FFFFFFFFFFFFB00000050
000000003FFFFFFFFFFFFB00000290
000000002FFFFFFFFFFFFA00000790
000000002FFFFFB123DFFA00000C90
000000001FFFFFB0004FF900002FA0
000000001FFFFFA00009F900007FA0
000000000FFFFFA00001D90000CFA0
000000000FFFFF900000480002FFA0
000000000EFFFF900000020007FFA0
000000005FFFFFA3344444444DFFA0
0000028DFFFFFFFFFFFFFFFFFFFFA0
0005BFFFFFFFFFFFFFFFFFFFFFFFA0
05BCCCCCCCCCBBBBBBBBBAAAAAAA70
ENDCHAR
STARTCHAR F
ENCODING 70
SWIDTH 731 0
DWIDTH 26 0
BBX 29 28 -3 -2
BITMAP
00000000000000000012456789BC30
0000012345789ACDEFFFFFFFFFFF40
39CDEFFFFFFFFFFFFFFFFFFFFFFF30
0049EFFFFFFFFFFFFFFDCA98FFFF30
000005AEFFFFFFD421000000AFFF30
00000000CFFFFFB0000000005FFF30
00000000BFFFFFB0000000000EFF30
00000000BFFFFFB00000330008FF30
00000000BFFFFFA00000B30003FF20
00000000AFFFFFA00005F20000CF20
00000000AFFFFF90000DF200006F20
000000009FFFFF90007FF200001F20
000000009FFFFF9001EFF200000A20
000000008FFFFFCABDFFF100000420
000000008FFFFFFFFFFFF100000010
000000008FFFFFFFFFFFF100000000
000000007FFFFFEFFFFFF000000000
000000007FFFFF7017FFF000000000
000000006FFFFF7000DFF000000000
000000006FFFFF70004FE000000000
000000005FFFFF70000AE000000000
000000005FFFFF600002D000000000
000000004FFFFF6000007000000000
000000004FFFFF6000000000000000
000000005FFFFF7000000000000000
0000005CFFFFFFFC61000000000000
00018EFFFFFFFFFFFE820000000000
028EEEEEEEFFFFFFFFFFA400000000
ENDCHAR
STARTCHAR G
ENCODING 71
SWIDTH 828 0
DWIDTH 30 0
BBX 33 30 0 -2
BITMAP
0000000000000000000000000010000000
0000000000000000000000000490000000
0000000000000000000000004F90000000
000000000047ABCDCB730005FF80000000
000000039EFFFFFFFFFFD65FFF60000000
0000019FFFFFFFFFFFFFFFFFFF50000000
00002DFFFFFFFFFFFFFFFFFFFF40000000
0002EFFFFFFFA520027DFFFFFF30000000
001DFFFFFFE4000000008FFFFF10000000
008FFFFFFE200000000005FFFF00000000
02FFFFFFF40000000000007FFE00000000
08FFFFFFB00000000000000BFD00000000
0DFFFFFF5000000000000002EC00000000
1FFFFFFF10000000000000008A00000000
3FFFFFFD00000000000000001800000000
4FFFFFFB00001222222222222322221110
4FFFFFFB000004AFFFFFFFFFFFFFFFE920
3FFFFFFC000000016CFFFFFFFFFFD71000
1FFFFFFD000000000039EFFFFFC5000000
0DFFFFFF2000000000001FFFFF80000000
09FFFFFF6000000000000EFFFF90000000
04FFFFFFC000000000000EFFFFB0000000
00CFFFFFF600000000001FFFFFC0000000
004FFFFFFE30000000007FFFFFE0000000
0009FFFFFFE400000003EFFFFFF0000000
0000BFFFFFFFA410038FFFFFFFF1000000
000009FFFFFFFFFFFFFFFFE3BFF3000000
0000005DFFFFFFFFFFFFFA100AF4000000
000000006BFFFFFFFFD930000095000000
0000000000135665410000000001000000
ENDCHAR
STARTCHAR H
ENCODING 72
SWIDTH 797 0
DWIDTH 29 0
BBX 36 29 -4 -3
BITMAP
000000000000000044443333332222221110
000000000000000029EFFFFFFFFFFFFFFC50
00000000000000000017DFFFFFFFFFFA3000
1676666665555554444205CFFFFFFA200000
018EFFFFFFFFFFFFFD61003FFFFFF2000000
00017DFFFFFFFFFC5000003FFFFFF1000000
0000005DFFFFFE400000002FFFFFF1000000
00000008FFFFFC000000002FFFFFF1000000
00000007FFFFFC000000001FFFFFF0000000
00000007FFFFFC000000001FFFFFF0000000
00000007FFFFFB000000001FFFFFE0000000
00000006FFFFFB000000000FFFFFE0000000
00000006FFFFFB000000000FFFFFE0000000
00000005FFFFFA000000000EFFFFD0000000
00000005FFFFFD999999999FFFFFD0000000
00000004FFFFFFFFFFFFFFFFFFFFC0000000
00000004FFFFFFFFFFFFFFFFFFFFC0000000
00000004FFFFFFFFDCA9764DFFFFB0000000
00000003FFFFFA100000000CFFFFB0000000
00000003FFFFF9000000000CFFFFB0000000
00000002FFFFF8000000000CFFFFA0000000
00000002FFFFF8000000000BFFFFA0000000
00000001FFFFF8000000000BFFFF90000000
00000001FFFFF8000000027EFFFFD7200000
00000001FFFFF8000004AFFFFFFFFFFB5000
00000000FFFFF80017DFFFFFFFFFFFFFFE83
00000039FFFFFD7200000000000000000000
00028DFFFFFFFFFFB6100000000000000000
05BFFFFFFFFFFFFFFFFB6100000000000000
ENDCHAR
STARTCHAR I
ENCODING 73
SWIDTH 445 0
DWIDTH 16 0
BBX 22 29 -3 -4
BITMAP
5ACCCBBBBBBAAAAAA99995
005BFFFFFFFFFFFFFFE920
000039EFFFFFFFFFC61000
00000017EFFFFFD3000000
00000000CFFFFFB0000000
00000000BFFFFFA0000000
00000000AFFFFFA0000000
00000000AFFFFFA0000000
000000009FFFFF90000000
000000009FFFFF90000000
000000008FFFFF80000000
000000007FFFFF80000000
000000007FFFFF70000000
000000006FFFFF70000000
000000006FFFFF70000000
000000005FFFFF60000000
000000004FFFFF60000000
000000004FFFFF50000000
000000003FFFFF50000000
000000003FFFFF40000000
000000002FFFFF40000000
000000001FFFFF40000000
000000001FFFFF30000000
000000000FFFFF30000000
000000000FFFFF20000000
00000005BFFFFFC6100000
000028EFFFFFFFFFE93000
005BFFFFFFFFFFFFFFFD71
0122222222222222222222
ENDCHAR
STARTCHAR J
ENCODING 74
SWIDTH 718 0
DWIDTH 26 0
BBX 34 32 -4 -5
BITMAP
0000000000000000000000000000013572
000000000000000000000002479BEFF810
00000000000000001468ADFFFFFFF92000
00000000003579CEFFFFFFFFFFFB300000
000000026ACEFFFFFFFFFFFFFC40000000
00000000000013579ACFFFFFF700000000
0000000000000000000BFFFFF900000000
00000000000000000008FFFFFB00000000
00000000000000000005FFFFFD00000000
00000000000000000002FFFFFF00000000
00000000000000000000EFFFFF20000000
00000000000000000000CFFFFF40000000
000000000000000000009FFFFF60000000
000000000000000000007FFFFF80000000
000000000000000000005FFFFFA0000000
000000000000000000003FFFFFC0000000
000000000000000000001FFFFFD0000000
000000000000000000000FFFFFE0000000
000000000000000000000EFFFFF0000000
000000000000000000000DFFFFF0000000
478888888888887200000EFFFFE0000000
04BFFFFFFFFFFB3000000FFFFFD0000000
0004CFFFFFFC400000001FFFFFB0000000
000005EFFFB0000000004FFFFF80000000
000000BFFFC0000000008FFFFF40000000
0000006FFFF100000000DFFFFD00000000
0000001EFFF900000008FFFFF600000000
00000007FFFF8100018FFFFFB000000000
00000000BFFFFEA9AEFFFFFC2000000000
000000001AFFFFFFFFFFFFA10000000000
00000000005CFFFFFFFEA3000000000000
0000000000002577653000000000000000
ENDCHAR
STARTCHAR K
ENCODING 75
SWIDTH 934 0
DWIDTH 34 0
BBX 44 30 -3 -3
BITMAP
00000000000012233445662000000000000000000000
16ABBCCDEEFFFFFFFFFD710000000000000000000000
0028DFFFFFFFFFFFFB50233333333333333333331000
000004AEFFFFFFF9300005BFFFFFFFFFFFFFFD820000
00000001EFFFFFE0000000039EFFFFFFFFFA40000000
00000000DFFFFFE00000000001CFFFFFC61000000000
00000000CFFFFFD0000000004CFFFFC3000000000000
00000000BFFFFFD00000001AFFFFE600000000000000
00000000AFFFFFC0000007EFFFFA2000000000000000
000000009FFFFFC00004CFFFFD500000000000000000
000000009FFFFFB002AFFFFF91000000000000000000
000000008FFFFFB07EFFFFD300000000000000000000
000000007FFFFFDDFFFFFFE200000000000000000000
000000006FFFFFFFFFFFFFFC10000000000000000000
000000006FFFFFFFE82EFFFFA0000000000000000000
000000005FFFFFF92005FFFFF7000000000000000000
000000004FFFFF800000AFFFFF500000000000000000
000000003FFFFF7000001DFFFFE30000000000000000
000000002FFFFF70000004FFFFFD1000000000000000
000000002FFFFF700000008FFFFFB000000000000000
000000001FFFFF700000000CFFFFF900000000000000
000000000FFFFF6000000002EFFFFF60000000000000
000000000EFFFF60000000006FFFFFF4000000000000
000000000EFFFF70000000000BFFFFFE200000000000
00000016DFFFFFFC7200000001EFFFFFD10000000000
000018EFFFFFFFFFFFC61000005FFFFFFB0000000000
0029EFFFFFFFFFFFFFFFFB610009FFFFFF9100000000
002222222222222222222222029EFFFFFFFFA5000000
000000000000000000000005BFFFFFFFFFFFFFE82000
0000000000000000000016CEEEEEEEEEEEEFFFFFFB61
ENDCHAR
STARTCHAR L
ENCODING 76
SWIDTH 712 0
DWIDTH 26 0
BBX 29 29 -3 0
BITMAP
344444444444444444444440000000
16CFFFFFFFFFFFFFFFFFE710000000
00039EFFFFFFFFFFFFC50000000000
0000005BFFFFFFFF93000000000000
000000008FFFFFF600000000000000
000000007FFFFFF500000000000000
000000006FFFFFF500000000000000
000000006FFFFFF500000000000000
000000005FFFFFF500000000000000
000000004FFFFFF400000000000000
000000003FFFFFF400000000000000
000000002FFFFFF400000000000000
000000002FFFFFF300000000000000
000000001FFFFFF300000000000040
000000000FFFFFF300000000000550
000000000EFFFFF300000000000B50
000000000DFFFFF200000000002F50
000000000DFFFFF200000000008F50
000000000CFFFFF20000000000DF50
000000000BFFFFF20000000004FF50
000000000AFFFFF1000000000AFF50
0000000009FFFFF1000000001FFF50
0000000009FFFFF1000000007FFF50
0000000008FFFFF100000000DFFF50
0000000008FFFFF554433224FFFF50
00000005CFFFFFFFFFFFFFFFFFFF50
000005CFFFFFFFFFFFFFFFFFFFFF50
0006DFFFFFFFFFFFFFFEEDCCBAA930
028A98876655433211000000000000
ENDCHAR
STARTCHAR M
ENCODING 77
SWIDTH 1033 0
DWIDTH 37 0
BBX 43 28 -3 -1
BITMAP
00000000000000000000000000000111000000000000
288888877777776200000000000009FFFFEEDCCBB930
017DFFFFFFFFFFFB0000000000003FFFFFFFFFFB5000
00005CFFFFFFFFFF300000000000BFFFFFFFE8200000
0000003AFFFFFFFFB00000000004FFFFFFFC00000000
00000000CFFFFFFFF3000000000CFFFFFFFA00000000
00000000BFFFFFFFFA000000006FFFFFFFF900000000
00000000AFFFFFFFFF30000001DFFFFFFFF900000000
000000009FFFFFFFFFA0000007FFFFFFFFF800000000
000000007FFFFFFFFFF300001EFFFFFFFFF700000000
000000006FFFFFFFFFFA00009FFFAFFFFFF600000000
000000005FFFAEFFFFFF3002FFFC5FFFFFF600000000
000000004FFF96FFFFFFA00AFFF55FFFFFF500000000
000000003FFFA0CFFFFFF23FFFD05FFFFFF400000000
000000002FFFB04FFFFFFACFFF505FFFFFF300000000
000000001FFFB00AFFFFFFFFFD005FFFFFF300000000
000000000FFFC002FFFFFFFFF5005FFFFFF200000000
000000000EFFC0008FFFFFFFD0005FFFFFF100000000
000000000DFFD0001EFFFFFF50005FFFFFF000000000
000000000BFFD00006FFFFFD00005FFFFFF000000000
000000000AFFE00000CFFFF600005FFFFFE000000000
0000000009FFF000004FFFD000005FFFFFD000000000
0000000008FFF000000AFF6000005FFFFFD000000000
0000000007FFF1000002FD0000005FFFFFC000000000
0000000006FFF100000086000004BFFFFFE820000000
00000016BFFFFEA62000100005CFFFFFFFFFFC720000
00026BFFFFFFFFFFFC830003ACDDDEEEFFFFFFFFB610
16AEEEEEEEEEEEEEEEEEC84000000000000011122220
ENDCHAR
STARTCHAR N
ENCODING 78
SWIDTH 840 0
DWIDTH 30 0
BBX 37 29 -3 -2
BITMAP
00000000000000000000000000011122223330
388877777666654016CEEEEFFFFFFFFFFFF920
029EFFFFFFFFFFF40016CFFFFFFFFFFFE92000
00018EFFFFFFFFFE2000039EFFFFFFE8100000
0000016DFFFFFFFFD10000017DFFFA10000000
000000009FFFFFFFFA00000001FFF700000000
000000007FFFFFFFFF80000000FFF600000000
000000007FFFFFFFFFF5000000FFF600000000
000000007FFFFFFFFFFE200000FFF600000000
000000007FFFAFFFFFFFD10000FFF600000000
000000007FFF1CFFFFFFFB0000FFF500000000
000000007FFF11DFFFFFFF8000FFF500000000
000000007FFF102EFFFFFFF500FFF500000000
000000007FFF1004FFFFFFFE30EFF400000000
000000007FFF20006FFFFFFFD1EFF400000000
000000007FFF200008FFFFFFFBEFF400000000
000000007FFF300000AFFFFFFFFFF300000000
000000007FFF3000000CFFFFFFFFF300000000
000000007FFF40000001DFFFFFFFF300000000
000000007FFF400000002EFFFFFFF300000000
000000007FFF4000000004FFFFFFF200000000
000000007FFF50000000006FFFFFF200000000
000000008FFF800000000008FFFFF200000000
0000005CFFFFFE8300000000AFFFF100000000
00016DFFFFFFFFFFC71000000CFFF100000000
018EFFFFFFFFFFFFFFFA500001DFF100000000
5BBBBBBBBCCCCCCCCCCCCB61002EF000000000
0000000000000000000000000004F000000000
00000000000000000000000000005000000000
ENDCHAR
STARTCHAR O
ENCODING 79
SWIDTH 808 0
DWIDTH 29 0
BBX 29 24 0 -1
BITMAP
000000000000012210000000000000
0000000027ADFFFFFFC94000000000
0000005CFFFFFFFFFFFFFD70000000
00002CFFFFFFFFFFFFFFFFFC300000
0004EFFFFFFFB7557CFFFFFFE40000
002EFFFFFFB20000005EFFFFFE3000
00CFFFFFF80000000003FFFFFFC000
06FFFFFFB000000000007FFFFFF600
0CFFFFFF2000000000001EFFFFFD00
1FFFFFFB0000000000000AFFFFFF20
3FFFFFF700000000000007FFFFFF40
4FFFFFF600000000000005FFFFFF60
4FFFFFF600000000000005FFFFFF60
3FFFFFF700000000000006FFFFFF40
1FFFFFFA00000000000009FFFFFF20
0BFFFFFE1000000000000DFFFFFD00
05FFFFFF7000000000005FFFFFF600
00BFFFFFE20000000002EFFFFFC000
002EFFFFFD300000003DFFFFFE2000
0003EFFFFFF931125AFFFFFFE30000
00003DFFFFFFFFFFFFFFFFFC200000
0000007EFFFFFFFFFFFFFE60000000
000000016BEFFFFFFFDA4000000000
000000000003466542000000000000
ENDCHAR
STARTCHAR P
ENCODING 80
SWIDTH 746 0
DWIDTH 27 0
BBX 31 26 -3 -2
BITMAP
11000000000000000000000000000000
4AFFFEEDDCCCBBAAA987530000000000
0029FFFFFFFFFFFFFFFFFFEB83000000
000018EFFFFFFFFFFFFFFFFFFFC40000
00000006FFFFFEA999ACEFFFFFFF9000
00000000EFFFFD000000026BFFFFF800
00000000EFFFFE00000000004FFFFF10
00000000DFFFFE00000000000BFFFF30
00000000DFFFFF00000000001DFFFF10
00000000DFFFFF0000000003CFFFF900
00000000CFFFFF00000147CFFFFF9000
00000000CFFFFFCBBCEFFFFFFFC40000
00000000CFFFFFFFFFFFFFFD83000000
00000000CFFFFFFFFFDB851000000000
00000000BFFFFFA42000000000000000
00000000BFFFFF900000000000000000
00000000BFFFFFA00000000000000000
00000000AFFFFFA00000000000000000
00000000AFFFFFB00000000000000000
00000000AFFFFFC00000000000000000
00000000AFFFFFC00000000000000000
00000006EFFFFFE40000000000000000
000005DFFFFFFFFFD610000000000000
0004CFFFFFFFFFFFFFE9300000000000
04BFFFFFFFFFFFEEEEEDDA3000000000
02211111000000000000000000000000
ENDCHAR
STARTCHAR Q
ENCODING 81
SWIDTH 789 0
DWIDTH 28 0
BBX 32 35 1 -11
BITMAP
00000000001345431000000000000000
00000005ADFFFFFFFD93000000000000
000007EFFFFFFFFFFFFFC30000000000
0002DFFFFFFFFFFFFFFFFF7000000000
003EFFFFFFD84336DFFFFFF800000000
01DFFFFFF800000008FFFFFF60000000
09FFFFFF60000000009FFFFFE2000000
2FFFFFFA00000000001EFFFFF9000000
7FFFFFF2000000000008FFFFFE000000
AFFFFFB0000000000003FFFFFF400000
CFFFFF80000000000000FFFFFF600000
DFFFFF70000000000000EFFFFF700000
DFFFFF70000000000000EFFFFF700000
CFFFFF90000000000000FFFFFF500000
9FFFFFC0000000000003FFFFFF200000
5FFFFFF1000000000008FFFFFD000000
0EFFFFF800000000001EFFFFF7000000
05FFFFFF3000000000AFFFFFD1000000
00AFFFFFE40000001AFFFFFF30000000
001BFFFFFFA53459EFFFFFF500000000
0001AFFFFFFFFFFFFFFFFD3000000000
000004DFFFFFFFFFFFFE810000000000
000000049DFFFFFFFFB1000000000000
0000000000134AFFFFF2000000000000
00000000000004FFFFF9000000000000
00000000000001FFFFFF300000000000
00000000000000CFFFFFC31000000000
000000000000008FFFFFFFFEC9753100
000000000000004FFFFFFFFFFFFFFC71
00000000000001AFFFFFFFFFFEA62000
0000000000001CFFFFFFFFC830000000
000000000003DFFFFFEA510000000000
00000000004EFFFB7300000000000000
0000000006FD95100000000000000000
00000000472000000000000000000000
ENDCHAR
STARTCHAR R
ENCODING 82
SWIDTH 826 0
DWIDTH 30 0
BBX 43 33 -3 -9
BITMAP
24433221100000000000000000000000000000000000
05CFFFFFFFFFEEDDCCBA864100000000000000000000
0003AFFFFFFFFFFFFFFFFFFFC8200000000000000000
0000029FFFFFFFFFFFFFFFFFFFFA2000000000000000
00000001BFFFFF976668ADFFFFFFE300000000000000
000000008FFFFF4000000016DFFFFE10000000000000
000000008FFFFF40000000000BFFFF60000000000000
000000007FFFFF500000000005FFFF80000000000000
000000007FFFFF50000000000AFFFF40000000000000
000000007FFFFF6000000003BFFFF800000000000000
000000007FFFFF60001369DFFFFE7000000000000000
000000006FFFFFFEEFFFFFFFFF920000000000000000
000000006FFFFFFFFFFFFFFF81000000000000000000
000000006FFFFFFFEDBEFFFF80000000000000000000
000000006FFFFFE00007FFFFF4000000000000000000
000000005FFFFFF00000DFFFFD100000000000000000
000000005FFFFFF000005FFFFF900000000000000000
000000005FFFFFF100000CFFFFF50000000000000000
000000005FFFFFF1000004FFFFFE1000000000000000
000000004FFFFFF2000000BFFFFFA000000000000000
000000004FFFFFF30000003FFFFFF600000000000000
00000006DFFFFFF930000009FFFFFE20000000000000
000005DFFFFFFFFFFB500002FFFFFFB0000000000000
0004CFFFFFFFFFFFFFFE82008FFFFFF7000000000000
03AEEDDDDDCCCCCBBBBAAA601EFFFFFE999888887610
00000000000000000000000007FFFFFFFFFFFFFB5000
00000000000000000000000000DFFFFFFFFFD8200000
00000000000000000000000001CFFFFFFFB500000000
0000000000000000000000000BFFFFFD820000000000
000000000000000000000000AFFFFB50000000000000
000000000000000000000008FFD72000000000000000
00000000000000000000007FA4000000000000000000
00000000000000000000047200000000000000000000
ENDCHAR
STARTCHAR S
ENCODING 83
SWIDTH 661 0
DWIDTH 24 0
BBX 24 29 0 -4
BITMAP
000000000000000000000090
0000000357776510000007D0
00004AEFFFFFFFFD82004FC0
001BFFFFFFFFFFFFFF94EFA0
01DFFFFFD8668BFFFFFFFF80
0BFFFFE500000017EFFFFF60
3FFFFF50000000001AFFFF50
7FFFFF4000000000006FFF30
9FFFFFC3000000000005FF10
8FFFFFFFA510000000007F00
5FFFFFFFFFFD951000000800
0DFFFFFFFFFFFFFC71000000
02EFFFFFFFFFFFFFFE910000
002CFFFFFFFFFFFFFFFE6000
00005CFFFFFFFFFFFFFFF800
00000027AEFFFFFFFFFFFF70
003000000026BFFFFFFFFFE1
005500000000028FFFFFFFF5
006D000000000003EFFFFFF6
008F9000000000006FFFFFF6
009FF800000000003FFFFFF2
00BFFFB200000000AFFFFFB0
00CFFFFF9510026CFFFFFD10
00EFBFFFFFFFFFFFFFFFB200
00FD03BFFFFFFFFFFFD60000
01F500027BEFFFEB84000000
03D000000000100000000000
046000000000000000000000
040000000000000000000000
ENDCHAR
STARTCHAR T
ENCODING 84
SWIDTH 754 0
DWIDTH 27 0
BBX 25 26 1 -1
BITMAP
13222211111000000000000000
8FFFFFFFFFFFFFFFEEEEEDDD90
6FFFFFFFFFFFFFFFFFFFFFFF90
5FFFFFFFFFFFFFFFFFFFFFFF70
4FFF80011EFFFFF92223AFFF50
3FFF30000EFFFFF800005FFF30
1FFD00000DFFFFF800001EFF10
0FF800000DFFFFF700000AFF00
0EF300000CFFFFF7000005FD00
0DD000000CFFFFF6000001FB00
0B8000000BFFFFF6000000B900
0A2000000BFFFFF50000006800
060000000BFFFFF50000001600
010000000AFFFFF40000000100
000000000AFFFFF40000000000
0000000009FFFFF30000000000
0000000009FFFFF30000000000
0000000009FFFFF30000000000
0000000008FFFFF20000000000
0000000008FFFFF20000000000
0000000007FFFFF10000000000
0000000009FFFFF10000000000
00000005CFFFFFFE7100000000
000005DFFFFFFFFFFE71000000
0005DFFFFFFFFFFFFFFE810000
0057778888888999999AA93000
ENDCHAR
STARTCHAR U
ENCODING 85
SWIDTH 725 0
DWIDTH 26 0
BBX 32 25 -3 -1
BITMAP
2100000000000000017AAA9998888774
39EEDCB9876543210004CFFFFFFFFE60
0028EFFFFFFFFFFD710005DFFFFF8100
000017FFFFFFFB400000000DFFF30000
000000FFFFFF80000000000CFFF20000
000000FFFFFF80000000000CFFF10000
000001FFFFFF80000000000BFFF00000
000001FFFFFF70000000000AFFF00000
000002FFFFFF70000000000AFFE00000
000003FFFFFF700000000009FFD00000
000003FFFFFF600000000008FFD00000
000003FFFFFF600000000008FFC00000
000004FFFFFF600000000007FFC00000
000004FFFFFF600000000007FFB00000
000004FFFFFF600000000006FFA00000
000004FFFFFF600000000006FF900000
000003FFFFFF800000000007FF800000
000001FFFFFFB0000000000BFF600000
000000CFFFFFF2000000002FFF200000
0000007FFFFFFB00000001CFFC000000
0000000DFFFFFFA100003CFFF5000000
00000004FFFFFFFEA89CFFFFA0000000
000000005EFFFFFFFFFFFFFA00000000
0000000002BFFFFFFFFFFD6000000000
0000000000037BDEEDB8400000000000
ENDCHAR
STARTCHAR V
ENCODING 86
SWIDTH 786 0
DWIDTH 28 0
BBX 38 29 -5 -3
BITMAP
00000000000000002597100000000000000000
00000000000036ADFE60000000000000000000
0000000147BEFFFFC20003AA75200000000000
000158CFFFFFFFF700000008FFFFDA86310000
39DFFFFFFFFFFF50000000003CFFFFFFFFDB93
001468ACFFFFFF8000000000008FFFFFFEA510
00000000DFFFFFE100000000000BFFD8300000
000000005FFFFFF600000000003FFF20000000
000000000DFFFFFD0000000000BFF900000000
0000000006FFFFFF5000000004FFF200000000
0000000000DFFFFFB00000000BFF8000000000
00000000006FFFFFF30000004FFE1000000000
00000000000EFFFFF9000000CFF80000000000
000000000007FFFFFF100005FFE10000000000
000000000001EFFFFF80000DFF700000000000
0000000000007FFFFFE1006FFE100000000000
0000000000001EFFFFF600DFF7000000000000
00000000000008FFFFFD06FFE1000000000000
00000000000001EFFFFF5EFF60000000000000
000000000000008FFFFFEFFD00000000000000
000000000000001EFFFFFFF600000000000000
0000000000000008FFFFFFD000000000000000
0000000000000002FFFFFF5000000000000000
00000000000000009FFFFC0000000000000000
00000000000000002FFFF50000000000000000
000000000000000009FFC00000000000000000
000000000000000002FF400000000000000000
000000000000000000AB000000000000000000
00000000000000000023000000000000000000
ENDCHAR
STARTCHAR W
ENCODING 87
SWIDTH 1026 0
DWIDTH 37 0
BBX 47 28 -5 -4
BITMAP
000000000000001235677100000044200000000000000000
012346789ABDEFFFFFE71000000016DFDBA8642100000000
38CFFFFFFFFFFFFFE710000050000006DFFFFFFFECA87530
00026BFFFFFFFFE810000002F400000005CFFFFFFFFEB620
00000019FFFFFF5000000008FC0000000004DFFFC8400000
00000001FFFFFFA00000001EFF5000000000DFF700000000
00000000AFFFFFF10000007FFFD000000004FFF100000000
000000003FFFFFF6000001EFFFF70000000AFFA000000000
000000000CFFFFFC000006FFFFFE1000001EFF4000000000
0000000006FFFFFF20000DFFFFFF8000006FFD0000000000
0000000000EFFFFF80005FFFFFFFF20000CFF70000000000
00000000008FFFFFD000CFFFFFFFF90002FFF20000000000
00000000002FFFFFF404FFFFFFFFFF3008FFB00000000000
00000000000AFFFFF90BFFFFEFFFFFB00EFF500000000000
000000000004FFFFFE4FFFFA7FFFFFF45FFE000000000000
000000000000DFFFFFEFFFF31EFFFFFCBFF8000000000000
0000000000006FFFFFFFFFB008FFFFFFFFF2000000000000
0000000000001EFFFFFFFF3001EFFFFFFFB0000000000000
00000000000009FFFFFFFB00008FFFFFFF60000000000000
00000000000002FFFFFFF400002FFFFFFE10000000000000
00000000000000BFFFFFC0000009FFFFF900000000000000
000000000000004FFFFF50000002FFFFF300000000000000
000000000000000DFFFD00000000AFFFC000000000000000
0000000000000007FFF5000000003FFF6000000000000000
0000000000000001EFD0000000000AFF1000000000000000
00000000000000009F600000000003FA0000000000000000
00000000000000003E000000000000B40000000000000000
000000000000000004000000000000300000000000000000
ENDCHAR
STARTCHAR X
ENCODING 88
SWIDTH 860 0
DWIDTH 31 0
BBX 38 25 -4 -2
BITMAP
00000000000000000001230000000000000000
00000012345789ABDEFE810000000000000000
0016CEFFFFFFFFFFFE8102345567889ABBC820
0000037BFFFFFFFF810003BFFFFFFFFFFA3000
0000000015FFFFFFB0000005DFFFFFE9200000
00000000006FFFFFF80000009FFFE810000000
000000000009FFFFFF60001BFFFD2000000000
000000000000CFFFFFF302CFFFC10000000000
0000000000002EFFFFFE5EFFFA100000000000
00000000000004FFFFFFFFFF90000000000000
000000000000006FFFFFFFF700000000000000
0000000000000009FFFFFFD100000000000000
0000000000000002FFFFFFFA00000000000000
000000000000003EFFFFFFFF70000000000000
00000000000005FFFFFFFFFFF4000000000000
0000000000007FFFFBAFFFFFFE200000000000
00000000000AFFFF801CFFFFFFC00000000000
0000000001BFFFF60002EFFFFFF90000000000
000000002DFFFD3000004FFFFFFF6000000000
00000028EFFFC100000006FFFFFFF300000000
00004BFFFFFFD5000000009FFFFFFD20000000
016DFFFFFFFFFFA10000000DFFFFFFFA400000
178899AABBCCDDDD500004CFFFFFFFFFFD7100
00000000000000000002AFFFFFFFFFFFFFFFA4
0000000000000000006BBAA988776554432211
ENDCHAR
STARTCHAR Y
ENCODING 89
SWIDTH 848 0
DWIDTH 31 0
BBX 38 27 -5 -3
BITMAP
00000000001223455673000000000000000000
17ABCCDEFFFFFFFFFE50000000000000000000
0039EFFFFFFFFFFF9100001211000000000000
000005AFFFFFFFF900000018FFFFEDDCCBBA94
000000016CFFFFFF500000002BFFFFFFFFE820
0000000001CFFFFFE3000000005DFFFFC50000
00000000002DFFFFFD100000001CFFA3000000
000000000003EFFFFFC0000001CFF800000000
0000000000004FFFFFFA00001CFFA000000000
00000000000006FFFFFF7001CFFB0000000000
000000000000008FFFFFF51CFFC10000000000
0000000000000009FFFFFECFFD100000000000
0000000000000000BFFFFFFFD2000000000000
00000000000000001CFFFFFE30000000000000
000000000000000002DFFFF500000000000000
000000000000000000BFFFF500000000000000
000000000000000000BFFFF700000000000000
000000000000000000CFFFF800000000000000
000000000000000000CFFFFA00000000000000
000000000000000000DFFFFB00000000000000
000000000000000000EFFFFC00000000000000
000000000000000000EFFFFE00000000000000
000000000000000000FFFFFF00000000000000
000000000000000005FFFFFFA4000000000000
0000000000000017DFFFFFFFFFE94000000000
00000000000029EFFFFFFFFFFFFFFD83000000
00000000000377777777776666666666300000
ENDCHAR
STARTCHAR Z
ENCODING 90
SWIDTH 685 0
DWIDTH 25 0
BBX 26 22 0 0
BITMAP
2667788899AAABBCCCDDEEEFF7
4FFFFFFFFFFFFFFFFFFFFFFFA0
0EFFFFFFFFFFFFFFFFFFFFFD10
0AFFFDCBBAA9988DFFFFFFE300
06FFF3000000007FFFFFFF5000
02FFF000000004FFFFFFF80000
00DFC00000003EFFFFFFB00000
009F90000001DFFFFFFE100000
005F6000001CFFFFFFF3000000
001F300000AFFFFFFF60000010
000C100008FFFFFFFA00000530
000600006FFFFFFFC100000D30
00000004FFFFFFFE2000006F20
0000002EFFFFFFF5000001EF10
000001DFFFFFFF80000008FF00
00000BFFFFFFFB0000001EFE00
00009FFFFFFFD10000009FFE00
0007FFFFFFFF30000002FFFD00
005FFFFFFFFFEDDCCBACFFFC00
03FFFFFFFFFFFFFFFFFFFFFB00
2EFFFFFFFFFFFFFFFFFFFFFA00
23444444455555556666666400
ENDCHAR
STARTCHAR bracketleft
ENCODING 91
SWIDTH 380 0
DWIDTH 14 0
BBX 14 35 2 -5
BITMAP
89887766554443
CFFFFFFFFFFFA3
CFFFFFFFFF9200
CFFFFFFE810000
BFFFFF71000000
BFFFFF00000000
AFFFFF00000000
AFFFFF00000000
AFFFFE00000000
9FFFFE00000000
9FFFFE00000000
8FFFFE00000000
8FFFFD00000000
7FFFFD00000000
7FFFFD00000000
7FFFFD00000000
6FFFFC00000000
6FFFFC00000000
5FFFFC00000000
5FFFFC00000000
4FFFFB00000000
4FFFFB00000000
4FFFFB00000000
3FFFFB00000000
3FFFFA00000000
2FFFFA00000000
2FFFFA00000000
1FFFFA00000000
1FFFF900000000
1FFFF900000000
0FFFFC20000000
0FFFFFF8100000
0EFFFFFFE81000
0EFFFFFFFFE810
03444444555540
ENDCHAR
STARTCHAR backslash
ENCODING 92
SWIDTH 680 0
DWIDTH 25 0
BBX 24 35 0 -3
BITMAP
000019100000000000000000
0005EF800000000000000000
02BFFFF20000000000000000
5EFFFFFA0000000000000000
2FFFFFFF4000000000000000
08FFFFFFC000000000000000
00DFFFFFF600000000000000
004FFFFFFE10000000000000
000AFFFFFF80000000000000
0001EFFFFFF2000000000000
00006FFFFFFB000000000000
00000CFFFFFF400000000000
000003FFFFFFD00000000000
0000008FFFFFF70000000000
0000001DFFFFFE1000000000
00000005FFFFFF9000000000
00000000AFFFFFF300000000
000000002EFFFFFB00000000
0000000007FFFFFF50000000
0000000000CFFFFFD0000000
00000000003FFFFFF7000000
000000000009FFFFFE200000
000000000001EFFFFF900000
0000000000005FFFFFF30000
0000000000000BFFFFFC0000
00000000000002FFFFFF5000
000000000000008FFFFFD100
000000000000000DFFFFF800
0000000000000004FFFFFF20
0000000000000000AFFFFFA0
00000000000000001EFFFFF4
000000000000000006FFFFFC
000000000000000000CFFFE7
0000000000000000003FFA20
000000000000000000074000
ENDCHAR
STARTCHAR bracketright
ENCODING 93
SWIDTH 371 0
DWIDTH 13 0
BBX 14 35 -2 -5
BITMAP
34445566778888
29FFFFFFFFFFFD
0018EFFFFFFFFD
000017EFFFFFFD
00000017FFFFFC
00000000EFFFFC
00000000DFFFFB
00000000DFFFFB
00000000DFFFFA
00000000DFFFFA
00000000CFFFFA
00000000CFFFF9
00000000CFFFF9
00000000CFFFF8
00000000BFFFF8
00000000BFFFF7
00000000BFFFF7
00000000BFFFF7
00000000BFFFF6
00000000AFFFF6
00000000AFFFF5
00000000AFFFF5
00000000AFFFF4
000000009FFFF4
000000009FFFF4
000000009FFFF3
000000009FFFF3
000000008FFFF2
000000008FFFF2
000000008FFFF1
00000001BFFFF1
0000018EFFFFF1
00017EFFFFFFF0
017EFFFFFFFFF0
04555544444440
ENDCHAR
STARTCHAR asciicircum
ENCODING 94
SWIDTH 671 0
DWIDTH 24 0
BBX 26 22 -1 10
BITMAP
00000000000091000000000000
000000000005F9000000000000
00000000001DFF300000000000
00000000008FFFC00000000000
0000000002FFFFF70000000000
000000000AFFFFFF2000000000
000000004FFFFFFFB000000000
00000000DFFFFFFFF600000000
00000007FFFFFFFFFE10000000
0000002EFFFFFFFFFFA0000000
000000AFFFFFF6CFFFF4000000
000004FFFFFFC02EFFFD000000
00000CFFFFFF5004FFFF800000
00006FFFFFFC00007FFFF30000
0001EFFFFFF400000AFFFC0000
0009FFFFFFB0000001CFFF6000
003FFFFFFF300000002EFFE200
00CFFFFFFB0000000004FFFA00
06FFFFFFF300000000007FFF50
1EFFFFFFA0000000000009FFD1
16AEFFFF200000000000004310
000037B9000000000000000000
ENDCHAR
STARTCHAR underscore
ENCODING 95
SWIDTH 840 0
DWIDTH 30 0
BBX 31 7 0 -4
BITMAP
66677777888889999AAAAABBBBBCCC10
FFFFFFFFFFFFFFFFFFFFFFFFFFFFFF20
FFFFFFFFFFFFFFFFFFFFFFFFFFFFFF20
FFFFFFFFFFFFFFFFFFFFFFFFFFFFFF20
FFFFFFFFFFFFFFFFFFFFFFFFFFFFFF30
FFFFFFFFFFFFFFFFFFFFFFFFFFFFFF30
666777788889999AAABBBBCCCCDDDD30
ENDCHAR
STARTCHAR grave
ENCODING 96
SWIDTH 707 0
DWIDTH 25 0
BBX 8 9 10 21
BITMAP
00029600
04BFFB00
4FFFFF20
0CFFFF70
04FFFFC0
00BFFFF2
003FFFF7
000AFFF8
0002E920
ENDCHAR
STARTCHAR a
ENCODING 97
SWIDTH 572 0
DWIDTH 21 0
BBX 23 21 0 -1
BITMAP
00000049CEEDC94000000000
00005DFFFFFFFFFC30000000
0009FFFFEBBEFFFFE3000000
008FFFF60001AFFFFC000000
01EFFFD100000EFFFF500000
04FFFFF5000009FFFF900000
03FFFFF5000006FFFFB00000
00DFFFD1000005FFFFC00000
0019B920000005FFFFD00000
0000379AAA9869FFFFC00000
003BFFFFFFFFFFFFFFB00000
03EFFFFFCABCEFFFFF900000
0DFFFFD200000DFFFF700000
3FFFFF5000000FFFFF600000
4FFFFF5000002FFFFF400000
2FFFFFD200005FFFFF300000
09FFFFFFBBCDFFFFFF100000
008FFFFFFFFFFFFFFF000000
00028BDFFFFDFFFFFFD50000
000000000000DFFFFFFFD600
000000000000CBBA99887640
ENDCHAR
STARTCHAR b
ENCODING 98
SWIDTH 723 0
DWIDTH 26 0
BBX 31 33 -5 -6
BITMAP
0000000013579BD70000000000000000
12468ACEFFFFFFF70000000000000000
38DFFFFFFFFFFFF60000000000000000
00038DFFFFFFFFF60000000000000000
00000027CFFFFFF50000000000000000
000000002FFFFFF40000000000000000
000000002FFFFFF40000000000000000
000000001FFFFFF30000000000000000
000000000FFFFFF30000000000000000
000000000FFFFFF20000000000000000
000000000EFFFFF10000000000000000
000000000EFFFFF10000000000000000
000000000DFFFFF00000000000000000
000000000CFFFFF00000000000000000
000000000CFFFFE00000000000000000
000000000BFFFFD00000000000000000
000000000AFFFFD48ACDDEDB95100000
000000000AFFFFFFFFFFFFFFFFE80000
0000000009FFFFFFFFFFFFFFFFFFC100
0000000009FFFFFC743248EFFFFFFB00
0000000008FFFFA00000001CFFFFFF40
0000000007FFFF9000000002FFFFFF80
0000000007FFFF9000000000AFFFFFA0
0000000006FFFF80000000008FFFFFA0
0000000005FFFF70000000009FFFFF70
0000000005FFFF7000000001DFFFFE10
0000000004FFFF6000000009FFFFF600
0000000004FFFF50000004CFFFFF8000
000000002CFFFFA7789BEFFFFFE50000
00000003EFFFFFFFFFFFFFFFF9200000
0000006FFFFFFFFFFFFFFFB710000000
000009FFFFFFECBA9765310000000000
00005865421000000000000000000000
ENDCHAR
STARTCHAR c
ENCODING 99
SWIDTH 589 0
DWIDTH 21 0
BBX 20 21 1 -3
BITMAP
000000037ABCB8300000
000006DFFFFFFFFD5000
0002CFFFFFFFFFFFF900
002EFFFFF9669FFFFF90
01DFFFFE300007FFFFF2
09FFFFF400000AFFFFF6
2FFFFFB000000AFFFFF6
7FFFFF70000005FFFFE2
BFFFFF400000006DEC40
CFFFFF30000000000000
DFFFFF20000000000000
CFFFFF40000000000007
AFFFFF8000000000005C
6FFFFFE10000000004E9
1EFFFFFA000000004EF5
07FFFFFFC3000019FFE1
00BFFFFFFFDAACFFFF60
001CFFFFFFFFFFFFF900
00008FFFFFFFFFFF7000
0000028CFFFFFC810000
00000000123210000000
ENDCHAR
STARTCHAR d
ENCODING 100
SWIDTH 713 0
DWIDTH 26 0
BBX 28 35 1 -6
BITMAP
0000000000343210000000000000
000000000005CFFFEDCBA9863000
00000000000004BFFFFFFFFF6000
0000000000000003AFFFFFFF4000
000000000000000005FFFFFF2000
000000000000000004FFFFFF1000
000000000000000005FFFFFE0000
000000000000000005FFFFFC0000
000000000000000006FFFFFA0000
000000000000000007FFFFF80000
000000000000000008FFFFF60000
000000000000000009FFFFF40000
000000000000000009FFFFF20000
00000000000000000AFFFFF00000
00000000000000000BFFFFD00000
0000005ADFFEDA730CFFFFC00000
00006EFFFFFFFFFFCEFFFFA00000
000AFFFFFFFFFFFFFFFFFF800000
00AFFFFFFC8668BFFFFFFF600000
06FFFFFE400000017FFFFF400000
0EFFFFE3000000001FFFFF200000
4FFFFF80000000002FFFFF000000
7FFFFF20000000002FFFFD000000
8FFFFF00000000003FFFFB000000
8FFFFE00000000004FFFF9000000
5FFFFF20000000005FFFF7000000
1FFFFF90000000005FFFF5000000
08FFFFF7000000006FFFF4000000
00CFFFFFB30000008FFFF2000000
001BFFFFFFDA99AEFFFFF0000000
00007EFFFFFFFFFFFFFFD0000000
0000016BEFFFFFFFFFFFD5200000
0000000002455431BFFFFFFDA630
0000000000000000CFFFFFFECA85
0000000000000000BB9753100000
ENDCHAR
STARTCHAR e
ENCODING 101
SWIDTH 593 0
DWIDTH 21 0
BBX 20 20 1 -3
BITMAP
00000003689862000000
000017DFFFFFFFC40000
0003DFFFFFFFFFFF8000
004FFFFFFFFFFFFFF800
02EFFFFD5003AFFFFF40
0BFFFFE1000009FFFFD0
3FFFFF60000001EFFFF4
9FFFFF100000009FFFF9
BFFFFD544444338FFFFD
DFFFFFFFFFFFFFFFFFFE
DFFFFFFFFFFFFFFFFFFF
BFFFFEDCCCCBBBAAA999
8FFFFD00000000000000
3FFFFF50000000000040
0AFFFFE4000000003A60
01DFFFFFB632347BFC00
003EFFFFFFFFFFFFD200
0001BFFFFFFFFFFA1000
000004AEFFFFD9300000
00000000233100000000
ENDCHAR
STARTCHAR f
ENCODING 102
SWIDTH 507 0
DWIDTH 18 0
BBX 23 50 -2 -15
BITMAP
000000000000268862000000
000000000019FFFFFFB30000
0000000001CFFFFFFFFE5000
000000000BFFFFB8BFFFF300
000000006FFFF90009FFFC00
00000000DFFFF10005FFFF20
00000003FFFFB0000DFFFF60
00000007FFFF90000FFFFF60
0000000AFFFF60000BFFFF30
0000000CFFFF600001AED500
0000000DFFFF600000000000
0000000EFFFF600000000000
0000000EFFFF700000000000
0000000DFFFF800000000000
0000000DFFFF900000000000
0000000BFFFFA00000000000
0011111AFFFFC11111110000
007FFFFFFFFFFFFFFFFB0000
007FFFFFFFFFFFFFFFFB0000
007FFFFFFFFFFFFFFFFB0000
00122224FFFFF72222210000
00000001FFFFF80000000000
00000000EFFFF90000000000
00000000CFFFFB0000000000
00000000BFFFFD0000000000
000000009FFFFF0000000000
000000007FFFFF1000000000
000000005FFFFF3000000000
000000003FFFFF5000000000
000000001FFFFF7000000000
000000000EFFFF8000000000
000000000DFFFFA000000000
000000000BFFFFC000000000
0000000009FFFFE000000000
0000000007FFFFF000000000
0000000005FFFFF200000000
0000000003FFFFF400000000
0000000001FFFFF500000000
0000000000EFFFF600000000
0000000000DFFFF700000000
1AFE700000CFFFF600000000
8FFFF60000CFFFF400000000
BFFFF90000DFFFF100000000
BFFFF70002FFFFC000000000
7FFFE10007FFFF7000000000
2EFFF6002EFFFD1000000000
06FFFFBAEFFFF40000000000
007FFFFFFFFE500000000000
0004CFFFFFA2000000000000
000002454100000000000000
ENDCHAR
STARTCHAR g
ENCODING 103
SWIDTH 606 0
DWIDTH 22 0
BBX 24 41 0 -18
BITMAP
000000000000000005986100
0000000000000002BFFFFE40
000000000000001DFFFFFFE3
00000000000000AFFFFFFFF8
00000000024423FFF9FFFFF8
0000004AEFFFFFFFA2FFFFF3
00002CFFFFFFFFFFB17FFF70
0004EFFFFA67BFFFFD325300
004FFFFF400007FFFFD10000
01DFFFF6000000AFFFFB0000
06FFFFD00000002FFFFF4000
0CFFFF800000000BFFFF9000
0FFFFF4000000008FFFFC000
1FFFFF3000000007FFFFD000
1FFFFF3000000007FFFFD000
0EFFFF5000000009FFFFB000
0AFFFFA00000000DFFFF6000
04FFFFE10000004FFFFE1000
009FFFFA000001DFFFF60000
000CFFFFA1002CFFFFA00000
0001AFFFFFCDFFFFF9000000
00029FFFFFFFFFFD50000000
003EFFFFAABBA84000000000
00CFFFFF5000000000000000
00DFFFFFFEBA986400000000
008FFFFFFFFFFFFFEA300000
0007EFFFFFFFFFFFFFF91000
0007FFFFFFFFFFFFFFFFB100
01BFFFFF9410149FFFFFF900
0CFFFFE300000002DFFFFF30
7FFFFF40000000003FFFFF90
CFFFFC00000000000BFFFFD0
EFFFF9000000000008FFFFF0
FFFFF9000000000007FFFFF0
DFFFFC00000000000AFFFFD0
8FFFFF30000000002FFFFF90
2EFFFFD200000001CFFFFE20
04FFFFFE8300027EFFFFF400
003DFFFFFFFEFFFFFFFD4000
00017DFFFFFFFFFFFD710000
00000037ACDEDCA730000000
ENDCHAR
STARTCHAR h
ENCODING 104
SWIDTH 678 0
DWIDTH 24 0
BBX 33 34 -5 -3
BITMAP
00000000013579C5000000000000000000
0002479BDFFFFFF5000000000000000000
3AFFFFFFFFFFFFF4000000000000000000
00159DFFFFFFFFF3000000000000000000
00000026BFFFFFF3000000000000000000
000000005FFFFFF2000000000000000000
000000005FFFFFF1000000000000000000
000000004FFFFFF1000000000000000000
000000003FFFFFF0000000000000000000
000000003FFFFFE0000000000000000000
000000002FFFFFE0000000000000000000
000000002FFFFFD0000000000000000000
000000001FFFFFD0000000000000000000
000000001FFFFFC0000000000000000000
000000000FFFFFB0000000000000000000
000000000EFFFFB0000000000000000000
000000000EFFFFA3678763100000000000
000000000DFFFFFFFFFFFFFB5000000000
000000000DFFFFFFFFFFFFFFFC30000000
000000000CFFFFFC9767BFFFFFE3000000
000000000CFFFF80000005FFFFFC000000
000000000BFFFF600000009FFFFF300000
000000000AFFFF600000003FFFFF500000
000000000AFFFF500000001FFFFF500000
0000000009FFFF400000001FFFFF400000
0000000009FFFF400000001FFFFF200000
0000000008FFFF300000001FFFFE000000
0000000008FFFF200000001FFFFC000000
000000002BFFFFA10000001FFFF9000000
00000019FFFFFFFE6000001FFFF6000000
000017EFFFFFFFFEEA20006FFFFA100000
000045544322110000005DFFFFFFE60000
0000000000000000003CFFFFFFFFFFC300
0000000000000000001223344455667720
ENDCHAR
STARTCHAR i
ENCODING 105
SWIDTH 393 0
DWIDTH 14 0
BBX 17 30 -1 -1
BITMAP
000000027840000000
0000006FFFFA000000
000002FFFFFF700000
000007FFFFFFD00000
000008FFFFFFD00000
000004FFFFFF900000
000000AFFFFE100000
00000007CD91000000
000000000000000000
000000000000000000
4AAAAAAAAAAA800000
028EFFFFFFFFB00000
00018EFFFFFFA00000
0000019FFFFF900000
0000005FFFFF700000
0000004FFFFF600000
0000004FFFFF500000
0000003FFFFF400000
0000002FFFFF300000
0000002FFFFF200000
0000001FFFFF000000
0000000FFFFE000000
0000000FFFFD000000
0000000EFFFC000000
0000000EFFFB000000
0000007FFFFC100000
00003CFFFFFFE50000
0019FFFFFFFFFFA100
02BCDDDEEEEFFFFD40
000000000000000110
ENDCHAR
STARTCHAR j
ENCODING 106
SWIDTH 385 0
DWIDTH 14 0
BBX 16 40 -3 -13
BITMAP
0000000155100000
0000006EFFE50000
000003FFFFFF2000
00000AFFFFFF9000
00000BFFFFFFA000
000009FFFFFF7000
000001EFFFFD1000
0000002BFFA20000
0000000000000000
0000000000124400
0013578ACEFFFB00
005BFFFFFFFFFC00
000029EFFFFFFE00
00000016DFFFFF00
000000008FFFFF20
000000006FFFFF30
000000004FFFFF50
000000003FFFFF60
000000001FFFFF80
000000000EFFFF90
000000000CFFFFB0
000000000AFFFFC0
0000000009FFFFE0
0000000007FFFFF0
0000000005FFFFF2
0000000003FFFFF3
0000000002FFFFF4
0000000000FFFFF6
0000000000DFFFF6
0000000000CFFFF7
0178300000AFFFF7
1EFFF600009FFFF6
6FFFFE00008FFFF5
7FFFFE00009FFFF2
5FFFF70000CFFFD0
1EFFF50003FFFF80
05FFFF969EFFFD10
006EFFFFFFFFD200
00029EFFFFD71000
0000003431000000
ENDCHAR
STARTCHAR k
ENCODING 107
SWIDTH 749 0
DWIDTH 27 0
BBX 36 33 -5 -4
BITMAP
0012345689ABCDE800000000000000000000
159DFFFFFFFFFFF800000000000000000000
0000158CFFFFFFF800000000000000000000
000000005FFFFFF700000000000000000000
000000004FFFFFF700000000000000000000
000000003FFFFFF600000000000000000000
000000002FFFFFF604CFFFFFFFFFFFFFFB40
000000001FFFFFF60006EFFFFFFFFFFA3000
000000000FFFFFF5000019FFFFFFF9200000
000000000EFFFFF5000000BFFFF820000000
000000000EFFFFF400001BFFFD3000000000
000000000DFFFFF40002DFFFA10000000000
000000000CFFFFF4004EFFF7000000000000
000000000BFFFFF306FFFD40000000000000
000000000AFFFFF38FFFF600000000000000
0000000009FFFFFCFFFFFE10000000000000
0000000008FFFFFFFFFFFF90000000000000
0000000007FFFFFFFCFFFFF3000000000000
0000000006FFFFFE609FFFFC000000000000
0000000005FFFFF2001DFFFF600000000000
0000000004FFFFF00004FFFFE10000000000
0000000003FFFFF000009FFFFA0000000000
0000000002FFFFE000001DFFFF4000000000
0000000001FFFFE0000005FFFFD000000000
0000000000FFFFE0000000AFFFF700000000
0000000000EFFFE00000001EFFFE20000000
000000005CFFFFFE82000005FFFFA0000000
0000005CFFFFFFFFFFB50000AFFFFA620000
00004CFFFFFFFFEEDCCB93005FFFFFFFDA62
000255433211000000000007FFFFFFFFDA74
0000000000000000000001BFFFFEB8510000
000000000000000000003DFC962000000000
000000000000000000026300000000000000
ENDCHAR
STARTCHAR l
ENCODING 108
SWIDTH 369 0
DWIDTH 13 0
BBX 19 34 -4 -3
BITMAP
5ABCCCCCDDDDDD700000
005AFFFFFFFFFF700000
000016CFFFFFFF700000
00000003FFFFFF600000
00000000FFFFFF600000
00000000FFFFFF500000
00000000EFFFFF500000
00000000DFFFFF400000
00000000DFFFFF400000
00000000CFFFFF300000
00000000BFFFFF300000
00000000BFFFFF200000
00000000AFFFFF200000
000000009FFFFF100000
000000009FFFFF100000
000000008FFFFF000000
000000007FFFFF000000
000000007FFFFE000000
000000006FFFFD000000
000000005FFFFD000000
000000005FFFFC000000
000000004FFFFC000000
000000003FFFFB000000
000000003FFFFB000000
000000002FFFFA000000
000000001FFFFA000000
000000001FFFF9000000
000000000FFFF9000000
000000000FFFF8000000
000000000EFFF8000000
00000002BFFFFFA10000
0000007EFFFFFFFE6000
00003CFFFFFFFFFFFC30
0004AA99887665544320
ENDCHAR
STARTCHAR m
ENCODING 109
SWIDTH 990 0
DWIDTH 36 0
BBX 43 18 -4 2
BITMAP
00000000001368300001000000000000000000000000
00001368BDFFFF439CFFFD71000059BDCA5000000000
17BDFFFFFFFFFFCFFFFFFFFD317EFFFFFFFB10000000
0049DFFFFFFFFFFFFFFFFFFFFFFFFFFFFFFFA0000000
0000027BFFFFFFFFEDEFFFFFFFFFFFFFFFFFF3000000
00000000AFFFFFC30004EFFFFFFE5237FFFFF8000000
000000008FFFFF1000004FFFFFE200008FFFFB000000
000000006FFFFD0000000DFFFF8000003FFFFC000000
000000005FFFFB0000000AFFFF2000001FFFFC000000
000000003FFFF900000009FFFE0000001FFFFB000000
000000001FFFF800000009FFFD0000001FFFF9000000
000000000EFFF600000009FFFB0000002FFFF8000000
000000000CFFF400000009FFFA0000002FFFF6000000
000000004DFFFA20000009FFF80000018FFFF9000000
0000017DFFFFFFF8100009FFF700018EFFFFFFD60000
00017CCCCCCCCCCBA3016DFFFA203ABCDDEEFFFFC400
000000000000000004AFFFFFFFF92000000001123310
0000000000000004ABBBBBBBBBBAA400000000000000
ENDCHAR
STARTCHAR n
ENCODING 110
SWIDTH 643 0
DWIDTH 23 0
BBX 30 18 -4 2
BITMAP
000000000013683000000000000000
00001368BDFFFF416AEFEC81000000
17BDFFFFFFFFFFBFFFFFFFFE500000
0049DFFFFFFFFFFFFFFFFFFFF30000
0000027BFFFFFFFFEDEFFFFFFB0000
00000000AFFFFFC30004DFFFFF1000
000000008FFFFF1000004FFFFF3000
000000006FFFFD0000000DFFFF4000
000000005FFFFB0000000AFFFF4000
000000003FFFF900000009FFFF3000
000000001FFFF800000009FFFF1000
000000000EFFF600000009FFFE0000
000000000CFFF400000009FFFC0000
000000004DFFFA10000009FFFA0000
0000017DFFFFFFE7100009FFF80000
00017CCCCCCCCCCBA3016DFFFA2000
000000000000000004AFFFFFFFF920
0000000000000004ABBBBBBBBBBAA4
ENDCHAR
STARTCHAR o
ENCODING 111
SWIDTH 705 0
DWIDTH 25 0
BBX 25 19 0 -1
BITMAP
00000000000222200000000000
00000037BDFFFFFFC940000000
00004CFFFFFFFFFFFFFE700000
001AFFFFFFFDBACFFFFFFC2000
00BFFFFFE72000029FFFFFE200
09FFFFFC2000000006FFFFFD00
2FFFFFE200000000009FFFFF60
6FFFFF7000000000002FFFFFC0
9FFFFF3000000000000DFFFFE0
9FFFFF2000000000000CFFFFF0
9FFFFF4000000000000DFFFFE0
6FFFFF7000000000001FFFFFC0
1EFFFFD000000000008FFFFF60
07FFFFF90000000004FFFFFC00
00AFFFFFB20000018FFFFFD200
0009FFFFFFC99ACFFFFFFB2000
00004CFFFFFFFFFFFFFD600000
00000038CFFFFFFFC840000000
00000000002343200000000000
ENDCHAR
STARTCHAR p
ENCODING 112
SWIDTH 723 0
DWIDTH 26 0
BBX 30 29 -4 -9
BITMAP
0000024579ACEF1000000000000000
6ACEFFFFFFFFFF1000000000000000
027CFFFFFFFFFF1023454200000000
000028DFFFFFFFBEFFFFFFEA500000
00000003FFFFFFFFFFFFFFFFFC4000
00000000EFFFFFFEB99BEFFFFFF600
00000000DFFFFF50000005DFFFFF40
00000000CFFFFF100000001DFFFFD0
00000000BFFFFF1000000003FFFFF5
00000000AFFFFF1000000000CFFFF8
000000009FFFFF1000000000AFFFFA
000000008FFFFF1000000000BFFFFA
000000007FFFFF1000000000EFFFF8
000000006FFFFF1000000006FFFFF3
000000005FFFFF100000004EFFFFC0
000000005FFFFFC7310039FFFFFF20
000000004FFFFFFFFFFFFFFFFFE400
000000003FFFFFFFFFFFFFFFFC2000
000000002FFFFF6ADFFFFFDA400000
000000001FFFFF2000122100000000
000000000FFFFF2000000000000000
000000000EFFFF3000000000000000
000000000DFFFF3000000000000000
000000000CFFFF3000000000000000
000000000CFFFF3000000000000000
000000005DFFFFD610000000000000
0000017DFFFFFFFFE9300000000000
00028EFFFFFFFFFFFFFC6100000000
017BBA998876655433211000000000
ENDCHAR
STARTCHAR q
ENCODING 113
SWIDTH 682 0
DWIDTH 25 0
BBX 29 29 0 -8
BITMAP
000000000000000034444455555550
0000000000000001FFFFFFFFFFE710
0000000000000001FFFFFFFFD71000
0000016ADEFFEDA8FFFFFFD6000000
00019FFFFFFFFFFFFFFFFF00000000
003DFFFFFFFDDFFFFFFFFE00000000
02EFFFFFA4000038FFFFFD00000000
0BFFFFE400000001FFFFFC00000000
3FFFFF6000000001FFFFFB00000000
7FFFFE0000000001FFFFFA00000000
9FFFFC0000000001FFFFF900000000
9FFFFC0000000001FFFFF800000000
7FFFFE0000000001FFFFF800000000
4FFFFF5000000002FFFFF700000000
0DFFFFE200000002FFFFF600000000
04FFFFFE61000039FFFFF500000000
006FFFFFFFDCDEFFFFFFF400000000
0005EFFFFFFFFFFFFFFFF300000000
000017DFFFFFFFDAFFFFF200000000
0000000256654202FFFFF100000000
0000000000000003FFFFF000000000
0000000000000003FFFFE000000000
0000000000000003FFFFD000000000
0000000000000004FFFFC000000000
0000000000000004FFFFB000000000
000000000000004BFFFFD200000000
0000000000016CFFFFFFFFB4000000
00000000039EFFFFFFFFFFFFD61000
0000000014455677889AABBCDDD820
ENDCHAR
STARTCHAR r
ENCODING 114
SWIDTH 595 0
DWIDTH 21 0
BBX 26 23 -3 -1
BITMAP
00000000000025500000000000
0000000147AEFF90016ABB9400
000269CFFFFFFF918EFFFFFF90
18EFFFFFFFFFFFCDFFFFFFFFF4
00159DFFFFFFFFFFFFFFFFFFF7
00000026DFFFFFFFC8BFFFFFF6
000000009FFFFFF7000AFFFFE2
000000007FFFFFC000009FFD50
000000006FFFFF600000011000
000000004FFFFF500000000000
000000003FFFFF500000000000
000000001FFFFF400000000000
000000000EFFFF400000000000
000000000DFFFF300000000000
000000000BFFFF300000000000
000000000AFFFF200000000000
0000000008FFFF100000000000
0000000007FFFF930000000000
000000006EFFFFFFD720000000
0000003CFFFFFFFFFFFB610000
000018FFFFFFFFFFFECA971000
0005DFFECB9865320000000000
00253200000000000000000000
ENDCHAR
STARTCHAR s
ENCODING 115
SWIDTH 533 0
DWIDTH 19 0
BBX 20 23 0 -1
BITMAP
00000000100000000510
000039DFFFD950000D00
0019FFFFFFFFFC406F00
00CFFFFFEFFFFFF7DE00
08FFFF710039FFFFFE00
1EFFFA0000002BFFFD00
3FFFFB00000000AFFC00
4FFFFFA10000000AFC00
1FFFFFFF94000000CB00
0AFFFFFFFFE940002A00
01DFFFFFFFFFFC600200
001CFFFFFFFFFFFD5000
01006EFFFFFFFFFFF800
0550017DFFFFFFFFFF60
06D1000038DFFFFFFFD0
08FB00000004CFFFFFF2
09FFB100000008FFFFF2
0BFFFD40000003FFFFF0
0CFFFFFC63114CFFFF90
0EFFFFFFFFFFFFFFFC10
0FE37EFFFFFFFFFF9100
2F400048ACDDC9610000
36000000000000000000
ENDCHAR
STARTCHAR t
ENCODING 116
SWIDTH 422 0
DWIDTH 15 0
BBX 18 35 -1 -2
BITMAP
000000003431000000
00000000BFF3000000
00000000EFF1000000
00000003FFF0000000
00000008FFD0000000
0000001EFFC0000000
0000007FFFA0000000
000005FFFF90000000
00029FFFFF70000000
28BFFFFFFF95310000
4FFFFFFFFFFFFFFDC1
5FFFFFFFFFFFFFFFF0
2689DFFFFFFFFFFFE0
0000AFFFFE12456770
0000BFFFFD00000000
0000CFFFFC00000000
0000DFFFFA00000000
0000EFFFF900000000
0000FFFFF800000000
0001FFFFF600000000
0002FFFFF500000000
0003FFFFF300000000
0005FFFFF200000000
0006FFFFF100000000
0007FFFFE000000300
0008FFFFD000000900
0009FFFFB000001E20
0009FFFFB000007F20
0008FFFFE10003EF10
0005FFFFFA338FFC00
0001FFFFFFFFFFF700
00008FFFFFFFFFC000
00000BFFFFFFFC2000
0000006CFFFC700000
000000000100000000
ENDCHAR
STARTCHAR u
ENCODING 117
SWIDTH 614 0
DWIDTH 22 0
BBX 28 20 -3 -2
BITMAP
6AAAAAAABBB10111111222222000
05DFFFFFFFF006DFFFFFFFFF9000
0007EFFFFFE00005CFFFFFFF7000
00001CFFFFC0000005CFFFFF5000
00000BFFFFB00000002FFFFF2000
00000BFFFF900000002FFFFF0000
00000BFFFF700000003FFFFC0000
00000BFFFF600000004FFFFA0000
00000CFFFF500000005FFFF80000
00000CFFFF400000005FFFF50000
00000BFFFF400000006FFFF30000
00000AFFFF400000007FFFF10000
000008FFFF600000008FFFD00000
000005FFFFC0000002DFFFB00000
000000EFFFFA20016EFFFF800000
0000007FFFFFFEDFFFFFFF700000
00000009FFFFFFFFFFDFFFFB6100
000000005CFFFFFFD59FFFFFFFA4
0000000000145652009FFFEB8530
0000000000000000006742000000
ENDCHAR
STARTCHAR v
ENCODING 118
SWIDTH 639 0
DWIDTH 23 0
BBX 32 23 -5 -3
BITMAP
00000000000002479500000000000000
0000000357ACEFFD4000000000000000
1368BDFFFFFFFFA10000000000000000
148CFFFFFFFFE5006DCBA98754321000
000016AFFFFFE10002AFFFFFFFFFFFD6
0000000BFFFFF8000004DFFFFFFFC610
00000003FFFFFE10000008FFFE930000
000000009FFFFF70000008FFE1000000
000000001EFFFFE100001EFF70000000
0000000007FFFFF700009FFE10000000
0000000000DFFFFE1002FFF700000000
00000000005FFFFF7009FFE100000000
00000000000BFFFFE02FFF7000000000
000000000003FFFFF6AFFE1000000000
0000000000009FFFFEFFF70000000000
0000000000001EFFFFFFE10000000000
00000000000007FFFFFF700000000000
00000000000000DFFFFE100000000000
000000000000005FFFF7000000000000
000000000000000BFFE1000000000000
0000000000000003FF70000000000000
00000000000000009E10000000000000
00000000000000001600000000000000
ENDCHAR
STARTCHAR w
ENCODING 119
SWIDTH 805 0
DWIDTH 29 0
BBX 40 21 -5 -1
BITMAP
13445677899ABBCDC72010004876654433211000
05BFFFFFFFFFFFC60000840004CFFFFFFFFFFB61
00029EFFFFFFF3000001EB000005DFFFFFC72000
0000016FFFFFF4000006FF2000002FFFB3000000
00000009FFFFFB00000CFF9000008FFF20000000
00000002FFFFFF30004FFFF10001EFFA00000000
00000000AFFFFFA000AFFFF80007FFF300000000
000000003FFFFFF102FFFFFE100EFFB000000000
000000000AFFFFF808FFFFFF606FFF4000000000
0000000003FFFFFE1EFFFFFFD0DFFC0000000000
0000000000BFFFFFCFFEFFFFF9FFF50000000000
00000000004FFFFFFFF4DFFFFFFFD00000000000
00000000000BFFFFFFC05FFFFFFF700000000000
000000000004FFFFFF600DFFFFFE100000000000
000000000000CFFFFD0006FFFFF8000000000000
0000000000005FFFF70000DFFFF1000000000000
0000000000000CFFE100006FFF90000000000000
00000000000005FF8000000DFF20000000000000
00000000000000DF20000006FA00000000000000
000000000000006A00000000D400000000000000
0000000000000002000000004000000000000000
ENDCHAR
STARTCHAR x
ENCODING 120
SWIDTH 717 0
DWIDTH 26 0
BBX 34 23 -4 -2
BITMAP
0000000000000000002310000000000000
000000000013579BDE8200000000000000
0013579BCEFFFFFD610000000000000000
27BEFFFFFFFFFE50233444555667778830
0000258CFFFFFF6018EFFFFFFFFFFE8100
00000000BFFFFFF40006CFFFFFFC500000
000000001CFFFFFE30006FFFFA30000000
0000000002DFFFFFD108FFFE6000000000
00000000003EFFFFFCAFFFD30000000000
000000000004FFFFFFFFFA100000000000
0000000000006FFFFFFF60000000000000
00000000000008FFFFFE20000000000000
00000000000003FFFFFFD1000000000000
0000000000004EFFFFFFFA000000000000
000000000006FFFFEFFFFF700000000000
00000000008FFFF81DFFFFF40000000000
000000003AFFFF6002EFFFFE2000000000
0000038DFFFFFE50003EFFFFC000000000
0038DFFFFFFFFFFC3004FFFFFB41000000
0011234566789ABCC810AFFFFFFFC84000
0000000000000000004CFFFFFFFFFFFC72
00000000000000002AFFFEDB9865310000
0000000000000002764310000000000000
ENDCHAR
STARTCHAR y
ENCODING 121
SWIDTH 655 0
DWIDTH 24 0
BBX 25 37 -2 -17
BITMAP
52000000000000000000000000
2EC71000000000000000000000
03EFFB6100017BA87532000000
004FFFFFB61004DFFFFFFECA50
0005FFFFFFF90018FFFFFFFF70
00007FFFFFF800003DFFFFFF60
00005FFFFFF3000000CFFFFF60
00009FFFFFE0000000BFFFFF50
0000EFFFFF90000000BFFFFF40
0003FFFFFF40000000BFFFFF40
0007FFFFFF10000000BFFFFF30
000AFFFFFB00000000CFFFFF20
000BFFFFFA00000000CFFFFF20
0009FFFFFD00000000CFFFFF10
0006FFFFFF80000000CFFFFF10
0001EFFFFFFC63346AFFFFFF00
00006FFFFFFFFFFFFFFFFFFE00
000006FFFFFFFFFFFFFFFFFE00
00000029EFFFFFFEA7EFFFFD00
000000000245542000FFFFFC00
000000000000000000FFFFFC00
000000000000000000FFFFFB00
000000000000000001FFFFFB00
000000000000000001FFFFFA00
000000000000000003FFFFF900
000000000000000004FFFFF800
00003BD91000000006FFFFF600
0002EFFFA000000009FFFFF300
0007FFFFF10000000CFFFFE000
0008FFFFE00000002FFFFFA000
0006FFFF500000009FFFFF3000
0001FFFE20000005FFFFFA0000
00008FFFE720018FFFFFD10000
00000AFFFFFEEFFFFFFD200000
0000007EFFFFFFFFFF91000000
000000017CFFFFFC8200000000
00000000000221000000000000
ENDCHAR
STARTCHAR z
ENCODING 122
SWIDTH 549 0
DWIDTH 20 0
BBX 22 20 0 -1
BITMAP
2556677788999AAABBCCB1
5FFFFFFFFFFFFFFFFFFF40
2FFFFFFFFFFFFFFFFFF800
0EFFFA998877EFFFFFB000
0BFFC0000009FFFFFE2000
08FF8000006FFFFFF40000
05FF300003FFFFFF800000
02FD00001DFFFFFC000000
00E90000BFFFFFE2001000
00C40009FFFFFF50007000
0080006FFFFFF90003B000
001003FFFFFFC0000AC000
00001DFFFFFE20002FD000
0000BFFFFFF600008FE000
0009FFFFFFA00001EFE000
005FFFFFFF521007FFF000
03EFFFFFFFFFFEDEFFF100
1DFFFFFFFFFFFFFFFFF200
3789ABCDEFFFFFFFFFF300
0000000000123456789200
ENDCHAR
STARTCHAR braceleft
ENCODING 123
SWIDTH 708 0
DWIDTH 25 0
BBX 21 35 2 -5
BITMAP
0000001988877665544320
0000001FFFFFFFFFFFE810
0000001FFFFFFFFFE71000
0000001FFFFFFFD6000000
0000000FFFFFE500000000
0000000FFFFFB000000000
0000000FFFFFB000000000
0000000EFFFFA000000000
0000000EFFFFA000000000
0000000DFFFFA000000000
0000000DFFFFA000000000
0000000DFFFF9000000000
0000000CFFFF9000000000
0000000CFFFF9000000000
0000000CFFFF9000000000
0000003DFFFF8000000000
00038DFFFFFF8000000000
18DFFFFFFFFF8000000000
015AEFFFFFFF8000000000
0000038DFFFF7000000000
00000008FFFF7000000000
00000008FFFF7000000000
00000008FFFF7000000000
00000007FFFF6000000000
00000007FFFF6000000000
00000006FFFF6000000000
00000006FFFF6000000000
00000005FFFF5000000000
00000005FFFF5000000000
00000004FFFF5000000000
00000004FFFF9100000000
00000004FFFFFE60000000
00000003FFFFFFFD600000
00000003FFFFFFFFFD6000
0000000144444445555300
ENDCHAR
STARTCHAR bar
ENCODING 124
SWIDTH 304 0
DWIDTH 11 0
BBX 7 34 2 -3
BITMAP
00012210
7FFFFF70
7FFFFF70
7FFFFF60
6FFFFF60
6FFFFF60
6FFFFF60
6FFFFF60
6FFFFF50
6FFFFF50
5FFFFF50
5FFFFF50
5FFFFF40
5FFFFF40
5FFFFF40
4FFFFF40
4FFFFF40
4FFFFF30
4FFFFF30
4FFFFF30
4FFFFF30
3FFFFF20
3FFFFF20
3FFFFF20
3FFFFF20
3FFFFF20
2FFFFF10
2FFFFF10
2FFFFF10
2FFFFF10
2FFFFF00
2FFFFF00
1FFFFF00
1AAAAA00
ENDCHAR
STARTCHAR braceright
ENCODING 125
SWIDTH 517 0
DWIDTH 19 0
BBX 20 35 0 -5
BITMAP
34455566778896000000
3AFFFFFFFFFFFA000000
003AFFFFFFFFFA000000
000029FFFFFFFA000000
00000019FFFFF9000000
00000002FFFFF9000000
00000001FFFFF8000000
00000001FFFFF8000000
00000001FFFFF8000000
00000001FFFFF7000000
00000000FFFFF7000000
00000000FFFFF6000000
00000000FFFFF6000000
00000000FFFFF6000000
00000000EFFFF5000000
00000000EFFFF8100000
00000000EFFFFFFB6100
00000000EFFFFFFFFFB5
00000000DFFFFFFFC830
00000000DFFFFB620000
00000000DFFFF2000000
00000000DFFFF2000000
00000000CFFFF2000000
00000000CFFFF1000000
00000000CFFFF1000000
00000000BFFFF0000000
00000000BFFFF0000000
00000000BFFFF0000000
00000000BFFFE0000000
00000000AFFFE0000000
00000002CFFFD0000000
0000029FFFFFD0000000
00029FFFFFFFD0000000
018FFFFFFFFFC0000000
04555444444430000000
ENDCHAR
STARTCHAR asciitilde
ENCODING 126
SWIDTH 466 0
DWIDTH 17 0
BBX 17 8 0 7
BITMAP
0047986200000005A0
9EFFFFFFD83004BFC0
FFFFFFFFFFFEFFFFC0
FFFFFFFFFFFFFFFFC0
FFFFFFFFFFFFFFFFC0
FFE7459EFFFFFFFFC0
F810000048CEEDA500
300000000000000000
ENDCHAR
STARTCHAR uni00A0
ENCODING 160
SWIDTH 320 0
DWIDTH 12 0
BBX 1 1 0 0
BITMAP
00
ENDCHAR
STARTCHAR exclamdown
ENCODING 161
SWIDTH 305 0
DWIDTH 11 0
BBX 11 32 0 -12
BITMAP
000003896100
00005FFFFE40
0000CFFFFFD0
0000CFFFFFE0
00005FFFFF80
000005CEC600
000000000000
00005A864000
00009FFFC000
0000CFFFC000
0000EFFFB000
0002FFFFB000
0005FFFFA000
0008FFFF9000
000AFFFF9000
000DFFFF8000
001FFFFF7000
004FFFFF7000
006FFFFF6000
009FFFFF5000
00CFFFFF5000
00EFFFFF4000
02FFFFFF4000
05FFFFFF3000
08FFFFFF2000
0BFFFFFF2000
0DFFFFFF1000
1FFFFFFF0000
4FFFFFFF0000
7FFFFFFE0000
6BCDEFFE0000
000000110000
ENDCHAR
STARTCHAR cent
ENCODING 162
SWIDTH 417 0
DWIDTH 15 0
BBX 17 30 -1 -4
BITMAP
0000003BBBB6000000
0000004FFFF8000000
0000003FFFF7000000
0000002FFFF6000000
0000001FFFF5000000
0000000FFFF7000000
000017DFFFFFD40000
0002DFFFFFFFFF7000
002EFFF8102AFFF400
00CFFF700005FFFC00
06FFFD000008FFFF00
0CFFF8000004FFFD00
1FFFF50000006BA200
4FFFF3000000000000
5FFFF2000000000000
5FFFF3000000000000
3FFFF5000000000030
0FFFFA000000000750
0AFFFF300000006F10
03FFFFD2000018FA00
008FFFFFA768EFE200
000AFFFFFFFFFF5000
00007EFFFFFFD40000
0000015EFFF7000000
0000000FFFF5000000
0000001FFFF6000000
0000002FFFF7000000
0000003FFFF8000000
0000004FFFF8000000
0000003BBBB7000000
ENDCHAR
STARTCHAR sterling
ENCODING 163
SWIDTH 658 0
DWIDTH 24 0
BBX 24 28 0 -2
BITMAP
000000000000000000000014
0000000000000000000000A4
000000000269BA85100006F2
00000003BFFFFFFFE8103FF0
0000007FFFFFFFFFFFD4DFD0
000007FFFFFFDCFFFFFFFFB0
00003FFFFFD40016EFFFFF90
0000AFFFFF3000001BFFFF80
0000EFFFFA00000000CFFF60
0001FFFFF7000000001EFF40
7877FFFFF83211000006FF20
DFFFFFFFFFFFFFFFE101EF00
EFFFFFFFFFFFFFFFF0007D00
EFFFFFFFFFFFFFFFE0002B00
BBBAABFFFFB7776650000700
000000DFFF90000000000105
233344AFFFD667778100000B
CFFFFFFFFFFFFFFFF100004D
DFFFFFFFFFFFFFFFF10000BD
EFFFFFFFFFFFFFFFF00003FC
233455EFFFB9AABCC0000AFB
000004FFFF30000000002FFA
00000BFFFC0000000011AFF9
00004FFFFEDDDEEFFFFFFFF8
0001DFFFFFFFFFFFFFFFFFF8
0009FFFFFFFFFFFFFFFFFFF7
003BCDDEEFFFFFFFFFFFFFF6
000000000011233445667883
ENDCHAR
STARTCHAR currency
ENCODING 164
SWIDTH 358 0
DWIDTH 13 0
BBX 13 14 0 6
BITMAP
00210000001000
02DC100009C100
3EFFBACBAFFB10
BFFFFFFFFFFF90
1BFFFFFFFFFD20
01EFFB59FFF300
01FFF100BFF500
01FFF100BFF500
00DFFC6AFFF100
04FFFFFFFFE300
4EFFFFFFFFFE30
8FFF78A98FFF70
0AF5000006F600
01300000002000
ENDCHAR
STARTCHAR yen
ENCODING 165
SWIDTH 796 0
DWIDTH 29 0
BBX 35 24 -5 0
BITMAP
000000000124578A40000000000000000000
135689BCEFFFFFA200000000000000000000
048CFFFFFFFFE40000018998877665544320
000026AEFFFFF600000007EFFFFFFFFFB500
00000000AFFFFF4000000018FFFFFD720000
000000000AFFFFE300000001BFFA40000000
0000000000BFFFFE2000001BFF7000000000
00000000001BFFFFD20001CFF70000000000
000000000001CFFFFD102DFF700000000000
0000000000001CFFFFC3DFF7000000000000
00000000000001DFFFFFFF80000000000000
000000000000002DFFFFF800000000000000
0000000000043323EFFF9000000000000000
00000000001FFFFFFFFFEDDCC70000000000
00000000002FFFFFFFFFFFFFF60000000000
0000000000288877CFFFD655510000000000
0000000000045566CFFFE889950000000000
00000000001FFFFFFFFFFFFFF80000000000
00000000002ABBCDFFFFFFFFF70000000000
0000000000000000CFFFF312210000000000
0000000000000000DFFFF300000000000000
00000000000004AEFFFFFFC7300000000000
000000000049EFFFFFFFFFFFFD9410000000
000000002788888888777777777762000000
ENDCHAR
STARTCHAR brokenbar
ENCODING 166
SWIDTH 304 0
DWIDTH 11 0
BBX 7 34 2 -3
BITMAP
00012210
7FFFFF70
7FFFFF70
7FFFFF60
6FFFFF60
6FFFFF60
6FFFFF60
6FFFFF60
6FFFFF50
6FFFFF50
5FFFFF50
5FFFFF50
5FFFFF50
4BA99820
00000000
00000000
00000000
00000000
00000000
00000000
4FEDCB20
3FFFFF20
3FFFFF20
3FFFFF20
3FFFFF10
3FFFFF10
3FFFFF10
2FFFFF10
2FFFFF10
2FFFFF10
2FFFFF00
2FFFFF00
1FFFFF00
1AAAAA00
ENDCHAR
STARTCHAR section
ENCODING 167
SWIDTH 646 0
DWIDTH 23 0
BBX 21 43 1 -10
BITMAP
0000000000000000000100
0000002678630000000600
00005CFFFFFFE710004700
001AFFFFFFFFFFD400A700
00BFFFFEBACFFFFF61E600
07FFFF6000017EFFFBF600
1EFFF800000001BFFFF500
5FFFF40000000009FFF400
7FFFF70000000000AFF400
8FFFFE30000000001CF300
7FFFFFE60000000003F300
3FFFFFFFD6100000008200
0AFFFFFFFFE93000001100
01DFFFFFFFFFFC60000000
003EFFFFFFFFFFFD500000
0003FFFFFFFFFFFFFA1000
002DFFFFFFFFFFFFFFC100
01DFFFFBEFFFFFFFFFFB00
0AFFFE2005BFFFFFFFFF50
2FFFF60000028FFFFFFFA0
6FFFF500000002CFFFFFD0
8FFFF9000000001DFFFFD0
7FFFFF5000000009FFFFB0
5FFFFFFA3000000AFFFF80
1EFFFFFFFB50018FFFFF20
08FFFFFFFFFECEFFFFF600
00CFFFFFFFFFFFFFFE5000
001CFFFFFFFFFFFFE20000
00009FFFFFFFFFFFFD3000
000003BFFFFFFFFFFFE200
01000003AFFFFFFFFFFD00
08200000016CFFFFFFFF50
09C0000000004CFFFFFFB0
0AF800000000009FFFFFD0
0BFF60000000000CFFFFC0
0DFFF60000000008FFFFA0
0EFFFFA20000000CFFFF60
0FFFFFFF952015CFFFFD10
1FF9FFFFFFFFFFFFFFE300
3FA03BFFFFFFFFFFFB2000
4F200027ADFFFEB8300000
5800000000000000000000
4100000000000000000000
ENDCHAR
STARTCHAR dieresis
ENCODING 168
SWIDTH 708 0
DWIDTH 26 0
BBX 12 5 7 29
BITMAP
1BFC2006EE50
8FFFA02FFFF1
9FFFB03FFFF1
3EFF400BFF90
025200004400
ENDCHAR
STARTCHAR copyright
ENCODING 169
SWIDTH 700 0
DWIDTH 25 0
BBX 26 24 0 1
BITMAP
00000000002344310000000000
00000016BEFFFFFFD820000000
000019FFFFFFFFFFFFFA200000
0004EFFFFFEBA9BEFFFFE50000
004FFFFFA40000004BFFFF5000
02EFFFD300046730007FFFF300
0BFFFC1005EFFFFC3007FFFC00
3FFFE1008FFB55CFE200CFFF40
8FFF6004FFB0007FF9004FFFA0
CFFE100CFF50007FFA000EFFE0
EFFC001FFF100018A2000BFFF1
FFFA004FFE000000000009FFF2
EFFB004FFE00000000000AFFF3
DFFC003FFF20000004000BFFF1
BFFF100EFF9000002B000EFFE0
6FFF6007FFF60005D7003FFF90
1FFFD000CFFFDBDFC100BFFF30
08FFF8001AFFFFFB1006FFFA00
01DFFF7000268730006FFFE100
002EFFFB200000004BFFFE3000
0003DFFFFC9778ADFFFFD30000
000019FFFFFFFFFFFFE8000000
00000028CFFFFFFFC710000000
00000000013554300000000000
ENDCHAR
STARTCHAR ordfeminine
ENCODING 170
SWIDTH 399 0
DWIDTH 14 0
BBX 17 16 -1 13
BITMAP
000014676400000000
0018EFFFFFE6000000
01CFFFFFFFFF700000
07FFFA006FFFE10000
0AFFFD000CFFF50000
07FFF90009FFF70000
0069733219FFF80000
006CFFFFFFFFF70000
0AFFFFFFFFFFF50000
3FFFF9102FFFF40000
5FFFF3002FFFF20000
3FFFFD88BFFFF10000
08FFFFFFFFFFF10000
0038CDEEEFFFFE8100
00000000AFFFEDCA30
000000002210000000
ENDCHAR
STARTCHAR guillemotleft
ENCODING 171
SWIDTH 424 0
DWIDTH 15 0
BBX 15 19 0 -1
BITMAP
0000007200000810
000003F800005F60
00001DFE0002EFC0
0000AFFB000CFF90
0006FFF4008FFF20
003EFFC004FFFB00
01CFFF601EFFF400
09FFFE00BFFFC000
5FFFF807FFFF6000
AFFFF30BFFFF1000
6FFFF708FFFF5000
0AFFFD00CFFFC000
01DFFF502EFFF300
003FFFC005FFFA00
0007FFF3009FFF20
0000BFFA001CFF80
00001EFE0002EFC0
000004F800006F70
0000008200000910
ENDCHAR
STARTCHAR logicalnot
ENCODING 172
SWIDTH 541 0
DWIDTH 20 0
BBX 22 19 0 2
BITMAP
2000000000000000000000
3500000000000000003100
3B0000000000000000B000
4F1000000000000005E000
4F700000000000000DD000
4FD87765443211006FC000
4FFFFFFFFFFFFFFEFFB000
4FFFFFFFFFFFFFFFFFA000
4FFFFFFFFFFFFFFFFF9000
4FFFFFFFFFFFFFFFFF8000
4FEBBBAAA99988CFFF7000
4F7000000000006FFF6000
4F1000000000002FFF5000
490000000000000EFF4000
430000000000000AFF4000
1000000000000007FF3000
000000000000006EFFA100
0000000000002BFFFFFD20
0000000000001345689AA2
ENDCHAR
STARTCHAR sfthyphen
ENCODING 173
SWIDTH 530 0
DWIDTH 19 0
BBX 20 7 0 9
BITMAP
89987655432210000000
DFFFFFFFFFFFFFEEDCB1
DFFFFFFFFFFFFFFFFFF0
EFFFFFFFFFFFFFFFFFE0
EFFFFFFFFFFFFFFFFFE0
FFFFFFFFFFFFFFFFFFD0
AA998877665544332210
ENDCHAR
STARTCHAR registered
ENCODING 174
SWIDTH 700 0
DWIDTH 25 0
BBX 26 23 0 1
BITMAP
0000000269CDEEDB8400000000
000005BFFFFFFFFFFFD6000000
0001BFFFFFFFEEFFFFFFB20000
002DFFFFE84100038EFFFE2000
01DFFFF70000000001BFFFD100
08FFFE3000002200000BFFF900
2FFFF40047BEF44BED71DFFF30
7FFF804CFFFFFDFFFFF36FFF80
BFFF200028FFFFFFFFF41FFFD0
DFFC000001FFFB11AD900BFFF0
FFFB000000FFF30000000AFFF2
FFFA000000DFF200000009FFF3
DFFC000000BFF10000000BFFF2
CFFE000000AFF10000000DFFE0
8FFF4000008FF00000002FFFB0
3FFFA00001BFFD7200008FFF50
0BFFF4004EFFFFED8203FFFC00
02FFFE3165321000002DFFF300
005FFFE60000000016EFFF6000
0006FFFFD8433469EFFFF60000
00003DFFFFFFFFFFFFFC300000
0000006CFFFFFFFFFB50000000
000000002589A8741000000000
ENDCHAR
STARTCHAR macron
ENCODING 175
SWIDTH 705 0
DWIDTH 25 0
BBX 11 5 9 26
BITMAP
ACCCCCCCCC10
DFFFFFFFFF10
DFFFFFFFFF10
DFFFFFFFFF10
DEEEEEEEEE10
ENDCHAR
STARTCHAR degree
ENCODING 176
SWIDTH 364 0
DWIDTH 13 0
BBX 11 10 1 16
BITMAP
00039B940000
008FFFFF9000
06FFFFFFF800
0EFFC7BFFF10
2FFE100DFF40
2FFE000CFF40
0EFFA59FFF10
07FFFFFFF800
008FFFFFA000
0003ACA40000
ENDCHAR
STARTCHAR plusminus
ENCODING 177
SWIDTH 607 0
DWIDTH 22 0
BBX 22 23 0 0
BITMAP
00000000BAA99700000000
00000000FFFFFC00000000
00000000EFFFFB00000000
00000000DFFFFA00000000
01100000DFFFFA00000000
1FFFFEDDFFFFFC87665430
2FFFFFFFFFFFFFFFFFFFF1
2FFFFFFFFFFFFFFFFFFFF0
3FFFFFFFFFFFFFFFFFFFE0
4FFFFFFFFFFFFFFFFFFFD0
3BBBAAA9DFFFFA66655540
00000000AFFFF400000000
000000009FFFF300000000
000000009FFFF300000000
000000008FFFF200000000
000000006CDEF100000000
0332210000000000000000
0BFFFFFEEDCBBA98776540
0CFFFFFFFFFFFFFFFFFFD0
0CFFFFFFFFFFFFFFFFFFC0
0DFFFFFFFFFFFFFFFFFFB0
0DFFFFFFFFFFFFFFFFFFA0
0ABAA99988776655544320
ENDCHAR
STARTCHAR twosuperior
ENCODING 178
SWIDTH 440 0
DWIDTH 16 0
BBX 16 20 0 13
BITMAP
0200000000000000
0860004798510000
07F64DFFFFFE8000
05FFFFFFFFFFFB10
03FFFFFBADFFFF90
02FFFC20009FFFF1
00FFD100002FFFF4
00EF5000003FFFF3
00CD000000AFFFF1
00A8000009FFFF90
00940003CFFFFC25
007102AFFFFF81A5
00307FFFFFA205F4
003DFFFFB2001EF2
03EFFFE500009FF1
1DFFFF522336FFF0
7FFFFFFFFFFFFFD0
BFFFFFFFFFFFFFC0
EFFFFFFFFFFFFFB0
34456677899AAB70
ENDCHAR
STARTCHAR threesuperior
ENCODING 179
SWIDTH 442 0
DWIDTH 16 0
BBX 16 22 0 11
BITMAP
1000000000000000
3700000000000000
0F50004776300000
0CF37EFFFFFD5000
09FFFFFFFFFFF900
06FFFFFCBFFFFF60
03FFFC2002DFFFD0
00EFB000005FFFF0
00CE1000005FFFF0
0097010003DFFFB0
005106FEEFFFFF40
000006FFFFFFFE20
005006FFFFFFFFC0
00A401224BFFFFF4
00EA000000CFFFF7
02FF6000009FFFF7
05FFF60002EFFFF4
09FFFFC9AEFFFFC0
0CFFFFFFFFFFFD20
1FC19FFFFFFF9100
4C100269A8610000
5100000000000000
ENDCHAR
STARTCHAR acute
ENCODING 180
SWIDTH 694 0
DWIDTH 25 0
BBX 8 9 10 26
BITMAP
005D6000
00AFFE71
01FFFFE1
05FFFF80
0BFFFE10
1FFFF600
6FFFD000
29EF5000
00160000
ENDCHAR
STARTCHAR mu
ENCODING 181
SWIDTH 1000 0
DWIDTH 36 0
BBX 28 28 0 -10
BITMAP
4AAAAAAABBB40111111222222000
03CFFFFFFFF404BFFFFFFFFFD000
0005DFFFFFF30003BFFFFFFFB000
00000AFFFFF1000003AFFFFF9000
000006FFFFE00000000DFFFF6000
000006FFFFC00000000EFFFF4000
000006FFFFB00000000FFFFF1000
000006FFFFA00000000FFFFE0000
000005FFFF800000001FFFFB0000
000005FFFF800000002FFFF90000
000005FFFF700000003FFFF70000
000005FFFF800000003FFFF40000
000004FFFFA00000004FFFF20000
000004FFFFE1000001BFFFE00000
000004FFFFFC30004DFFFFC00000
000004FFFFFFFEDEFFFFFFA00000
000004FFFFFFFFFFFFDFFFFD7200
000003FFFFFFFFFFE75FFFFFFFB6
000003FFFF845663006FFFEC9631
000003FFFF700000004852000000
000003FFFF700000000000000000
000002FFFF700000000000000000
000002FFFF700000000000000000
000002FFFF700000000000000000
000002FFFF700000000000000000
000001FFFF700000000000000000
000001FFFF700000000000000000
0000003456300000000000000000
ENDCHAR
STARTCHAR paragraph
ENCODING 182
SWIDTH 782 0
DWIDTH 28 0
BBX 31 26 -1 -2
BITMAP
000000000013455667788899AABBC930
00000159CEFFFFFFFFFFFFFFFFFB4000
0004BFFFFFFFFFFFFFFFFFFFF9300000
01AFFFFFFFFEFFFFFFFFFFE810000000
0BFFFFFD8511FFFF304FFF8000000000
6FFFFE500001FFFF204FFF8000000000
9FFFF5000001FFFF104FFF8000000000
9FFFF4000001FFFF105FFF7000000000
4FFFFD300001FFFF005FFF7000000000
07FFFFFA5101FFFF006FFF7000000000
004CFFFFFFCAFFFF77BFFF7000000000
00005BFFFFFFFFFFFFFFFF7000000000
000000159DFFFFFFFFFFFF6000000000
000000000015FFFE99CFFF6000000000
000000000003FFFC008FFF6000000000
000000000003FFFC009FFF6000000000
000000000003FFFB00AFFF6000000000
000000000003FFFA00BFFF5000000000
000000000004FFFA00CFFF5000000000
000000000004FFF900DFFF5000000000
000000000004FFFA6CFFFF8000000000
000000000004FFFFFFFFFFFD60000000
00000000004AFFFFFFFFFFFFFD600000
000000039EFFFFFFFFFFFFFFFFFD5000
000038DFFFFFEEDCCBAA988776554100
00034432210000000000000000000000
ENDCHAR
STARTCHAR periodcentered
ENCODING 183
SWIDTH 226 0
DWIDTH 8 0
BBX 8 7 0 10
BITMAP
00589500
0BFFFFC1
6FFFFFF9
9FFFFFFC
6FFFFFF9
09FFFFB1
00256300
ENDCHAR
STARTCHAR cedilla
ENCODING 184
SWIDTH 780 0
DWIDTH 28 0
BBX 9 12 10 -7
BITMAP
0018830000
00AFF10000
05FFA00000
1EFFEA2000
AFFFFFE300
57ACFFFC00
00002EFF20
04100BFF30
3EC46FFF10
DFFFFFFB00
3EFFFFC200
017A960000
ENDCHAR
STARTCHAR onesuperior
ENCODING 185
SWIDTH 390 0
DWIDTH 14 0
BBX 14 20 0 12
BITMAP
00000000002000
00000047BEA000
0047BFFFFFA000
7EFFFFFFFFA000
0048BFFFFF9000
000005FFFF9000
000004FFFF8000
000004FFFF8000
000003FFFF7000
000002FFFF7000
000002FFFF7000
000001FFFF6000
000001FFFF6000
000000FFFF5000
000000EFFF5000
000000EFFF4000
000004EFFF7000
0001AFFFFFF900
005EFFFFFFFFB1
01555555555563
ENDCHAR
STARTCHAR ordmasculine
ENCODING 186
SWIDTH 449 0
DWIDTH 16 0
BBX 18 13 -1 15
BITMAP
000002578875100000
0005CFFFFFFFFB3000
01BFFFFFFFFFFFF800
0BFFFFB4103AFFFF70
4FFFF90000009FFFF1
8FFFE00000002FFFF6
AFFFB00000000FFFF7
9FFFD00000001FFFF6
5FFFF40000007FFFF2
0CFFFE300006FFFF90
02DFFFFCABEFFFFB00
0019FFFFFFFFFD6000
0000169BCCB8400000
ENDCHAR
STARTCHAR guillemotright
ENCODING 187
SWIDTH 415 0
DWIDTH 15 0
BBX 15 19 0 -1
BITMAP
0810000080000000
2FA00003F8000000
8FF60009FF400000
5FFE2006FFE10000
0DFFC001EFFB0000
06FFF8008FFF7000
01EFFF402FFFF300
008FFFE10AFFFD10
002FFFFB03FFFF90
000BFFFF10DFFFE0
001FFFFC02FFFFA0
007FFFE209FFFD10
00EFFF501FFFF400
06FFF9007FFF8000
0CFFD100EFFB0000
4FFF3005FFE20000
8FF6000AFF500000
2FA00004F9000000
0910000090000000
ENDCHAR
STARTCHAR onequarter
ENCODING 188
SWIDTH 918 0
DWIDTH 33 0
BBX 33 37 0 -5
BITMAP
0000000000200000000000000370000000
00000047BEA00000000000000BFC200000
0047BFFFFFA00000000000005FFFF70000
7EFFFFFFFFA0000000000000DFFFF90000
0048BFFFFF90000000000007FFFFE10000
000005FFFF9000000000002EFFFF500000
000004FFFF800000000000AFFFFB000000
000004FFFF800000000004FFFFE2000000
000003FFFF70000000000CFFFF70000000
000002FFFF70000000006FFFFC00000000
000002FFFF7000000001EFFFF300000000
000001FFFF6000000009FFFF9000000000
000001FFFF600000003FFFFE1000000000
000000FFFF50000000CFFFF50000000000
000000EFFF50000005FFFFB00000600000
000000EFFF4000001EFFFE200005D00000
000004EFFF7000008FFFF700003FD00000
0001AFFFFFF90002FFFFC00002EFD00000
005EFFFFFFFFB10BFFFF30001CFFC00000
015555555555634FFFF90000BFFFC00000
00000000000000DFFFE10008FFFFC00000
00000000000007FFFF50006FFFFFB00000
0000000000002EFFFB0004FFFFFFB00500
000000000000AFFFF2002EFFFFFFB02A00
000000000003FFFF7001DFFFDFFFA0AA00
00000000000CFFFD000BFFF5AFFFA3F900
00000000006FFFF400AFFF80AFFFACF900
0000000001EFFF9007FFFFFFFFFFFFF800
0000000009FFFE105FFFFFFFFFFFFFF800
000000003FFFF501AAAAA999CFFFBDF700
00000000BFFFB000000000007FFF73F700
00000005FFFF2000000000007FFF709600
0000001DFFF7000000000003BFFFA11400
0000008FFFD00000000016CFFFFFFD6000
000002FFFF4000000039EFFFFFFFFFFC40
0000019FF9000000002222111111111110
00000003A1000000000000000000000000
ENDCHAR
STARTCHAR onehalf
ENCODING 189
SWIDTH 1007 0
DWIDTH 36 0
BBX 36 37 0 -5
BITMAP
000000000020000000000000037000000000
00000047BEA00000000000000BFC20000000
0047BFFFFFA00000000000005FFFF7000000
7EFFFFFFFFA0000000000000DFFFF9000000
0048BFFFFF90000000000007FFFFE1000000
000005FFFF9000000000002EFFFF50000000
000004FFFF800000000000AFFFFB00000000
000004FFFF800000000004FFFFE200000000
000003FFFF70000000000CFFFF7000000000
000002FFFF70000000006FFFFC0000000000
000002FFFF7000000001EFFFF30000000000
000001FFFF6000000009FFFF900000000000
000001FFFF600000003FFFFE100000000000
000000FFFF50000000CFFFF5000000000000
000000EFFF50000005FFFFB0000000000000
000000EFFF4000001EFFFE20000000000000
000004EFFF7000008FFFF700000000000000
0001AFFFFFF90002FFFFC100000000000000
005EFFFFFFFFB10BFFFF31A0000255300000
015555555555634FFFF900F905CFFFFE8100
00000000000000DFFFE100DFDFFFFFFFFD20
00000000000007FFFF5000CFFFFFEFFFFFD1
0000000000002EFFFB0000AFFFA2007FFFF7
000000000000AFFFF200009FFA00000BFFFB
000000000003FFFF7000007FE100000AFFFB
00000000000CFFFD0000006F7000001EFFF9
00000000006FFFF40000004F100001BFFFF4
0000000001EFFF900000002C00004DFFFF94
0000000009FFFE1000000018002BFFFFF71B
000000003FFFF5000000000419FFFFFA20AB
00000000BFFFB00000000005EFFFFA2005FA
00000005FFFF20000000007FFFFD40001EF8
0000001DFFF70000000004FFFFD10000AFF7
0000008FFFD0000000000DFFFFDDDEEFFFF6
000002FFFF40000000003FFFFFFFFFFFFFF4
0000019FF900000000006FFFFFFFFFFFFFF3
00000003A1000000000038899ABBCCDDEFF1
ENDCHAR
STARTCHAR threequarters
ENCODING 190
SWIDTH 936 0
DWIDTH 34 0
BBX 34 38 0 -5
BITMAP
1000000000000000000000000000000000
3700000000000000000000000064000000
0F500047763000000000000002EF910000
0CF37EFFFFFD5000000000000AFFFD3000
09FFFFFFFFFFF900000000004FFFFF3000
06FFFFFCBFFFFF6000000000CFFFF90000
03FFFC2002DFFFD000000006FFFFE10000
00EFB000005FFFF00000001EFFFF500000
00CE1000005FFFF00000009FFFFB000000
0097010003DFFFC0000003FFFFF2000000
005106FEEFFFFF4000000BFFFF70000000
000006FFFFFFFE2000005FFFFD00000000
005006FFFFFFFFC00001DFFFF400000000
00A401224BFFFFF40008FFFF9000000000
00EA000000CFFFF7002FFFFE1000000000
02FF6000009FFFF700BFFFF50000060000
05FFF60002EFFFF404FFFFB00000A90000
09FFFFC9AEFFFFC00DFFFF200008F80000
0CFFFFFFFFFFFD207FFFF700005FF80000
1FC19FFFFFFF9102EFFFD00003FFF70000
4C100269A861000AFFFF40002EFFF70000
510000000000004FFFF90001CFFFF70000
00000000000000CFFFE1000BFFFFF60000
00000000000006FFFF60009FFFFFF60040
0000000000001EFFFB0006FFFFFFF50750
0000000000009FFFF2004FFFCFFFF51E50
000000000003FFFF7003EFFD2FFFF58F40
00000000000BFFFD001DFFE30FFFF7FF40
00000000005FFFF400CFFFFFFFFFFFFF30
0000000001DFFF900AFFFFFFFFFFFFFF30
0000000008FFFE104BAAAA999EFFF9FF20
000000002FFFF600000000000CFFF28F10
00000000BFFFB000000000000CFFF11D10
00000004FFFF2000000000005DFFF50400
0000000DFFF800000000028EFFFFFFB300
0000007FFFD000000005BFFFFFFFFFFFA2
0000003CFF400000001222211111111110
0000000068000000000000000000000000
ENDCHAR
STARTCHAR questiondown
ENCODING 191
SWIDTH 568 0
DWIDTH 20 0
BBX 22 33 -1 -12
BITMAP
0000000000000039BA6100
00000000000004FFFFFE30
0000000000000BFFFFFFD0
0000000000000BFFFFFFF1
00000000000005FFFFFFD0
000000000000005DFFFC20
0000000000000000232000
0000000000000440000000
0000000000000DFEB60000
0000000000005FFFFA0000
000000000000BFFFF80000
000000000003FFFFF60000
000000000129FFFFF40000
0000039CFFFFFFFFF20000
0002BFFFFFFFFFFFF00000
003EFFFFFFFFFFFFD00000
01EFFFFFFA52126BB00000
09FFFFFE40000000000000
1EFFFFF500000000000000
3FFFFFC000000000000000
5FFFFF8000000000000000
5FFFFF7000000000000004
3FFFFF9000000000000047
0EFFFFE1000000000001D4
08FFFFFB00000000000CF1
00CFFFFFB200000001BFC0
002DFFFFFF9410026DFF90
0001AFFFFFFFFEFFFFFF60
000004AFFFFFFFFFFFFF30
0000000157ABBBA96CFE00
000000000000000003FB00
0000000000000000009800
0000000000000000001400
ENDCHAR
STARTCHAR Agrave
ENCODING 192
SWIDTH 788 0
DWIDTH 28 0
BBX 42 44 -6 -8
BITMAP
0000000000000000005B1000000000000000000000
00000000000000017DFF5000000000000000000000
000000000000000BFFFFA000000000000000000000
0000000000000003FFFFF100000000000000000000
0000000000000000AFFFF600000000000000000000
00000000000000002FFFFB00000000000000000000
000000000000000009FFFF10000000000000000000
000000000000000001EFFE30000000000000000000
0000000000000000008C6100000000000000000000
000000000000000000000000000000000000000000
000000000000000000000000000000000000000000
000000001110000000000000000000000000000000
0000000007EFEEDCCBBA9800000000000000000000
000000000017EFFFFFFFFF60000000000000000000
00000000000017EFFFFFFFD0000000000000000000
0000000000000018EFFFFFF6000000000000000000
000000000000000019FFFFFD000000000000000000
000000000000000009FFFFFF600000000000000000
00000000000000002FFFFFFFD00000000000000000
00000000000000009FFFFFFFF50000000000000000
0000000000000002FFFDFFFFFD0000000000000000
000000000000000AFFB3FFFFFF5000000000000000
000000000000003FFF30BFFFFFC000000000000000
00000000000000BFFA003FFFFFF500000000000000
00000000000004FFF2000BFFFFFC00000000000000
0000000000000BFF900004FFFFFF50000000000000
0000000000004FFE100000CFFFFFC0000000000000
000000000000CFFFDCBBA9CFFFFFF4000000000000
000000000005FFFFFFFFFFFFFFFFFC000000000000
00000000000DFFFFFFFFFFFFFFFFFF400000000000
00000000006FFFDCBBAA9988FFFFFFB00000000000
0000000000DFF70000000000AFFFFFF40000000000
0000000006FFD100000000003FFFFFFB0000000000
000000001EFF6000000000000BFFFFFF3000000000
00000039EFFF20000000000005FFFFFFB000000000
00005BFFFFFFE7000000000000DFFFFFF300000000
017DFFFFFFFFFFC200000000007FFFFFFB00000000
28ABCDEFFFFFFFFF70000000001EFFFFFFA5100000
0000000001234567860000000009FFFFFFFFFB7200
000000000000000000000000000BFFFFFFFFFFFE91
00000000000000000000000000BFFFFFFFFEB73000
0000000000000000000000000AFFFFFEB730000000
0000000000000000000000009FFEB7300000000000
000000000000000000000008B73000000000000000
ENDCHAR
STARTCHAR Aacute
ENCODING 193
SWIDTH 788 0
DWIDTH 28 0
BBX 42 44 -6 -8
BITMAP
00000000000000000004D610000000000000000000
00000000000000000009FFE8100000000000000000
0000000000000000000EFFFF200000000000000000
0000000000000000004FFFF9000000000000000000
0000000000000000009FFFE1000000000000000000
000000000000000000EFFF80000000000000000000
000000000000000004FFFE10000000000000000000
0000000000000000028EF600000000000000000000
000000000000000000016000000000000000000000
000000000000000000000000000000000000000000
000000000000000000000000000000000000000000
000000001110000000000000000000000000000000
0000000007EFEEDCCBBA9800000000000000000000
000000000017EFFFFFFFFF60000000000000000000
00000000000017EFFFFFFFD0000000000000000000
0000000000000018EFFFFFF6000000000000000000
000000000000000019FFFFFD000000000000000000
000000000000000009FFFFFF600000000000000000
00000000000000002FFFFFFFD00000000000000000
00000000000000009FFFFFFFF50000000000000000
0000000000000002FFFDFFFFFD0000000000000000
000000000000000AFFB3FFFFFF5000000000000000
000000000000003FFF30BFFFFFC000000000000000
00000000000000BFFA003FFFFFF500000000000000
00000000000004FFF2000BFFFFFC00000000000000
0000000000000BFF900004FFFFFF50000000000000
0000000000004FFE100000CFFFFFC0000000000000
000000000000CFFFDCBBA9CFFFFFF4000000000000
000000000005FFFFFFFFFFFFFFFFFC000000000000
00000000000DFFFFFFFFFFFFFFFFFF400000000000
00000000006FFFDCBBAA9988FFFFFFB00000000000
0000000000DFF70000000000AFFFFFF40000000000
0000000006FFD100000000003FFFFFFB0000000000
000000001EFF6000000000000BFFFFFF3000000000
00000039EFFF20000000000005FFFFFFB000000000
00005BFFFFFFE7000000000000DFFFFFF300000000
017DFFFFFFFFFFC200000000007FFFFFFB00000000
28ABCDEFFFFFFFFF70000000001EFFFFFFA5100000
0000000001234567860000000009FFFFFFFFFB7200
000000000000000000000000000BFFFFFFFFFFFE91
00000000000000000000000000BFFFFFFFFEB73000
0000000000000000000000000AFFFFFEB730000000
0000000000000000000000009FFEB7300000000000
000000000000000000000008B73000000000000000
ENDCHAR
STARTCHAR Acircumflex
ENCODING 194
SWIDTH 788 0
DWIDTH 28 0
BBX 42 43 -6 -8
BITMAP
000000000000000000013000000000000000000000
0000000000000000000CF600000000000000000000
0000000000000000009FFF30000000000000000000
000000000000000006FFFFD1000000000000000000
00000000000000003FFFFFFB000000000000000000
0000000000000001DFFFFFFF900000000000000000
000000000000000BFFFD9FFFF50000000000000000
000000000000008FFF8103CFFE3000000000000000
000000000000008FC3000007EE3000000000000000
000000000000000300000000210000000000000000
000000001110000000000000000000000000000000
0000000007EFEEDCCBBA9800000000000000000000
000000000017EFFFFFFFFF60000000000000000000
00000000000017EFFFFFFFD0000000000000000000
0000000000000018EFFFFFF6000000000000000000
000000000000000019FFFFFD000000000000000000
000000000000000009FFFFFF600000000000000000
00000000000000002FFFFFFFD00000000000000000
00000000000000009FFFFFFFF50000000000000000
0000000000000002FFFDFFFFFD0000000000000000
000000000000000AFFB3FFFFFF5000000000000000
000000000000003FFF30BFFFFFC000000000000000
00000000000000BFFA003FFFFFF500000000000000
00000000000004FFF2000BFFFFFC00000000000000
0000000000000BFF900004FFFFFF50000000000000
0000000000004FFE100000CFFFFFC0000000000000
000000000000CFFFDCBBA9CFFFFFF4000000000000
000000000005FFFFFFFFFFFFFFFFFC000000000000
00000000000DFFFFFFFFFFFFFFFFFF400000000000
00000000006FFFDCBBAA9988FFFFFFB00000000000
0000000000DFF70000000000AFFFFFF40000000000
0000000006FFD100000000003FFFFFFB0000000000
000000001EFF6000000000000BFFFFFF3000000000
00000039EFFF20000000000005FFFFFFB000000000
00005BFFFFFFE7000000000000DFFFFFF300000000
017DFFFFFFFFFFC200000000007FFFFFFB00000000
28ABCDEFFFFFFFFF70000000001EFFFFFFA5100000
0000000001234567860000000009FFFFFFFFFB7200
000000000000000000000000000BFFFFFFFFFFFE91
00000000000000000000000000BFFFFFFFFEB73000
0000000000000000000000000AFFFFFEB730000000
0000000000000000000000009FFEB7300000000000
000000000000000000000008B73000000000000000
ENDCHAR
STARTCHAR Atilde
ENCODING 195
SWIDTH 788 0
DWIDTH 28 0
BBX 42 41 -6 -8
BITMAP
000000000000000026630000080000000000000000
000000000000000AFFFFD723CF0000000000000000
000000000000000EFFFFFFFFFF0000000000000000
000000000000000EFFFFFFFFFF0000000000000000
000000000000000EFCCFFFFFFF0000000000000000
000000000000000E60028DFFC60000000000000000
000000000000000300000011000000000000000000
000000000000000000000000000000000000000000
000000001110000000000000000000000000000000
0000000007EFEEDCCBBA9800000000000000000000
000000000017EFFFFFFFFF60000000000000000000
00000000000017EFFFFFFFD0000000000000000000
0000000000000018EFFFFFF6000000000000000000
000000000000000019FFFFFD000000000000000000
000000000000000009FFFFFF600000000000000000
00000000000000002FFFFFFFD00000000000000000
00000000000000009FFFFFFFF50000000000000000
0000000000000002FFFDFFFFFD0000000000000000
000000000000000AFFB3FFFFFF5000000000000000
000000000000003FFF30BFFFFFC000000000000000
00000000000000BFFA003FFFFFF500000000000000
00000000000004FFF2000BFFFFFC00000000000000
0000000000000BFF900004FFFFFF50000000000000
0000000000004FFE100000CFFFFFC0000000000000
000000000000CFFFDCBBA9CFFFFFF4000000000000
000000000005FFFFFFFFFFFFFFFFFC000000000000
00000000000DFFFFFFFFFFFFFFFFFF400000000000
00000000006FFFDCBBAA9988FFFFFFB00000000000
0000000000DFF70000000000AFFFFFF40000000000
0000000006FFD100000000003FFFFFFB0000000000
000000001EFF6000000000000BFFFFFF3000000000
00000039EFFF20000000000005FFFFFFB000000000
00005BFFFFFFE7000000000000DFFFFFF300000000
017DFFFFFFFFFFC200000000007FFFFFFB00000000
28ABCDEFFFFFFFFF70000000001EFFFFFFA5100000
0000000001234567860000000009FFFFFFFFFB7200
000000000000000000000000000BFFFFFFFFFFFE91
00000000000000000000000000BFFFFFFFFEB73000
0000000000000000000000000AFFFFFEB730000000
0000000000000000000000009FFEB7300000000000
000000000000000000000008B73000000000000000
ENDCHAR
STARTCHAR Adieresis
ENCODING 196
SWIDTH 788 0
DWIDTH 28 0
BBX 42 39 -6 -8
BITMAP
0000000000000006EE6002CFA10000000000000000
000000000000001FFFF10AFFF70000000000000000
000000000000002FFFF20BFFF80000000000000000
000000000000000BFFA005FFE20000000000000000
000000000000000044000025100000000000000000
000000000000000000000000000000000000000000
000000001110000000000000000000000000000000
0000000007EFEEDCCBBA9800000000000000000000
000000000017EFFFFFFFFF60000000000000000000
00000000000017EFFFFFFFD0000000000000000000
0000000000000018EFFFFFF6000000000000000000
000000000000000019FFFFFD000000000000000000
000000000000000009FFFFFF600000000000000000
00000000000000002FFFFFFFD00000000000000000
00000000000000009FFFFFFFF50000000000000000
0000000000000002FFFDFFFFFD0000000000000000
000000000000000AFFB3FFFFFF5000000000000000
000000000000003FFF30BFFFFFC000000000000000
00000000000000BFFA003FFFFFF500000000000000
00000000000004FFF2000BFFFFFC00000000000000
0000000000000BFF900004FFFFFF50000000000000
0000000000004FFE100000CFFFFFC0000000000000
000000000000CFFFDCBBA9CFFFFFF4000000000000
000000000005FFFFFFFFFFFFFFFFFC000000000000
00000000000DFFFFFFFFFFFFFFFFFF400000000000
00000000006FFFDCBBAA9988FFFFFFB00000000000
0000000000DFF70000000000AFFFFFF40000000000
0000000006FFD100000000003FFFFFFB0000000000
000000001EFF6000000000000BFFFFFF3000000000
00000039EFFF20000000000005FFFFFFB000000000
00005BFFFFFFE7000000000000DFFFFFF300000000
017DFFFFFFFFFFC200000000007FFFFFFB00000000
28ABCDEFFFFFFFFF70000000001EFFFFFFA5100000
0000000001234567860000000009FFFFFFFFFB7200
000000000000000000000000000BFFFFFFFFFFFE91
00000000000000000000000000BFFFFFFFFEB73000
0000000000000000000000000AFFFFFEB730000000
0000000000000000000000009FFEB7300000000000
000000000000000000000008B73000000000000000
ENDCHAR
STARTCHAR Aring
ENCODING 197
SWIDTH 788 0
DWIDTH 28 0
BBX 42 39 -6 -8
BITMAP
000000000000000000168500000000000000000000
000000000000000002DFFFC2000000000000000000
00000000000000000CFFFFFB000000000000000000
00000000000000004FF607FF200000000000000000
00000000000000005FF203FF300000000000000000
00000000000000002FFB6CFE100000000000000000
000000001100000008FFFFF6000000000000000000
0000000007EFEEDCCBFFFF60000000000000000000
000000000017EFFFFFFFFF60000000000000000000
00000000000017EFFFFFFFD0000000000000000000
0000000000000018EFFFFFF6000000000000000000
000000000000000019FFFFFD000000000000000000
000000000000000009FFFFFF500000000000000000
00000000000000002FFFFFFFD00000000000000000
00000000000000009FFFFFFFF50000000000000000
0000000000000002FFFDFFFFFC0000000000000000
000000000000000AFFB3FFFFFF5000000000000000
000000000000003FFF30BFFFFFC000000000000000
00000000000000BFFA003FFFFFF500000000000000
00000000000004FFF2000BFFFFFC00000000000000
0000000000000BFF900004FFFFFF40000000000000
0000000000004FFE100000CFFFFFC0000000000000
000000000000CFFFDCBBA9CFFFFFF4000000000000
000000000005FFFFFFFFFFFFFFFFFB000000000000
00000000000DFFFFFFFFFFFFFFFFFF400000000000
00000000006FFFDCBBAA9988FFFFFFB00000000000
0000000000DFF70000000000AFFFFFF40000000000
0000000006FFD100000000003FFFFFFB0000000000
000000001EFF6000000000000BFFFFFF3000000000
00000039EFFF20000000000005FFFFFFB000000000
00005BFFFFFFE7000000000000DFFFFFF300000000
017DFFFFFFFFFFC200000000007FFFFFFB00000000
28ABCDEFFFFFFFFF70000000001EFFFFFFA5100000
0000000001234567860000000009FFFFFFFFFB7200
000000000000000000000000000BFFFFFFFFFFFE91
00000000000000000000000000BFFFFFFFFEB73000
0000000000000000000000000AFFFFFEB730000000
0000000000000000000000009FFEB7300000000000
000000000000000000000008B73000000000000000
ENDCHAR
STARTCHAR AE
ENCODING 198
SWIDTH 1019 0
DWIDTH 37 0
BBX 45 29 -9 -3
BITMAP
000000000000000000000000123345567889AABCDDEF40
000000000001789ABBCDDEFFFFFFFFFFFFFFFFFFFFFF30
0000000000002BFFFFFFFFFFFFFFFFFFFFFFFFFFFFFF30
000000000000005EFFFFFFFFFFFFFFFFFDCB9876FFFF20
00000000000000019FFFFFFFFFFFFFA1000000009FFF20
000000000000000003CFFFFFFFFFFF90000000003FFF10
0000000000000000000DFFF7EFFFFF90000021000CFF00
0000000000000000005FFFC0EFFFFF900000A10005FF00
000000000000000001EFFF30DFFFFF900002F10000EE00
000000000000000009FFF700DFFFFF800009F000008D00
00000000000000003FFFC000CFFFFF80002FF000002C00
0000000000000000CFFF3000CFFFFF80009FF000000700
0000000000000006FFF70000CFFFFF8002FFE000000100
000000000000001EFFC00000BFFFFFB99CFFE000000100
00000000000000AFFF300000BFFFFFFFFFFFD000001400
00000000000004FFF7000000AFFFFFFFFFFFD000005400
0000000000000DFFD3322111AFFFFFFFFFFFD00000A500
0000000000008FFFFFFFFFFFFFFFFF6128FFC00001E500
000000000002FFFFFFFFFFFFFFFFFF5000DFC00005F500
00000000000BFFFFFFFFFFFFFFFFFF50004FC00009F500
00000000005FFF8777665554AFFFFF50000AB0000EF500
0000000001EFF800000000007FFFFF400001A0004FF500
0000000009FFC000000000007FFFFF40000020009FF500
000000016FFF200000000002AFFFFF6334444444DFF500
0000039EFFFE4000000015BFFFFFFFFFFFFFFFFFFFF600
0016CFFFFFFFF8000039EFFFFFFFFFFFFFFFFFFFFFF600
39EFFFFFFFFFFFC24ACCCCCCCCCBBBBBBBBBAAAAAAA400
3456789ABCDEFFFE600000000000000000000000000000
0000000000000123410000000000000000000000000000
ENDCHAR
STARTCHAR Ccedilla
ENCODING 199
SWIDTH 766 0
DWIDTH 28 0
BBX 28 40 0 -13
BITMAP
0000000000000000000000000032
00000000000000000000000001D0
00000000001589AA963000000BD0
000000016DFFFFFFFFFD60007FA0
0000006EFFFFFFFFFFFFFD24FF80
00001BFFFFFFFFFFFFFFFFEEFF50
0001CFFFFFFFD953359EFFFFFF30
000CFFFFFFE700000001AFFFFF10
007FFFFFFE300000000008FFFD00
01EFFFFFF40000000000009FFB00
07FFFFFF900000000000001DF800
0CFFFFFF2000000000000005F600
1FFFFFFC0000000000000000D300
3FFFFFF900000000000000007100
4FFFFFF700000000000000001000
4FFFFFF700000000000000000000
3FFFFFF800000000000000000000
2FFFFFF900000000000000000000
0EFFFFFC00000000000000003000
0AFFFFFF10000000000000009000
05FFFFFF8000000000000002F100
00DFFFFFE200000000000008F400
005FFFFFFB1000000000003FF700
0009FFFFFFC10000000003EFFA00
0001CFFFFFFE720000028FFFFD00
00001BFFFFFFFFDBABDFFFFFFF10
0000008FFFFFFFFFFFFFFFE56F40
00000003AFFFFFFFFFFFFA200B70
00000000016AEFFFEDA720000190
000000000003FF90000000000030
00000000000DFF40000000000000
00000000008FFFFB200000000000
0000000003FFFFFFE10000000000
0000000000257AFFF80000000000
000000000000004FFC0000000000
000000000019102FFD0000000000
0000000000BFC8CFFA0000000000
0000000004FFFFFFF30000000000
00000000004EFFFE500000000000
0000000000015651000000000000
ENDCHAR
STARTCHAR Egrave
ENCODING 200
SWIDTH 781 0
DWIDTH 28 0
BBX 30 38 -3 -1
BITMAP
00000000000000017A000000000000
000000000000029EFF100000000000
0000000000001EFFFF600000000000
00000000000007FFFFC00000000000
00000000000001DFFFF20000000000
000000000000006FFFF70000000000
000000000000000DFFFC0000000000
0000000000000005FFFD1000000000
0000000000000000BB400000000000
000000000000000000000000000000
000000000000000000000000000000
000000000000000012345679ABCDEA
00012346789ABCDFFFFFFFFFFFFFF9
5BFFFFFFFFFFFFFFFFFFFFFFFFFFF9
0027CFFFFFFFFFFFFEDCA9876EFFF8
0000027CFFFFFFF20000000008FFF7
000000008FFFFFF00000000002FFF7
000000008FFFFFF00000040000AFF6
000000007FFFFFE000000B00003FF5
000000006FFFFFE000006D00000BF5
000000006FFFFFE00000DD000004F4
000000005FFFFFD00007FC000000C3
000000005FFFFFD0001EFC00000053
000000004FFFFFD0007FFC00000001
000000004FFFFFE89AEFFB00000010
000000003FFFFFFFFFFFFB00000050
000000003FFFFFFFFFFFFB00000290
000000002FFFFFFFFFFFFA00000790
000000002FFFFFB123DFFA00000C90
000000001FFFFFB0004FF900002FA0
000000001FFFFFA00009F900007FA0
000000000FFFFFA00001D90000CFA0
000000000FFFFF900000480002FFA0
000000000EFFFF900000020007FFA0
000000005FFFFFA3344444444DFFA0
0000028DFFFFFFFFFFFFFFFFFFFFA0
0005BFFFFFFFFFFFFFFFFFFFFFFFA0
05BCCCCCCCCCBBBBBBBBBAAAAAAA70
ENDCHAR
STARTCHAR Eacute
ENCODING 201
SWIDTH 781 0
DWIDTH 28 0
BBX 30 37 -3 -1
BITMAP
000000000000000008B40000000000
00000000000000000DFFD600000000
00000000000000003FFFFD00000000
00000000000000008FFFF500000000
0000000000000000DFFFB000000000
0000000000000004FFFF3000000000
0000000000000009FFFA0000000000
0000000000000003AFF20000000000
000000000000000002500000000000
000000000000000000000000000000
000000000000000012345679ABCDEA
00012346789ABCDFFFFFFFFFFFFFF9
5BFFFFFFFFFFFFFFFFFFFFFFFFFFF9
0027CFFFFFFFFFFFFEDCA9876EFFF8
0000027CFFFFFFF20000000008FFF7
000000008FFFFFF00000000002FFF7
000000008FFFFFF00000040000AFF6
000000007FFFFFE000000B00003FF5
000000006FFFFFE000006D00000BF5
000000006FFFFFE00000DD000004F4
000000005FFFFFD00007FC000000C3
000000005FFFFFD0001EFC00000053
000000004FFFFFD0007FFC00000001
000000004FFFFFE89AEFFB00000010
000000003FFFFFFFFFFFFB00000050
000000003FFFFFFFFFFFFB00000290
000000002FFFFFFFFFFFFA00000790
000000002FFFFFB123DFFA00000C90
000000001FFFFFB0004FF900002FA0
000000001FFFFFA00009F900007FA0
000000000FFFFFA00001D90000CFA0
000000000FFFFF900000480002FFA0
000000000EFFFF900000020007FFA0
000000005FFFFFA3344444444DFFA0
0000028DFFFFFFFFFFFFFFFFFFFFA0
0005BFFFFFFFFFFFFFFFFFFFFFFFA0
05BCCCCCCCCCBBBBBBBBBAAAAAAA70
ENDCHAR
STARTCHAR Ecircumflex
ENCODING 202
SWIDTH 781 0
DWIDTH 28 0
BBX 30 39 -3 -1
BITMAP
000000000000000031000000000000
0000000000000007FB000000000000
000000000000004FFF800000000000
00000000000002EFFFF50000000000
0000000000001CFFFFFE2000000000
000000000000AFFFFFFFD100000000
000000000006FFFF9DFFFA00000000
00000000004FFFB2019FFF70000000
00000000004EE6000004DF70000000
000000000002100000000300000000
000000000000000000000000000000
000000000000000000000000000000
000000000000000012345679ABCDEA
00012346789ABCDFFFFFFFFFFFFFF9
5BFFFFFFFFFFFFFFFFFFFFFFFFFFF9
0027CFFFFFFFFFFFFEDCA9876EFFF8
0000027CFFFFFFF20000000008FFF7
000000008FFFFFF00000000002FFF7
000000008FFFFFF00000040000AFF6
000000007FFFFFE000000B00003FF5
000000006FFFFFE000006D00000BF5
000000006FFFFFE00000DD000004F4
000000005FFFFFD00007FC000000C3
000000005FFFFFD0001EFC00000053
000000004FFFFFD0007FFC00000001
000000004FFFFFE89AEFFB00000010
000000003FFFFFFFFFFFFB00000050
000000003FFFFFFFFFFFFB00000290
000000002FFFFFFFFFFFFA00000790
000000002FFFFFB123DFFA00000C90
000000001FFFFFB0004FF900002FA0
000000001FFFFFA00009F900007FA0
000000000FFFFFA00001D90000CFA0
000000000FFFFF900000480002FFA0
000000000EFFFF900000020007FFA0
000000005FFFFFA3344444444DFFA0
0000028DFFFFFFFFFFFFFFFFFFFFA0
0005BFFFFFFFFFFFFFFFFFFFFFFFA0
05BCCCCCCCCCBBBBBBBBBAAAAAAA70
ENDCHAR
STARTCHAR Edieresis
ENCODING 203
SWIDTH 781 0
DWIDTH 28 0
BBX 30 33 -3 -1
BITMAP
0000000000006EE6002CFA10000000
000000000001FFFF10AFFF70000000
000000000002FFFF20BFFF80000000
000000000000BFFA005FFE20000000
000000000000044000025100000000
000000000000000000000000000000
000000000000000012345679ABCDEA
00012346789ABCDFFFFFFFFFFFFFF9
5BFFFFFFFFFFFFFFFFFFFFFFFFFFF9
0027CFFFFFFFFFFFFEDCA9876EFFF8
0000027CFFFFFFF20000000008FFF7
000000008FFFFFF00000000002FFF7
000000008FFFFFF00000040000AFF6
000000007FFFFFE000000B00003FF5
000000006FFFFFE000006D00000BF5
000000006FFFFFE00000DD000004F4
000000005FFFFFD00007FC000000C3
000000005FFFFFD0001EFC00000053
000000004FFFFFD0007FFC00000001
000000004FFFFFE89AEFFB00000010
000000003FFFFFFFFFFFFB00000050
000000003FFFFFFFFFFFFB00000290
000000002FFFFFFFFFFFFA00000790
000000002FFFFFB123DFFA00000C90
000000001FFFFFB0004FF900002FA0
000000001FFFFFA00009F900007FA0
000000000FFFFFA00001D90000CFA0
000000000FFFFF900000480002FFA0
000000000EFFFF900000020007FFA0
000000005FFFFFA3344444444DFFA0
0000028DFFFFFFFFFFFFFFFFFFFFA0
0005BFFFFFFFFFFFFFFFFFFFFFFFA0
05BCCCCCCCCCBBBBBBBBBAAAAAAA70
ENDCHAR
STARTCHAR Igrave
ENCODING 204
SWIDTH 445 0
DWIDTH 16 0
BBX 22 41 -3 -4
BITMAP
0000000002880000000000
00000003AFFE0000000000
0000002FFFFF4000000000
0000000AFFFF9000000000
00000002FFFFE000000000
000000008FFFF400000000
000000001EFFFA00000000
0000000007FFFB00000000
0000000001DA3000000000
0000000000000000000000
0000000000000000000000
0000000000000000000000
5ACCCBBBBBBAAAAAA99995
005BFFFFFFFFFFFFFFE920
000039EFFFFFFFFFC61000
00000017EFFFFFD3000000
00000000CFFFFFB0000000
00000000BFFFFFA0000000
00000000AFFFFFA0000000
00000000AFFFFFA0000000
000000009FFFFF90000000
000000009FFFFF90000000
000000008FFFFF80000000
000000007FFFFF80000000
000000007FFFFF70000000
000000006FFFFF70000000
000000006FFFFF70000000
000000005FFFFF60000000
000000004FFFFF60000000
000000004FFFFF50000000
000000003FFFFF50000000
000000003FFFFF40000000
000000002FFFFF40000000
000000001FFFFF40000000
000000001FFFFF30000000
000000000FFFFF30000000
000000000FFFFF20000000
00000005BFFFFFC6100000
000028EFFFFFFFFFE93000
005BFFFFFFFFFFFFFFFD71
0122222222222222222222
ENDCHAR
STARTCHAR Iacute
ENCODING 205
SWIDTH 445 0
DWIDTH 16 0
BBX 22 40 -3 -4
BITMAP
000000000004D610000000
000000000009FFE8100000
00000000000EFFFF200000
00000000004FFFF9000000
0000000000AFFFE1000000
0000000000EFFF70000000
0000000005FFFD10000000
00000000029EF600000000
0000000000016000000000
0000000000000000000000
0000000000000000000000
5ACCCBBBBBBAAAAAA99995
005BFFFFFFFFFFFFFFE920
000039EFFFFFFFFFC61000
00000017EFFFFFD3000000
00000000CFFFFFB0000000
00000000BFFFFFA0000000
00000000AFFFFFA0000000
00000000AFFFFFA0000000
000000009FFFFF90000000
000000009FFFFF90000000
000000008FFFFF80000000
000000007FFFFF80000000
000000007FFFFF70000000
000000006FFFFF70000000
000000006FFFFF70000000
000000005FFFFF60000000
000000004FFFFF60000000
000000004FFFFF50000000
000000003FFFFF50000000
000000003FFFFF40000000
000000002FFFFF40000000
000000001FFFFF40000000
000000001FFFFF30000000
000000000FFFFF30000000
000000000FFFFF20000000
00000005BFFFFFC6100000
000028EFFFFFFFFFE93000
005BFFFFFFFFFFFFFFFD71
0122222222222222222222
ENDCHAR
STARTCHAR Icircumflex
ENCODING 206
SWIDTH 445 0
DWIDTH 16 0
BBX 22 41 -3 -4
BITMAP
0000000000031000000000
00000000008FA000000000
0000000005FFF700000000
000000002EFFFF40000000
00000001DFFFFFE2000000
0000000AFFFFFFFC000000
0000007FFFE9EFFF900000
000004FFFB201AFFF60000
000005EE5000004DF60000
0000002100000001300000
0000000000000000000000
0000000000000000000000
5ACCCBBBBBBAAAAAA99995
005BFFFFFFFFFFFFFFE920
000039EFFFFFFFFFC61000
00000017EFFFFFD3000000
00000000CFFFFFB0000000
00000000BFFFFFA0000000
00000000AFFFFFA0000000
00000000AFFFFFA0000000
000000009FFFFF90000000
000000009FFFFF90000000
000000008FFFFF80000000
000000007FFFFF80000000
000000007FFFFF70000000
000000006FFFFF70000000
000000006FFFFF70000000
000000005FFFFF60000000
000000004FFFFF60000000
000000004FFFFF50000000
000000003FFFFF50000000
000000003FFFFF40000000
000000002FFFFF40000000
000000001FFFFF40000000
000000001FFFFF30000000
000000000FFFFF30000000
000000000FFFFF20000000
00000005BFFFFFC6100000
000028EFFFFFFFFFE93000
005BFFFFFFFFFFFFFFFD71
0122222222222222222222
ENDCHAR
STARTCHAR Idieresis
ENCODING 207
SWIDTH 445 0
DWIDTH 16 0
BBX 22 36 -3 -4
BITMAP
0000003DF9000AFC200000
000000CFFF506FFFB00000
000000DFFF607FFFC00000
0000007FFD102EFF500000
0000000351000153000000
0000000000000000000000
0000000000000000000000
5ACCCBBBBBBAAAAAA99995
005BFFFFFFFFFFFFFFE920
000039EFFFFFFFFFC61000
00000017EFFFFFD3000000
00000000CFFFFFB0000000
00000000BFFFFFA0000000
00000000AFFFFFA0000000
00000000AFFFFFA0000000
000000009FFFFF90000000
000000009FFFFF90000000
000000008FFFFF80000000
000000007FFFFF80000000
000000007FFFFF70000000
000000006FFFFF70000000
000000006FFFFF70000000
000000005FFFFF60000000
000000004FFFFF60000000
000000004FFFFF50000000
000000003FFFFF50000000
000000003FFFFF40000000
000000002FFFFF40000000
000000001FFFFF40000000
000000001FFFFF30000000
000000000FFFFF30000000
000000000FFFFF20000000
00000005BFFFFFC6100000
000028EFFFFFFFFFE93000
005BFFFFFFFFFFFFFFFD71
0122222222222222222222
ENDCHAR
STARTCHAR Eth
ENCODING 208
SWIDTH 1000 0
DWIDTH 36 0
BBX 35 27 0 -2
BITMAP
222111100000000000110000000000000000
17DFFFFFFFFFFFFFFFFFFEDB840000000000
0005BFFFFFFFFFFFFFFFFFFFFFE810000000
0000039EFFFFFFFFFFFFFFFFFFFFE7000000
000000017DFFFFFFF977789DFFFFFFB10000
0000000000EFFFFFF40000005DFFFFFC1000
0000000000DFFFFFF300000001CFFFFF9000
0000000000BFFFFFF3000000002EFFFFF500
0000000000AFFFFFF20000000008FFFFFC00
00000000009FFFFFF10000000003FFFFFF20
00000000007FFFFFF00000000000EFFFFF50
0004AA9887AFFFFFF32210000000CFFFFF70
0006FFFFFFFFFFFFFFFFFFC00000BFFFFF80
0006FFFFFFFFFFFFFFFFFFB00000BFFFFF70
0007FFFFFFFFFFFFFFFFFF900000BFFFFF60
0007DDCCCBBFFFFFD99887400000DFFFFF50
00000000000FFFFFA00000000000FFFFFF10
00000000000EFFFFA00000000004FFFFFC00
00000000000EFFFF90000000000AFFFFF700
00000000000DFFFF80000000003FFFFFE100
00000000000DFFFF7000000002DFFFFF6000
00000000000CFFFF700000027EFFFFF80000
00000000018FFFFFEDDDDDEFFFFFFF800000
000000018EFFFFFFFFFFFFFFFFFFC3000000
0000017EFFFFFFFFFFFFFFFFFC9300000000
00006DFFEDCBBA9876655432000000000000
000121000000000000000000000000000000
ENDCHAR
STARTCHAR Ntilde
ENCODING 209
SWIDTH 840 0
DWIDTH 30 0
BBX 37 37 -3 -2
BITMAP
00000000000000475200001700000000000000
0000000000002DFFFFC615DB00000000000000
0000000000003FFFFFFFFFFB00000000000000
0000000000003FFFFFFFFFFB00000000000000
0000000000003FFBDFFFFFFB00000000000000
0000000000003D3004AEFFB300000000000000
00000000000021000000110000000000000000
00000000000000000000000000000000000000
00000000000000000000000000011122223330
388877777666654016CEEEEFFFFFFFFFFFF920
029EFFFFFFFFFFF40016CFFFFFFFFFFFE92000
00018EFFFFFFFFFE2000039EFFFFFFE8100000
0000016DFFFFFFFFD10000017DFFFA10000000
000000009FFFFFFFFA00000001FFF700000000
000000007FFFFFFFFF80000000FFF600000000
000000007FFFFFFFFFF5000000FFF600000000
000000007FFFFFFFFFFE200000FFF600000000
000000007FFFAFFFFFFFD10000FFF600000000
000000007FFF1CFFFFFFFB0000FFF500000000
000000007FFF11DFFFFFFF8000FFF500000000
000000007FFF102EFFFFFFF500FFF500000000
000000007FFF1004FFFFFFFE30EFF400000000
000000007FFF20006FFFFFFFD1EFF400000000
000000007FFF200008FFFFFFFBEFF400000000
000000007FFF300000AFFFFFFFFFF300000000
000000007FFF3000000CFFFFFFFFF300000000
000000007FFF40000001DFFFFFFFF300000000
000000007FFF400000002EFFFFFFF300000000
000000007FFF4000000004FFFFFFF200000000
000000007FFF50000000006FFFFFF200000000
000000008FFF800000000008FFFFF200000000
0000005CFFFFFE8300000000AFFFF100000000
00016DFFFFFFFFFFC71000000CFFF100000000
018EFFFFFFFFFFFFFFFA500001DFF100000000
5BBBBBBBBCCCCCCCCCCCCB61002EF000000000
0000000000000000000000000004F000000000
00000000000000000000000000005000000000
ENDCHAR
STARTCHAR Ograve
ENCODING 210
SWIDTH 808 0
DWIDTH 29 0
BBX 29 35 0 -1
BITMAP
000000000000004B20000000000000
0000000000006DFF70000000000000
000000000009FFFFC0000000000000
000000000002FFFFF2000000000000
0000000000008FFFF7000000000000
0000000000001EFFFC000000000000
00000000000007FFFF200000000000
00000000000001DFFE500000000000
000000000000006D71000000000000
000000000000000000000000000000
000000000000000000000000000000
000000000000012210000000000000
0000000027ADFFFFFFC94000000000
0000005CFFFFFFFFFFFFFD70000000
00002CFFFFFFFFFFFFFFFFFC300000
0004EFFFFFFFB7557CFFFFFFE40000
002EFFFFFFB20000005EFFFFFE3000
00CFFFFFF80000000003FFFFFFC000
06FFFFFFB000000000007FFFFFF600
0CFFFFFF2000000000001EFFFFFD00
1FFFFFFB0000000000000AFFFFFF20
3FFFFFF700000000000007FFFFFF40
4FFFFFF600000000000005FFFFFF60
4FFFFFF600000000000005FFFFFF60
3FFFFFF700000000000006FFFFFF40
1FFFFFFA00000000000009FFFFFF20
0BFFFFFE1000000000000DFFFFFD00
05FFFFFF7000000000005FFFFFF600
00BFFFFFE20000000002EFFFFFC000
002EFFFFFD300000003DFFFFFE2000
0003EFFFFFF931125AFFFFFFE30000
00003DFFFFFFFFFFFFFFFFFC200000
0000007EFFFFFFFFFFFFFE60000000
000000016BEFFFFFFFDA4000000000
000000000003466542000000000000
ENDCHAR
STARTCHAR Oacute
ENCODING 211
SWIDTH 808 0
DWIDTH 29 0
BBX 29 34 0 -1
BITMAP
000000000000003D71000000000000
000000000000008FFE810000000000
00000000000000DFFFF30000000000
00000000000003FFFFA00000000000
00000000000008FFFF200000000000
0000000000000DFFF8000000000000
0000000000004FFFE1000000000000
00000000000018EF70000000000000
000000000000001610000000000000
000000000000000000000000000000
000000000000012210000000000000
0000000027ADFFFFFFC94000000000
0000005CFFFFFFFFFFFFFD70000000
00002CFFFFFFFFFFFFFFFFFC300000
0004EFFFFFFFB7557CFFFFFFE40000
002EFFFFFFB20000005EFFFFFE3000
00CFFFFFF80000000003FFFFFFC000
06FFFFFFB000000000007FFFFFF600
0CFFFFFF2000000000001EFFFFFD00
1FFFFFFB0000000000000AFFFFFF20
3FFFFFF700000000000007FFFFFF40
4FFFFFF600000000000005FFFFFF60
4FFFFFF600000000000005FFFFFF60
3FFFFFF700000000000006FFFFFF40
1FFFFFFA00000000000009FFFFFF20
0BFFFFFE1000000000000DFFFFFD00
05FFFFFF7000000000005FFFFFF600
00BFFFFFE20000000002EFFFFFC000
002EFFFFFD300000003DFFFFFE2000
0003EFFFFFF931125AFFFFFFE30000
00003DFFFFFFFFFFFFFFFFFC200000
0000007EFFFFFFFFFFFFFE60000000
000000016BEFFFFFFFDA4000000000
000000000003466542000000000000
ENDCHAR
STARTCHAR Ocircumflex
ENCODING 212
SWIDTH 808 0
DWIDTH 29 0
BBX 29 35 0 -1
BITMAP
000000000000003100000000000000
00000000000007FB00000000000000
0000000000004FFF80000000000000
000000000002EFFFF5000000000000
00000000000CFFFFFE300000000000
00000000009FFFFFFFD10000000000
0000000006FFFF9DFFFB0000000000
000000003FFFC3019FFF8000000000
000000004EE6000003CF8000000000
000000000220000000030000000000
000000000000000000000000000000
000000000000012210000000000000
0000000027ADFFFFFFC94000000000
0000005CFFFFFFFFFFFFFD70000000
00002CFFFFFFFFFFFFFFFFFC300000
0004EFFFFFFFB7557CFFFFFFE40000
002EFFFFFFB20000005EFFFFFE3000
00CFFFFFF80000000003FFFFFFC000
06FFFFFFB000000000007FFFFFF600
0CFFFFFF2000000000001EFFFFFD00
1FFFFFFB0000000000000AFFFFFF20
3FFFFFF700000000000007FFFFFF40
4FFFFFF600000000000005FFFFFF60
4FFFFFF600000000000005FFFFFF60
3FFFFFF700000000000006FFFFFF40
1FFFFFFA00000000000009FFFFFF20
0BFFFFFE1000000000000DFFFFFD00
05FFFFFF7000000000005FFFFFF600
00BFFFFFE20000000002EFFFFFC000
002EFFFFFD300000003DFFFFFE2000
0003EFFFFFF931125AFFFFFFE30000
00003DFFFFFFFFFFFFFFFFFC200000
0000007EFFFFFFFFFFFFFE60000000
000000016BEFFFFFFFDA4000000000
000000000003466542000000000000
ENDCHAR
STARTCHAR Otilde
ENCODING 213
SWIDTH 808 0
DWIDTH 29 0
BBX 29 33 0 -1
BITMAP
000000000004752000017000000000
0000000002DFFFFC615DB000000000
0000000003FFFFFFFFFFB000000000
0000000003FFFFFFFFFFB000000000
0000000003FFBDFFFFFFB000000000
0000000003D3004AEFFB3000000000
000000000210000001100000000000
000000000000000000000000000000
000000000000000000000000000000
000000000000012210000000000000
0000000027ADFFFFFFC94000000000
0000005CFFFFFFFFFFFFFD70000000
00002CFFFFFFFFFFFFFFFFFC300000
0004EFFFFFFFB7557CFFFFFFE40000
002EFFFFFFB20000005EFFFFFE3000
00CFFFFFF80000000003FFFFFFC000
06FFFFFFB000000000007FFFFFF600
0CFFFFFF2000000000001EFFFFFD00
1FFFFFFB0000000000000AFFFFFF20
3FFFFFF700000000000007FFFFFF40
4FFFFFF600000000000005FFFFFF60
4FFFFFF600000000000005FFFFFF60
3FFFFFF700000000000006FFFFFF40
1FFFFFFA00000000000009FFFFFF20
0BFFFFFE1000000000000DFFFFFD00
05FFFFFF7000000000005FFFFFF600
00BFFFFFE20000000002EFFFFFC000
002EFFFFFD300000003DFFFFFE2000
0003EFFFFFF931125AFFFFFFE30000
00003DFFFFFFFFFFFFFFFFFC200000
0000007EFFFFFFFFFFFFFE60000000
000000016BEFFFFFFFDA4000000000
000000000003466542000000000000
ENDCHAR
STARTCHAR Odieresis
ENCODING 214
SWIDTH 808 0
DWIDTH 29 0
BBX 29 30 0 -1
BITMAP
0000000003CFA0009FD30000000000
000000000BFFF705FFFC0000000000
000000000CFFF806FFFD0000000000
0000000005FFE201DFF60000000000
000000000035100015300000000000
000000000000000000000000000000
000000000000012210000000000000
0000000027ADFFFFFFC94000000000
0000005CFFFFFFFFFFFFFD70000000
00002CFFFFFFFFFFFFFFFFFC300000
0004EFFFFFFFB7557CFFFFFFE40000
002EFFFFFFB20000005EFFFFFE3000
00CFFFFFF80000000003FFFFFFC000
06FFFFFFB000000000007FFFFFF600
0CFFFFFF2000000000001EFFFFFD00
1FFFFFFB0000000000000AFFFFFF20
3FFFFFF700000000000007FFFFFF40
4FFFFFF600000000000005FFFFFF60
4FFFFFF600000000000005FFFFFF60
3FFFFFF700000000000006FFFFFF40
1FFFFFFA00000000000009FFFFFF20
0BFFFFFE1000000000000DFFFFFD00
05FFFFFF7000000000005FFFFFF600
00BFFFFFE20000000002EFFFFFC000
002EFFFFFD300000003DFFFFFE2000
0003EFFFFFF931125AFFFFFFE30000
00003DFFFFFFFFFFFFFFFFFC200000
0000007EFFFFFFFFFFFFFE60000000
000000016BEFFFFFFFDA4000000000
000000000003466542000000000000
ENDCHAR
STARTCHAR multiply
ENCODING 215
SWIDTH 556 0
DWIDTH 20 0
BBX 20 20 0 2
BITMAP
0000A500000000080000
001BFF40000000AFA000
01CFFFE300000AFFFA00
1CFFFFFE20009FFFFF90
4FFFFFFFD208FFFFFFF6
04EFFFFFFD8FFFFFFFB1
004EFFFFFFFFFFFFFA00
0003EFFFFFFFFFFF9000
00003EFFFFFFFFF80000
000002EFFFFFFF700000
000005FFFFFFFF700000
00004FFFFFFFFFF60000
0004FFFFFFFFFFFF5000
003EFFFFFECFFFFFF400
03EFFFFFD21BFFFFFE30
2EFFFFFC1000AFFFFFE2
1CFFFFB100000AFFFFD2
02DFFA000000009FFC10
003E900000000008A000
00020000000000000000
ENDCHAR
STARTCHAR Oslash
ENCODING 216
SWIDTH 808 0
DWIDTH 29 0
BBX 29 31 0 -5
BITMAP
00000000000000000000C700000000
00000000000000000007FFD4000000
0000000000000000001EFFFFA10000
0000000000000122108FFFFFD00000
0000000027ADFFFFFFFFFFFF400000
0000005CFFFFFFFFFFFFFFF9000000
00002CFFFFFFFFFFFFFFFFFD300000
0004EFFFFFFFB755EFFFFFFFE40000
002EFFFFFFB30004FFFFFFFFFE3000
00CFFFFFF900000CFFFFFFFFFFD000
06FFFFFFB000006FFFFFCFFFFFF600
0CFFFFFF200001EFFFFC1EFFFFFC00
1FFFFFFB000007FFFFF30AFFFFFF20
3FFFFFF700001EFFFF9007FFFFFF40
4FFFFFF600009FFFFD1005FFFFFF60
4FFFFFF60002FFFFF50005FFFFFF60
3FFFFFF8000AFFFFA00006FFFFFF40
0FFFFFFB004FFFFE100009FFFFFF20
0BFFFFFF10CFFFF600000DFFFFFD00
05FFFFFF75FFFFB000005FFFFFF600
00CFFFFFEDFFFF200002EFFFFFC000
002EFFFFFFFFF700003DFFFFFE2000
0004EFFFFFFFE2125AFFFFFFE30000
00003DFFFFFFFFFFFFFFFFFC200000
0000019FFFFFFFFFFFFFFE60000000
0000009FFFFFFFFFFFDA4000000000
000003FFFF53566542000000000000
00000BFFFA00000000000000000000
00001BFFE200000000000000000000
0000005D7000000000000000000000
000000010000000000000000000000
ENDCHAR
STARTCHAR Ugrave
ENCODING 217
SWIDTH 725 0
DWIDTH 26 0
BBX 32 36 -3 -1
BITMAP
0000000000000003A500000000000000
00000000000004BFFA00000000000000
0000000000005FFFFF10000000000000
0000000000000DFFFF60000000000000
00000000000005FFFFB0000000000000
00000000000000CFFFF1000000000000
000000000000004FFFF6000000000000
000000000000000BFFF8000000000000
0000000000000003E820000000000000
00000000000000000000000000000000
00000000000000000000000000000000
2100000000000000017AAA9998888774
39EEDCB9876543210004CFFFFFFFFE60
0028EFFFFFFFFFFD710005DFFFFF8100
000017FFFFFFFB400000000DFFF30000
000000FFFFFF80000000000CFFF20000
000000FFFFFF80000000000CFFF10000
000001FFFFFF80000000000BFFF00000
000001FFFFFF70000000000AFFF00000
000002FFFFFF70000000000AFFE00000
000003FFFFFF700000000009FFD00000
000003FFFFFF600000000008FFD00000
000003FFFFFF600000000008FFC00000
000004FFFFFF600000000007FFC00000
000004FFFFFF600000000007FFB00000
000004FFFFFF600000000006FFA00000
000004FFFFFF600000000006FF900000
000003FFFFFF800000000007FF800000
000001FFFFFFB0000000000BFF600000
000000CFFFFFF2000000002FFF200000
0000007FFFFFFB00000001CFFC000000
0000000DFFFFFFA100003CFFF5000000
00000004FFFFFFFEA89CFFFFA0000000
000000005EFFFFFFFFFFFFFA00000000
0000000002BFFFFFFFFFFD6000000000
0000000000037BDEEDB8400000000000
ENDCHAR
STARTCHAR Uacute
ENCODING 218
SWIDTH 725 0
DWIDTH 26 0
BBX 32 36 -3 -1
BITMAP
0000000000000000D820000000000000
0000000000000005FFFA300000000000
000000000000000AFFFF600000000000
000000000000001EFFFD000000000000
000000000000005FFFF5000000000000
00000000000000AFFFC0000000000000
00000000000001FFFF40000000000000
000000000000017DFA00000000000000
00000000000000005200000000000000
00000000000000000000000000000000
00000000000000000000000000000000
2100000000000000017AAA9998888774
39EEDCB9876543210004CFFFFFFFFE60
0028EFFFFFFFFFFD710005DFFFFF8100
000017FFFFFFFB400000000DFFF30000
000000FFFFFF80000000000CFFF20000
000000FFFFFF80000000000CFFF10000
000001FFFFFF80000000000BFFF00000
000001FFFFFF70000000000AFFF00000
000002FFFFFF70000000000AFFE00000
000003FFFFFF700000000009FFD00000
000003FFFFFF600000000008FFD00000
000003FFFFFF600000000008FFC00000
000004FFFFFF600000000007FFC00000
000004FFFFFF600000000007FFB00000
000004FFFFFF600000000006FFA00000
000004FFFFFF600000000006FF900000
000003FFFFFF800000000007FF800000
000001FFFFFFB0000000000BFF600000
000000CFFFFFF2000000002FFF200000
0000007FFFFFFB00000001CFFC000000
0000000DFFFFFFA100003CFFF5000000
00000004FFFFFFFEA89CFFFFA0000000
000000005EFFFFFFFFFFFFFA00000000
0000000002BFFFFFFFFFFD6000000000
0000000000037BDEEDB8400000000000
ENDCHAR
STARTCHAR Ucircumflex
ENCODING 219
SWIDTH 725 0
DWIDTH 26 0
BBX 32 36 -3 -1
BITMAP
00000000000000003100000000000000
0000000000000007FB00000000000000
000000000000004FFF80000000000000
00000000000002EFFFF5000000000000
0000000000001CFFFFFE200000000000
000000000000AFFFFFFFD10000000000
000000000006FFFF9DFFFA0000000000
00000000004FFFB2019FFF7000000000
00000000004EE6000004DF7000000000
00000000000210000000030000000000
00000000000000000000000000000000
2100000000000000017AAA9998888774
39EEDCB9876543210004CFFFFFFFFE60
0028EFFFFFFFFFFD710005DFFFFF8100
000017FFFFFFFB400000000DFFF30000
000000FFFFFF80000000000CFFF20000
000000FFFFFF80000000000CFFF10000
000001FFFFFF80000000000BFFF00000
000001FFFFFF70000000000AFFF00000
000002FFFFFF70000000000AFFE00000
000003FFFFFF700000000009FFD00000
000003FFFFFF600000000008FFD00000
000003FFFFFF600000000008FFC00000
000004FFFFFF600000000007FFC00000
000004FFFFFF600000000007FFB00000
000004FFFFFF600000000006FFA00000
000004FFFFFF600000000006FF900000
000003FFFFFF800000000007FF800000
000001FFFFFFB0000000000BFF600000
000000CFFFFFF2000000002FFF200000
0000007FFFFFFB00000001CFFC000000
0000000DFFFFFFA100003CFFF5000000
00000004FFFFFFFEA89CFFFFA0000000
000000005EFFFFFFFFFFFFFA00000000
0000000002BFFFFFFFFFFD6000000000
0000000000037BDEEDB8400000000000
ENDCHAR
STARTCHAR Udieresis
ENCODING 220
SWIDTH 725 0
DWIDTH 26 0
BBX 32 32 -3 -1
BITMAP
0000000000006EE6002CFA1000000000
000000000001FFFF10AFFF7000000000
000000000002FFFF20BFFF8000000000
000000000000BFFA005FFE2000000000
00000000000004400002510000000000
00000000000000000000000000000000
00000000000000000000000000000000
2100000000000000017AAA9998888774
39EEDCB9876543210004CFFFFFFFFE60
0028EFFFFFFFFFFD710005DFFFFF8100
000017FFFFFFFB400000000DFFF30000
000000FFFFFF80000000000CFFF20000
000000FFFFFF80000000000CFFF10000
000001FFFFFF80000000000BFFF00000
000001FFFFFF70000000000AFFF00000
000002FFFFFF70000000000AFFE00000
000003FFFFFF700000000009FFD00000
000003FFFFFF600000000008FFD00000
000003FFFFFF600000000008FFC00000
000004FFFFFF600000000007FFC00000
000004FFFFFF600000000007FFB00000
000004FFFFFF600000000006FFA00000
000004FFFFFF600000000006FF900000
000003FFFFFF800000000007FF800000
000001FFFFFFB0000000000BFF600000
000000CFFFFFF2000000002FFF200000
0000007FFFFFFB00000001CFFC000000
0000000DFFFFFFA100003CFFF5000000
00000004FFFFFFFEA89CFFFFA0000000
000000005EFFFFFFFFFFFFFA00000000
0000000002BFFFFFFFFFFD6000000000
0000000000037BDEEDB8400000000000
ENDCHAR
STARTCHAR Yacute
ENCODING 221
SWIDTH 848 0
DWIDTH 31 0
BBX 38 37 -5 -3
BITMAP
0000000000000000000000AA40000000000000
0000000000000000000001EFFC500000000000
0000000000000000000005FFFFB00000000000
000000000000000000000AFFFF300000000000
000000000000000000001FFFFA000000000000
000000000000000000006FFFF2000000000000
00000000000000000000BFFF80000000000000
000000000000000000004BFE10000000000000
00000000000000000000003400000000000000
00000000000000000000000000000000000000
00000000001223455673000000000000000000
17ABCCDEFFFFFFFFFE50000000000000000000
0039EFFFFFFFFFFF9100001211000000000000
000005AFFFFFFFF900000018FFFFEDDCCBBA94
000000016CFFFFFF500000002BFFFFFFFFE820
0000000001CFFFFFE3000000005DFFFFC50000
00000000002DFFFFFD100000001CFFA3000000
000000000003EFFFFFC0000001CFF800000000
0000000000004FFFFFFA00001CFFA000000000
00000000000006FFFFFF7001CFFB0000000000
000000000000008FFFFFF51CFFC10000000000
0000000000000009FFFFFECFFD100000000000
0000000000000000BFFFFFFFD2000000000000
00000000000000001CFFFFFE30000000000000
000000000000000002DFFFF500000000000000
000000000000000000BFFFF500000000000000
000000000000000000BFFFF700000000000000
000000000000000000CFFFF800000000000000
000000000000000000CFFFFA00000000000000
000000000000000000DFFFFB00000000000000
000000000000000000EFFFFC00000000000000
000000000000000000EFFFFE00000000000000
000000000000000000FFFFFF00000000000000
000000000000000005FFFFFFA4000000000000
0000000000000017DFFFFFFFFFE94000000000
00000000000029EFFFFFFFFFFFFFFD83000000
00000000000377777777776666666666300000
ENDCHAR
STARTCHAR Thorn
ENCODING 222
SWIDTH 745 0
DWIDTH 27 0
BBX 31 26 -3 -2
BITMAP
11000000000000000000000000000000
4AFFFEEDDDCCBBBAAA99710000000000
0029FFFFFFFFFFFFFFA4000000000000
000018EFFFFFFFFD7100000000000000
00000006FFFFFD400000000000000000
00000000EFFFFD332100000000000000
00000000EFFFFFFFFFFEC97410000000
00000000DFFFFFFFFFFFFFFFFB500000
00000000DFFFFFFFFFFFFFFFFFFC2000
00000000DFFFFD32112469DFFFFFE300
00000000CFFFFD0000000003BFFFFC00
00000000CFFFFD00000000000DFFFF10
00000000CFFFFE00000000000BFFFF20
00000000CFFFFE00000000006FFFFC00
00000000BFFFFF000000015BFFFFE300
00000000BFFFFF444579CFFFFFFB2000
00000000BFFFFFFFFFFFFFFFFA400000
00000000AFFFFFFFFFFFFC9510000000
00000000AFFFFFDB9753100000000000
00000000AFFFFF800000000000000000
00000000AFFFFF900000000000000000
00000006EFFFFFC30000000000000000
000005DFFFFFFFFFB500000000000000
0004CFFFFFFFFFFFFFE8200000000000
04BFFFFFFFFFFFEEEEEDD82000000000
02211111000000000000000000000000
ENDCHAR
STARTCHAR germandbls
ENCODING 223
SWIDTH 986 0
DWIDTH 36 0
BBX 38 49 -2 -15
BITMAP
00000000000000024543000000000000000000
00000000000018DFFFFFE93000000000000000
000000000003DFFFFFFFFFF910000000000000
00000000003EFFFFFEEFFFFFC2000000000000
0000000001EFFFF920017FFFFC000000000000
000000000AFFFF60000004FFFF800000000000
000000003FFFFA000000008FFFF20000000000
000000008FFFF3000000001FFFF70000000000
00000000DFFFD0000000000BFFFC0000000000
00000002FFFFA00000000008FFFF0000000000
00000005FFFF900000000007FFFF1000000000
00000007FFFF800000000006FFFF2000000000
00000008FFFF900000000008FFFF1000000000
00000009FFFFA0000000000DFFFD0000000000
00000009FFFFC0000000006FFFF80000000000
00111119FFFFE000000001EFFFF10000000000
007FFFFFFFFFF00000000AFFFF900000000000
007FFFFFFFFFF20000004FFFFF200000000000
007FFFFFFFFFF4000000CFFFF8000000000000
00122224FFFFF6000006FFFFE1000000000000
00000000FFFFF700000CFFFF80000000000000
00000000DFFFF900001FFFFF30000000000000
00000000BFFFFB00003FFFFF20000000000000
000000009FFFFD00004FFFFF50000000000000
000000007FFFFE00002FFFFFD2000000000000
000000005FFFFF10000DFFFFFE600000000000
000000003FFFFF300006FFFFFFFD7200000000
000000001FFFFF500000BFFFFFFFFFB5000000
000000000EFFFF7000001BFFFFFFFFFFE82000
000000000CFFFF800000007FFFFFFFFFFFE700
000000000AFFFFA000034002AFFFFFFFFFFF90
0000000008FFFFC00004D000028EFFFFFFFFF5
0000000006FFFFE00005FA0000016DFFFFFFFB
0000000005FFFFF10006FF900000005DFFFFFD
0000000003FFFFF20007FFF910000001EFFFFB
0000000001FFFFF40008FFFFD5000001EFFFF7
0000000000FFFFF50009FFFFFFD988AEFFFFD1
0000000000EFFFF6000AFEDFFFFFFFFFFFFC20
0010000000DFFFF7000BF417DFFFFFFFFC6000
1BFF800000CFFFF6000C900002578875200000
8FFFF60000DFFFF4000B100000000000000000
BFFFFA0000EFFFF10002000000000000000000
AFFFF60003FFFFC00000000000000000000000
7FFFE00007FFFF600000000000000000000000
1EFFF7003EFFFD000000000000000000000000
06FFFFCBFFFFF3000000000000000000000000
007FFFFFFFFE50000000000000000000000000
0003BFFFFEA200000000000000000000000000
00000144310000000000000000000000000000
ENDCHAR
STARTCHAR agrave
ENCODING 224
SWIDTH 572 0
DWIDTH 21 0
BBX 23 32 0 -1
BITMAP
0000000000003A5000000000
00000000004BFFA000000000
0000000005FFFFF100000000
0000000000DFFFF600000000
00000000005FFFFB00000000
00000000000CFFFF10000000
000000000004FFFF60000000
000000000000BFFF80000000
0000000000003E8200000000
000000000000000000000000
000000000000000000000000
00000049CEEDC94000000000
00005DFFFFFFFFFC30000000
0009FFFFEBBEFFFFE3000000
008FFFF60001AFFFFC000000
01EFFFD100000EFFFF500000
04FFFFF5000009FFFF900000
03FFFFF5000006FFFFB00000
00DFFFD1000005FFFFC00000
0019B920000005FFFFD00000
0000379AAA9869FFFFC00000
003BFFFFFFFFFFFFFFB00000
03EFFFFFCABCEFFFFF900000
0DFFFFD200000DFFFF700000
3FFFFF5000000FFFFF600000
4FFFFF5000002FFFFF400000
2FFFFFD200005FFFFF300000
09FFFFFFBBCDFFFFFF100000
008FFFFFFFFFFFFFFF000000
00028BDFFFFDFFFFFFD50000
000000000000DFFFFFFFD600
000000000000CBBA99887640
ENDCHAR
STARTCHAR aacute
ENCODING 225
SWIDTH 572 0
DWIDTH 21 0
BBX 23 32 0 -1
BITMAP
000000000001E82000000000
000000000005FFF920000000
00000000000AFFFF60000000
00000000001FFFFC00000000
00000000006FFFF400000000
0000000000BFFFB000000000
0000000001FFFF3000000000
00000000017DFA0000000000
000000000000520000000000
000000000000000000000000
000000000000000000000000
00000049CEEDC94000000000
00005DFFFFFFFFFC30000000
0009FFFFEBBEFFFFE3000000
008FFFF60001AFFFFC000000
01EFFFD100000EFFFF500000
04FFFFF5000009FFFF900000
03FFFFF5000006FFFFB00000
00DFFFD1000005FFFFC00000
0019B920000005FFFFD00000
0000379AAA9869FFFFC00000
003BFFFFFFFFFFFFFFB00000
03EFFFFFCABCEFFFFF900000
0DFFFFD200000DFFFF700000
3FFFFF5000000FFFFF600000
4FFFFF5000002FFFFF400000
2FFFFFD200005FFFFF300000
09FFFFFFBBCDFFFFFF100000
008FFFFFFFFFFFFFFF000000
00028BDFFFFDFFFFFFD50000
000000000000DFFFFFFFD600
000000000000CBBA99887640
ENDCHAR
STARTCHAR acircumflex
ENCODING 226
SWIDTH 572 0
DWIDTH 21 0
BBX 23 33 0 -1
BITMAP
000000000002100000000000
00000000005FD10000000000
0000000002EFFA0000000000
000000001CFFFF7000000000
00000000AFFFFFF400000000
00000007FFFFFFFE20000000
0000004FFFF9CFFFC1000000
000002EFFD4007FFFA000000
000003DF8000002BF9000000
000000120000000030000000
000000000000000000000000
000000000000000000000000
00000049CEEDC94000000000
00005DFFFFFFFFFC30000000
0009FFFFEBBEFFFFE3000000
008FFFF60001AFFFFC000000
01EFFFD100000EFFFF500000
04FFFFF5000009FFFF900000
03FFFFF5000006FFFFB00000
00DFFFD1000005FFFFC00000
0019B920000005FFFFD00000
0000379AAA9869FFFFC00000
003BFFFFFFFFFFFFFFB00000
03EFFFFFCABCEFFFFF900000
0DFFFFD200000DFFFF700000
3FFFFF5000000FFFFF600000
4FFFFF5000002FFFFF400000
2FFFFFD200005FFFFF300000
09FFFFFFBBCDFFFFFF100000
008FFFFFFFFFFFFFFF000000
00028BDFFFFDFFFFFFD50000
000000000000DFFFFFFFD600
000000000000CBBA99887640
ENDCHAR
STARTCHAR atilde
ENCODING 227
SWIDTH 572 0
DWIDTH 21 0
BBX 23 30 0 -1
BITMAP
000000004752000025000000
0000004EFFFFB417E8000000
0000006FFFFFFFFFF8000000
0000006FFFFFFFFFF8000000
0000006FEBEFFFFFF8000000
0000006C2005BFFE92000000
000000200000001000000000
000000000000000000000000
000000000000000000000000
00000049CEEDC94000000000
00005DFFFFFFFFFC30000000
0009FFFFEBBEFFFFE3000000
008FFFF60001AFFFFC000000
01EFFFD100000EFFFF500000
04FFFFF5000009FFFF900000
03FFFFF5000006FFFFB00000
00DFFFD1000005FFFFC00000
0019B920000005FFFFD00000
0000379AAA9869FFFFC00000
003BFFFFFFFFFFFFFFB00000
03EFFFFFCABCEFFFFF900000
0DFFFFD200000DFFFF700000
3FFFFF5000000FFFFF600000
4FFFFF5000002FFFFF400000
2FFFFFD200005FFFFF300000
09FFFFFFBBCDFFFFFF100000
008FFFFFFFFFFFFFFF000000
00028BDFFFFDFFFFFFD50000
000000000000DFFFFFFFD600
000000000000CBBA99887640
ENDCHAR
STARTCHAR adieresis
ENCODING 228
SWIDTH 572 0
DWIDTH 21 0
BBX 23 28 0 -1
BITMAP
0000009ED4004DE800000000
000004FFFD00DFFF40000000
000005FFFE00EFFF50000000
000001DFF7007FFC10000000
000000153000035100000000
000000000000000000000000
000000000000000000000000
00000049CEEDC94000000000
00005DFFFFFFFFFC30000000
0009FFFFEBBEFFFFE3000000
008FFFF60001AFFFFC000000
01EFFFD100000EFFFF500000
04FFFFF5000009FFFF900000
03FFFFF5000006FFFFB00000
00DFFFD1000005FFFFC00000
0019B920000005FFFFD00000
0000379AAA9869FFFFC00000
003BFFFFFFFFFFFFFFB00000
03EFFFFFCABCEFFFFF900000
0DFFFFD200000DFFFF700000
3FFFFF5000000FFFFF600000
4FFFFF5000002FFFFF400000
2FFFFFD200005FFFFF300000
09FFFFFFBBCDFFFFFF100000
008FFFFFFFFFFFFFFF000000
00028BDFFFFDFFFFFFD50000
000000000000DFFFFFFFD600
000000000000CBBA99887640
ENDCHAR
STARTCHAR aring
ENCODING 229
SWIDTH 572 0
DWIDTH 21 0
BBX 23 28 0 -1
BITMAP
00000000019DD80000000000
000000001DFFFFC000000000
000000008FFABFF600000000
00000000DFA00CFA00000000
00000000CFB00DF900000000
000000007FFDEFF400000000
000000000BFFFF9000000000
00000049CEFFFD4000000000
00005DFFFFFFFFFC30000000
0009FFFFEBBEFFFFE3000000
007FFFF60001AFFFFC000000
01EFFFD100000EFFFF400000
04FFFFF5000009FFFF900000
03FFFFF5000006FFFFB00000
00DFFFD1000005FFFFC00000
0019B920000005FFFFD00000
0000379AAA9869FFFFC00000
003BFFFFFFFFFFFFFFB00000
03EFFFFFCABCEFFFFF900000
0DFFFFD200000DFFFF700000
3FFFFF5000000FFFFF600000
4FFFFF5000002FFFFF400000
2FFFFFD200005FFFFF300000
09FFFFFFBBCDFFFFFF100000
008FFFFFFFFFFFFFFF000000
00028BDFFFFDFFFFFFD50000
000000000000DFFFFFFFD600
000000000000CBBA99887640
ENDCHAR
STARTCHAR ae
ENCODING 230
SWIDTH 1022 0
DWIDTH 37 0
BBX 37 21 0 -1
BITMAP
0000037BDEECA6100000000000000000000000
0002BFFFFFFFFFE50000000378AA9610000000
005FFFFFCBDFFFFF600018DFFFFFFFFA200000
03FFFF910006FFFFF204EFFFFFFFFFFFE50000
0BFFFF300000AFFFF94FFFFFEA89DFFFFF4000
0EFFFF9000004FFFFEEFFFFB100009FFFFE100
0EFFFF9000002FFFFFFFFFE1000000CFFFF800
08FFFF3000000FFFFFFFFF800000004FFFFE00
007B930000000FFFFFFFFF632222222FFFFF30
000169ABA9877FFFFFFFFFFFFFFFFFFFFFFF50
019FFFFFFFFFFFFFFFFFFFFFFFFFFFFFFFFF60
1CFFFFFDBBCEFFFFFFFFFFBAA9999888887730
8FFFFF5000009FFFFFFFFF6000000000000000
DFFFFA000000BFFFFFFFFFE300000000007100
EFFFFA000000DFFFFAEFFFFE610000027D9000
CFFFFE400000FFFFF73EFFFFFECAABEFFB0000
5FFFFFFCBBDEFFFFF502BFFFFFFFFFFF900000
05EFFFFFFFFFFFFFF40005BFFFFFFE93000000
0016ADEFFFEEFFFFFE71000135542000000000
000000001009FFFFFFFE810000000000000000
000000000009BBAA9887751000000000000000
ENDCHAR
STARTCHAR ccedilla
ENCODING 231
SWIDTH 589 0
DWIDTH 21 0
BBX 20 31 1 -13
BITMAP
000000037ABCB8300000
000006DFFFFFFFFD5000
0002CFFFFFFFFFFFF900
002EFFFFF9669FFFFF90
01DFFFFE300007FFFFF2
09FFFFF400000AFFFFF6
2FFFFFB000000AFFFFF6
7FFFFF70000005FFFFE2
BFFFFF400000006DEC40
CFFFFF30000000000000
DFFFFF20000000000000
CFFFFF40000000000007
AFFFFF8000000000005C
6FFFFFE10000000004E9
1EFFFFFA000000004EF5
08FFFFFFC3000019FFE1
00CFFFFFFFDAACFFFF60
001CFFFFFFFFFFFFF900
00018FFFFFFFFFFE7000
0000028DFFFFFD820000
00000000BFF310000000
00000005FFB000000000
0000001EFFFE60000000
000000AFFFFFF7000000
0000001468DFFE100000
00000000000BFF400000
00000006400AFF500000
0000005FF99FFF200000
000000BFFFFFFA000000
0000001AFFFFB1000000
00000000366300000000
ENDCHAR
STARTCHAR egrave
ENCODING 232
SWIDTH 593 0
DWIDTH 21 0
BBX 20 31 1 -3
BITMAP
000000000005B1000000
0000000017DFF5000000
00000000BFFFFA000000
000000003FFFFF100000
000000000AFFFF600000
0000000002FFFFB00000
00000000009FFFF10000
00000000001EFFE30000
000000000008C6100000
00000000000000000000
00000000000000000000
00000003689862000000
000017DFFFFFFFC40000
0003DFFFFFFFFFFF8000
004FFFFFFFFFFFFFF800
02EFFFFD5003AFFFFF40
0BFFFFE1000009FFFFD0
3FFFFF60000001EFFFF4
9FFFFF100000009FFFF9
BFFFFD544444338FFFFD
DFFFFFFFFFFFFFFFFFFE
DFFFFFFFFFFFFFFFFFFF
BFFFFEDCCCCBBBAAA999
8FFFFD00000000000000
3FFFFF50000000000040
0AFFFFE4000000003A60
01DFFFFFB632347BFC00
003EFFFFFFFFFFFFD200
0001BFFFFFFFFFFA1000
000004AEFFFFD9300000
00000000233100000000
ENDCHAR
STARTCHAR eacute
ENCODING 233
SWIDTH 593 0
DWIDTH 21 0
BBX 20 31 1 -3
BITMAP
00000000006C50000000
0000000000BFFD710000
0000000001FFFFE10000
0000000006FFFF700000
000000000BFFFD000000
000000002FFFF5000000
000000007FFFC0000000
0000000039FF40000000
00000000001600000000
00000000000000000000
00000000000000000000
00000003689862000000
000017DFFFFFFFC40000
0003DFFFFFFFFFFF8000
004FFFFFFFFFFFFFF800
02EFFFFD5003AFFFFF40
0BFFFFE1000009FFFFD0
3FFFFF60000001EFFFF4
9FFFFF100000009FFFF9
BFFFFD544444338FFFFD
DFFFFFFFFFFFFFFFFFFE
DFFFFFFFFFFFFFFFFFFF
BFFFFEDCCCCBBBAAA999
8FFFFD00000000000000
3FFFFF50000000000040
0AFFFFE4000000003A60
01DFFFFFB632347BFC00
003EFFFFFFFFFFFFD200
0001BFFFFFFFFFFA1000
000004AEFFFFD9300000
00000000233100000000
ENDCHAR
STARTCHAR ecircumflex
ENCODING 234
SWIDTH 593 0
DWIDTH 21 0
BBX 20 32 1 -3
BITMAP
00000000002100000000
0000000005FD10000000
000000002EFFA0000000
00000001CFFFF7000000
0000000AFFFFFF400000
0000007FFFFFFFE20000
000004FFFF9CFFFC1000
00002EFFD4007FFFA000
00003DF8000002BF9000
00000120000000030000
00000000000000000000
00000000000000000000
00000003689862000000
000017DFFFFFFFC40000
0003DFFFFFFFFFFF8000
004FFFFFFFFFFFFFF800
02EFFFFD5003AFFFFF40
0BFFFFE1000009FFFFD0
3FFFFF60000001EFFFF4
9FFFFF100000009FFFF9
BFFFFD544444338FFFFD
DFFFFFFFFFFFFFFFFFFE
DFFFFFFFFFFFFFFFFFFF
BFFFFEDCCCCBBBAAA999
8FFFFD00000000000000
3FFFFF50000000000040
0AFFFFE4000000003A60
01DFFFFFB632347BFC00
003EFFFFFFFFFFFFD200
0001BFFFFFFFFFFA1000
000004AEFFFFD9300000
00000000233100000000
ENDCHAR
STARTCHAR edieresis
ENCODING 235
SWIDTH 593 0
DWIDTH 21 0
BBX 20 27 1 -3
BITMAP
0000008EE5003DF90000
000003FFFE00CFFF5000
000004FFFF10DFFF6000
000000CFF9006FFD1000
00000005400003510000
00000000000000000000
00000000000000000000
00000003689862000000
000017DFFFFFFFC40000
0003DFFFFFFFFFFF8000
004FFFFFFFFFFFFFF800
02EFFFFD5003AFFFFF40
0BFFFFE1000009FFFFD0
3FFFFF60000001EFFFF4
9FFFFF100000009FFFF9
BFFFFD544444338FFFFD
DFFFFFFFFFFFFFFFFFFE
DFFFFFFFFFFFFFFFFFFF
BFFFFEDCCCCBBBAAA999
8FFFFD00000000000000
3FFFFF50000000000040
0AFFFFE4000000003A60
01DFFFFFB632347BFC00
003EFFFFFFFFFFFFD200
0001BFFFFFFFFFFA1000
000004AEFFFFD9300000
00000000233100000000
ENDCHAR
STARTCHAR igrave
ENCODING 236
SWIDTH 393 0
DWIDTH 14 0
BBX 17 32 -1 -1
BITMAP
000000028800000000
000003AFFE00000000
00002FFFFF40000000
00000AFFFF90000000
000002FFFFE0000000
0000008FFFF4000000
0000001EFFFA000000
00000007FFFB000000
00000001DA30000000
000000000000000000
000000000000000000
000000000000000000
4AAAAAAAAAAA800000
028EFFFFFFFFB00000
00018EFFFFFFA00000
0000019FFFFF900000
0000005FFFFF700000
0000004FFFFF600000
0000004FFFFF500000
0000003FFFFF400000
0000002FFFFF300000
0000002FFFFF200000
0000001FFFFF000000
0000000FFFFE000000
0000000FFFFD000000
0000000EFFFC000000
0000000EFFFB000000
0000007FFFFC100000
00003CFFFFFFE50000
0019FFFFFFFFFFA100
02BCDDDEEEEFFFFD40
000000000000000110
ENDCHAR
STARTCHAR iacute
ENCODING 237
SWIDTH 393 0
DWIDTH 14 0
BBX 17 32 -1 -1
BITMAP
0000000009B4000000
000000000EFFC50000
000000005FFFFB0000
00000000AFFFF30000
00000001EFFFA00000
00000005FFFF200000
0000000AFFF9000000
00000004BFE1000000
000000000240000000
000000000000000000
000000000000000000
000000000000000000
4AAAAAAAAAAA800000
028EFFFFFFFFB00000
00018EFFFFFFA00000
0000019FFFFF900000
0000005FFFFF700000
0000004FFFFF600000
0000004FFFFF500000
0000003FFFFF400000
0000002FFFFF300000
0000002FFFFF200000
0000001FFFFF000000
0000000FFFFE000000
0000000FFFFD000000
0000000EFFFC000000
0000000EFFFB000000
0000007FFFFC100000
00003CFFFFFFE50000
0019FFFFFFFFFFA100
02BCDDDEEEEFFFFD40
000000000000000110
ENDCHAR
STARTCHAR icircumflex
ENCODING 238
SWIDTH 393 0
DWIDTH 14 0
BBX 17 33 -1 -1
BITMAP
000000001200000000
00000001CF50000000
0000000AFFE3000000
0000007FFFFD100000
000004FFFFFFA00000
00002EFFFFFFF70000
0000CFFFD9FFFF4000
0009FFF8003DFFE200
0009FB2000007FD300
000030000000021000
000000000000000000
000000000000000000
000000000000000000
4AAAAAAAAAAA800000
028EFFFFFFFFB00000
00018EFFFFFFA00000
0000019FFFFF900000
0000005FFFFF700000
0000004FFFFF600000
0000004FFFFF500000
0000003FFFFF400000
0000002FFFFF300000
0000002FFFFF200000
0000001FFFFF000000
0000000FFFFE000000
0000000FFFFD000000
0000000EFFFC000000
0000000EFFFB000000
0000007FFFFC100000
00003CFFFFFFE50000
0019FFFFFFFFFFA100
02BCDDDEEEEFFFFD40
000000000000000110
ENDCHAR
STARTCHAR idieresis
ENCODING 239
SWIDTH 393 0
DWIDTH 14 0
BBX 17 28 -1 -1
BITMAP
00001AFC2006EE6000
00007FFFB01FFFF200
00008FFFC02FFFF200
00002EFF500AFFA000
000001520000440000
000000000000000000
000000000000000000
000000000000000000
4AAAAAAAAAAA800000
028EFFFFFFFFB00000
00018EFFFFFFA00000
0000019FFFFF900000
0000005FFFFF700000
0000004FFFFF600000
0000004FFFFF500000
0000003FFFFF400000
0000002FFFFF300000
0000002FFFFF200000
0000001FFFFF000000
0000000FFFFE000000
0000000FFFFD000000
0000000EFFFC000000
0000000EFFFB000000
0000007FFFFC100000
00003CFFFFFFE50000
0019FFFFFFFFFFA100
02BCDDDEEEEFFFFD40
000000000000000110
ENDCHAR
STARTCHAR eth
ENCODING 240
SWIDTH 672 0
DWIDTH 24 0
BBX 26 34 -1 -4
BITMAP
00002000000000000000000000
000017A6100000000000170000
0000002BFA3000000006EF7000
000000007FFA200002BFFFF300
0000000004EFF7008FFFFFC200
00000000003EFFCDFFFFF70000
000000000002DFFFFFFD300000
000000000006EFFFFF91000000
0000000002BFFFFFFF80000000
000000018FFFFFFFFFF6000000
0000002DFFFFFF7BFFFF500000
0000000BFFFFD303FFFFF30000
00000001DFF910009FFFFC0000
000000002D5000001EFFFF7000
000000000000000009FFFFE100
000000000000000003FFFFF800
000000037ACEFFFEB8EFFFFE00
000017DFFFFFFFFFFFFFFFFF40
0004DFFFFFFFEDEFFFFFFFFF90
005FFFFFFC6200039FFFFFFFD0
03FFFFFF7000000004FFFFFFF1
0BFFFFF700000000006FFFFFF2
1FFFFFD000000000000DFFFFF3
4FFFFF80000000000009FFFFF2
5FFFFF70000000000008FFFFF1
5FFFFF80000000000009FFFFE0
2FFFFFB000000000000CFFFFA0
0CFFFFF200000000003FFFFF40
05FFFFFB0000000001CFFFFB00
008FFFFFB20000003CFFFFE200
0008FFFFFFB8679CFFFFFD2000
00004CFFFFFFFFFFFFFF910000
00000049EFFFFFFFFD82000000
00000000024676541000000000
ENDCHAR
STARTCHAR ntilde
ENCODING 241
SWIDTH 643 0
DWIDTH 23 0
BBX 30 26 -4 2
BITMAP
000000000000047520000260000000
000000000003DFFFFB516E80000000
000000000006FFFFFFFFFF80000000
000000000006FFFFFFFFFF80000000
000000000006FEBDFFFFFF80000000
000000000006C2005BFFFA20000000
000000000002100000010000000000
000000000000000000000000000000
000000000013683000000000000000
00001368BDFFFF416AEFEC81000000
17BDFFFFFFFFFFBFFFFFFFFE500000
0049DFFFFFFFFFFFFFFFFFFFF30000
0000027BFFFFFFFFEDEFFFFFFB0000
00000000AFFFFFC30004DFFFFF1000
000000008FFFFF1000004FFFFF3000
000000006FFFFD0000000DFFFF4000
000000005FFFFB0000000AFFFF4000
000000003FFFF900000009FFFF3000
000000001FFFF800000009FFFF1000
000000000EFFF600000009FFFE0000
000000000CFFF400000009FFFC0000
000000004DFFFA10000009FFFA0000
0000017DFFFFFFE7100009FFF80000
00017CCCCCCCCCCBA3016DFFFA2000
000000000000000004AFFFFFFFF920
0000000000000004ABBBBBBBBBBAA4
ENDCHAR
STARTCHAR ograve
ENCODING 242
SWIDTH 705 0
DWIDTH 25 0
BBX 25 30 0 -1
BITMAP
00000000000017A00000000000
000000000029EFF10000000000
0000000001EFFFF60000000000
00000000007FFFFC0000000000
00000000001DFFFF2000000000
000000000006FFFF7000000000
000000000000DFFFC000000000
0000000000005FFFD100000000
0000000000000BB40000000000
00000000000000000000000000
00000000000000000000000000
00000000000222200000000000
00000037BDFFFFFFC940000000
00004CFFFFFFFFFFFFFE700000
001AFFFFFFFDBACFFFFFFC2000
00BFFFFFE72000029FFFFFE200
09FFFFFC2000000006FFFFFD00
2FFFFFE200000000009FFFFF60
6FFFFF7000000000002FFFFFC0
9FFFFF3000000000000DFFFFE0
9FFFFF2000000000000CFFFFF0
9FFFFF4000000000000DFFFFE0
6FFFFF7000000000001FFFFFC0
1EFFFFD000000000008FFFFF60
07FFFFF90000000004FFFFFC00
00AFFFFFB20000018FFFFFD200
0009FFFFFFC99ACFFFFFFB2000
00004CFFFFFFFFFFFFFD600000
00000038CFFFFFFFC840000000
00000000002343200000000000
ENDCHAR
STARTCHAR oacute
ENCODING 243
SWIDTH 705 0
DWIDTH 25 0
BBX 25 29 0 -1
BITMAP
0000000000005D600000000000
000000000000AFFE7100000000
000000000001FFFFE100000000
000000000005FFFF8000000000
00000000000BFFFE1000000000
00000000001FFFF60000000000
00000000006FFFD00000000000
000000000029EF500000000000
00000000000016000000000000
00000000000000000000000000
00000000000222200000000000
00000037BDFFFFFFC940000000
00004CFFFFFFFFFFFFFE700000
001AFFFFFFFDBACFFFFFFC2000
00BFFFFFE72000029FFFFFE200
09FFFFFC2000000006FFFFFD00
2FFFFFE200000000009FFFFF60
6FFFFF7000000000002FFFFFC0
9FFFFF3000000000000DFFFFE0
9FFFFF2000000000000CFFFFF0
9FFFFF4000000000000DFFFFE0
6FFFFF7000000000001FFFFFC0
1EFFFFD000000000008FFFFF60
07FFFFF90000000004FFFFFC00
00AFFFFFB20000018FFFFFD200
0009FFFFFFC99ACFFFFFFB2000
00004CFFFFFFFFFFFFFD600000
00000038CFFFFFFFC840000000
00000000002343200000000000
ENDCHAR
STARTCHAR ocircumflex
ENCODING 244
SWIDTH 705 0
DWIDTH 25 0
BBX 25 30 0 -1
BITMAP
00000000000012000000000000
000000000001CF500000000000
00000000000AFFE30000000000
00000000007FFFFD1000000000
0000000004FFFFFFB000000000
000000002EFFFFFFF800000000
00000000CFFFD9FFFF50000000
00000009FFF8003CFFE2000000
00000009FC2000007FD3000000
00000000300000000210000000
00000000000000000000000000
00000000000222200000000000
00000037BDFFFFFFC940000000
00004CFFFFFFFFFFFFFE700000
001AFFFFFFFDBACFFFFFFC2000
00BFFFFFE72000029FFFFFE200
09FFFFFC2000000006FFFFFD00
2FFFFFE200000000009FFFFF60
6FFFFF7000000000002FFFFFC0
9FFFFF3000000000000DFFFFE0
9FFFFF2000000000000CFFFFF0
9FFFFF4000000000000DFFFFE0
6FFFFF7000000000001FFFFFC0
1EFFFFD000000000008FFFFF60
07FFFFF90000000004FFFFFC00
00AFFFFFB20000018FFFFFD200
0009FFFFFFC99ACFFFFFFB2000
00004CFFFFFFFFFFFFFD600000
00000038CFFFFFFFC840000000
00000000002343200000000000
ENDCHAR
STARTCHAR otilde
ENCODING 245
SWIDTH 705 0
DWIDTH 25 0
BBX 25 28 0 -1
BITMAP
00000000026630000080000000
00000000BFFFFD724CE0000000
00000000FFFFFFFFFFE0000000
00000000FFFFFFFFFFE0000000
00000000FFCCFFFFFFE0000000
00000000E50029EFFC50000000
00000000300000011000000000
00000000000000000000000000
00000000000000000000000000
00000000000222200000000000
00000037BDFFFFFFC940000000
00004CFFFFFFFFFFFFFE700000
001AFFFFFFFDBACFFFFFFC2000
00BFFFFFE72000029FFFFFE200
09FFFFFC2000000006FFFFFD00
2FFFFFE200000000009FFFFF60
6FFFFF7000000000002FFFFFC0
9FFFFF3000000000000DFFFFE0
9FFFFF2000000000000CFFFFF0
9FFFFF4000000000000DFFFFE0
6FFFFF7000000000001FFFFFC0
1EFFFFD000000000008FFFFF60
07FFFFF90000000004FFFFFC00
00AFFFFFB20000018FFFFFD200
0009FFFFFFC99ACFFFFFFB2000
00004CFFFFFFFFFFFFFD600000
00000038CFFFFFFFC840000000
00000000002343200000000000
ENDCHAR
STARTCHAR odieresis
ENCODING 246
SWIDTH 705 0
DWIDTH 25 0
BBX 25 26 0 -1
BITMAP
000000003DF9000AFC20000000
00000000CFFF506FFFB0000000
00000000DFFF607FFFC0000000
000000007FFD102EFF50000000
00000000035100015300000000
00000000000000000000000000
00000000000000000000000000
00000000000222200000000000
00000037BDFFFFFFC940000000
00004CFFFFFFFFFFFFFE700000
001AFFFFFFFDBACFFFFFFC2000
00BFFFFFE72000029FFFFFE200
09FFFFFC2000000006FFFFFD00
2FFFFFE200000000009FFFFF60
6FFFFF7000000000002FFFFFC0
9FFFFF3000000000000DFFFFE0
9FFFFF2000000000000CFFFFF0
9FFFFF4000000000000DFFFFE0
6FFFFF7000000000001FFFFFC0
1EFFFFD000000000008FFFFF60
07FFFFF90000000004FFFFFC00
00AFFFFFB20000018FFFFFD200
0009FFFFFFC99ACFFFFFFB2000
00004CFFFFFFFFFFFFFD600000
00000038CFFFFFFFC840000000
00000000002343200000000000
ENDCHAR
STARTCHAR divide
ENCODING 247
SWIDTH 504 0
DWIDTH 18 0
BBX 18 22 0 -1
BITMAP
000000005761000000
0000003DFFFE400000
000000DFFFFFE10000
000001FFFFFFF40000
000000EFFFFFF20000
0000004EFFFF700000
000000016872000000
000000000000000000
9EEDCBA99876544321
9FFFFFFFFFFFFFFFFC
9FFFFFFFFFFFFFFFFB
9FFFFFFFFFFFFFFFFB
9FFFFFFFFFFFFFFFE9
466554433221110000
000000000000000000
00000005AB82000000
000000AFFFFE300000
000004FFFFFFD00000
000006FFFFFFF00000
000002FFFFFFB00000
0000004DFFFB100000
000000003420000000
ENDCHAR
STARTCHAR oslash
ENCODING 248
SWIDTH 705 0
DWIDTH 25 0
BBX 25 27 0 -5
BITMAP
00000000000000000191000000
000000000000000009FE600000
00000000000000002FFFFB1000
0000000000000000BFFFFD1000
0000000000022325FFFFF50000
00000037BDFFFFFFFFFFB00000
00004CFFFFFFFFFFFFFF800000
001AFFFFFFFDBBFFFFFFFC2000
00BFFFFFE72009FFFFFFFFD200
09FFFFFC20003FFFFFFFFFFD00
2FFFFFE20000BFFFF99FFFFF60
6FFFFF700005FFFFE12FFFFFB0
9FFFFF30001DFFFF600DFFFFE0
9FFFFF20008FFFFB000CFFFFF0
8FFFFF4002EFFFF2000DFFFFE0
5FFFFF800AFFFF80001FFFFFC0
1EFFFFE14FFFFD00008FFFFF60
07FFFFFACFFFF40004FFFFFC00
009FFFFFFFFFA0018FFFFFD200
0008FFFFFFFFAACFFFFFFB2000
00003BFFFFFFFFFFFFFD600000
000002FFFFFFFFFFC840000000
00000AFFFF4443200000000000
00004FFFF80000000000000000
0000AFFFD10000000000000000
000007EF500000000000000000
00000017000000000000000000
ENDCHAR
STARTCHAR ugrave
ENCODING 249
SWIDTH 614 0
DWIDTH 22 0
BBX 28 31 -3 -2
BITMAP
00000000000016B0000000000000
000000000018EFF3000000000000
0000000000DFFFF8000000000000
00000000005FFFFD000000000000
00000000000CFFFF400000000000
000000000004FFFF900000000000
000000000000BFFFE00000000000
0000000000003FFFD20000000000
0000000000000AB5000000000000
0000000000000000000000000000
0000000000000000000000000000
6AAAAAAABBB10111111222222000
05DFFFFFFFF006DFFFFFFFFF9000
0007EFFFFFE00005CFFFFFFF7000
00001CFFFFC0000005CFFFFF5000
00000BFFFFB00000002FFFFF2000
00000BFFFF900000002FFFFF0000
00000BFFFF700000003FFFFC0000
00000BFFFF600000004FFFFA0000
00000CFFFF500000005FFFF80000
00000CFFFF400000005FFFF50000
00000BFFFF400000006FFFF30000
00000AFFFF400000007FFFF10000
000008FFFF600000008FFFD00000
000005FFFFC0000002DFFFB00000
000000EFFFFA20016EFFFF800000
0000007FFFFFFEDFFFFFFF700000
00000009FFFFFFFFFFDFFFFB6100
000000005CFFFFFFD59FFFFFFFA4
0000000000145652009FFFEB8530
0000000000000000006742000000
ENDCHAR
STARTCHAR uacute
ENCODING 250
SWIDTH 614 0
DWIDTH 22 0
BBX 28 31 -3 -2
BITMAP
00000000000000BA300000000000
00000000000001FFFB4000000000
00000000000006FFFFA000000000
0000000000000CFFFF2000000000
0000000000002FFFF80000000000
0000000000007FFFE10000000000
000000000000CFFF700000000000
0000000000005CFD000000000000
0000000000000034000000000000
0000000000000000000000000000
0000000000000000000000000000
6AAAAAAABBB10111111222222000
05DFFFFFFFF006DFFFFFFFFF9000
0007EFFFFFE00005CFFFFFFF7000
00001CFFFFC0000005CFFFFF5000
00000BFFFFB00000002FFFFF2000
00000BFFFF900000002FFFFF0000
00000BFFFF700000003FFFFC0000
00000BFFFF600000004FFFFA0000
00000CFFFF500000005FFFF80000
00000CFFFF400000005FFFF50000
00000BFFFF400000006FFFF30000
00000AFFFF400000007FFFF10000
000008FFFF600000008FFFD00000
000005FFFFC0000002DFFFB00000
000000EFFFFA20016EFFFF800000
0000007FFFFFFEDFFFFFFF700000
00000009FFFFFFFFFFDFFFFB6100
000000005CFFFFFFD59FFFFFFFA4
0000000000145652009FFFEB8530
0000000000000000006742000000
ENDCHAR
STARTCHAR ucircumflex
ENCODING 251
SWIDTH 614 0
DWIDTH 22 0
BBX 28 32 -3 -2
BITMAP
0000000000000030000000000000
0000000000000AF9000000000000
0000000000006FFF500000000000
000000000004FFFFE30000000000
00000000002EFFFFFD1000000000
0000000000CFFFFFFFB000000000
0000000009FFFE9EFFF800000000
000000006FFFA102BFFF50000000
000000006FD4000005EE50000000
0000000003100000001200000000
0000000000000000000000000000
0000000000000000000000000000
6AAAAAAABBB10111111222222000
05DFFFFFFFF006DFFFFFFFFF9000
0007EFFFFFE00005CFFFFFFF7000
00001CFFFFC0000005CFFFFF5000
00000BFFFFB00000002FFFFF2000
00000BFFFF900000002FFFFF0000
00000BFFFF700000003FFFFC0000
00000BFFFF600000004FFFFA0000
00000CFFFF500000005FFFF80000
00000CFFFF400000005FFFF50000
00000BFFFF400000006FFFF30000
00000AFFFF400000007FFFF10000
000008FFFF600000008FFFD00000
000005FFFFC0000002DFFFB00000
000000EFFFFA20016EFFFF800000
0000007FFFFFFEDFFFFFFF700000
00000009FFFFFFFFFFDFFFFB6100
000000005CFFFFFFD59FFFFFFFA4
0000000000145652009FFFEB8530
0000000000000000006742000000
ENDCHAR
STARTCHAR udieresis
ENCODING 252
SWIDTH 614 0
DWIDTH 22 0
BBX 28 27 -3 -2
BITMAP
0000000009ED4004DE8000000000
000000004FFFD00DFFF400000000
000000005FFFE00EFFF500000000
000000001DFF7007FFC100000000
0000000001530000351000000000
0000000000000000000000000000
0000000000000000000000000000
6AAAAAAABBB10111111222222000
05DFFFFFFFF006DFFFFFFFFF9000
0007EFFFFFE00005CFFFFFFF7000
00001CFFFFC0000005CFFFFF5000
00000BFFFFB00000002FFFFF2000
00000BFFFF900000002FFFFF0000
00000BFFFF700000003FFFFC0000
00000BFFFF600000004FFFFA0000
00000CFFFF500000005FFFF80000
00000CFFFF400000005FFFF50000
00000BFFFF400000006FFFF30000
00000AFFFF400000007FFFF10000
000008FFFF600000008FFFD00000
000005FFFFC0000002DFFFB00000
000000EFFFFA20016EFFFF800000
0000007FFFFFFEDFFFFFFF700000
00000009FFFFFFFFFFDFFFFB6100
000000005CFFFFFFD59FFFFFFFA4
0000000000145652009FFFEB8530
0000000000000000006742000000
ENDCHAR
STARTCHAR yacute
ENCODING 253
SWIDTH 655 0
DWIDTH 24 0
BBX 25 47 -2 -17
BITMAP
0000000000000BA30000000000
0000000000001FFFB400000000
0000000000006FFFFA00000000
000000000000CFFFF200000000
000000000002FFFF8000000000
000000000007FFFE1000000000
00000000000CFFF70000000000
000000000005CFD00000000000
00000000000003400000000000
00000000000000000000000000
52000000000000000000000000
2EC71000000000000000000000
03EFFB6100017BA87532000000
004FFFFFB61004DFFFFFFECA50
0005FFFFFFF90018FFFFFFFF70
00007FFFFFF800003DFFFFFF60
00005FFFFFF3000000CFFFFF60
00009FFFFFE0000000BFFFFF50
0000EFFFFF90000000BFFFFF40
0003FFFFFF40000000BFFFFF40
0007FFFFFF10000000BFFFFF30
000AFFFFFB00000000CFFFFF20
000BFFFFFA00000000CFFFFF20
0009FFFFFD00000000CFFFFF10
0006FFFFFF80000000CFFFFF10
0001EFFFFFFC63346AFFFFFF00
00006FFFFFFFFFFFFFFFFFFE00
000006FFFFFFFFFFFFFFFFFE00
00000029EFFFFFFEA7EFFFFD00
000000000245542000FFFFFC00
000000000000000000FFFFFC00
000000000000000000FFFFFB00
000000000000000001FFFFFB00
000000000000000001FFFFFA00
000000000000000003FFFFF900
000000000000000004FFFFF800
00003BD91000000006FFFFF600
0002EFFFA000000009FFFFF300
0007FFFFF10000000CFFFFE000
0008FFFFE00000002FFFFFA000
0006FFFF500000009FFFFF3000
0001FFFE20000005FFFFFA0000
00008FFFE720018FFFFFD10000
00000AFFFFFEEFFFFFFD200000
0000007EFFFFFFFFFF91000000
000000017CFFFFFC8200000000
00000000000221000000000000
ENDCHAR
STARTCHAR thorn
ENCODING 254
SWIDTH 734 0
DWIDTH 26 0
BBX 30 40 -3 -15
BITMAP
5CCCCCCCCCCCCC1000000000000000
017EFFFFFFFFFF2000000000000000
00017EFFFFFFFF2000000000000000
0000017DFFFFFF2000000000000000
00000000EFFFFF2000000000000000
00000000EFFFFF2000000000000000
00000000DFFFFF2000000000000000
00000000DFFFFF2000000000000000
00000000CFFFFF2000000000000000
00000000CFFFFF2000000000000000
00000000BFFFFF2000000000000000
00000000BFFFFF2000000000000000
00000000BFFFFF2000000000000000
00000000AFFFFF3589AA9851000000
00000000AFFFFFFFFFFFFFFFB40000
000000009FFFFFFFFFFFFFFFFFA100
000000009FFFFFD853358EFFFFFC10
000000008FFFFF200000018FFFFFA0
000000008FFFFF2000000008FFFFF2
000000008FFFFF2000000000EFFFF8
000000007FFFFF2000000000AFFFFA
000000007FFFFF20000000009FFFFC
000000006FFFFF2000000000BFFFFA
000000006FFFFF2000000001EFFFF8
000000005FFFFF2000000009FFFFF3
000000005FFFFF400000008FFFFFA0
000000005FFFFFFD97669DFFFFFD10
000000004FFFFFFFFFFFFFFFFFC100
000000004FFFFFEFFFFFFFFFD60000
000000003FFFFF3479ACCB84000000
000000003FFFFF3000000000000000
000000002FFFFF4000000000000000
000000002FFFFF4000000000000000
000000002FFFFF4000000000000000
000000001FFFFF4000000000000000
000000001FFFFF5000000000000000
000000005FFFFFC500000000000000
0000017DFFFFFFFFE8200000000000
00028EFFFFFFFFFFFFFA4000000000
028DDCCBAA98877655433100000000
ENDCHAR
STARTCHAR ydieresis
ENCODING 255
SWIDTH 655 0
DWIDTH 24 0
BBX 25 43 -2 -17
BITMAP
000000009ED4004DE800000000
00000004FFFD00DFFF40000000
00000005FFFE00EFFF50000000
00000001DFF7007FFC10000000
00000000153000035100000000
00000000000000000000000000
52000000000000000000000000
2EC71000000000000000000000
03EFFB6100017BA87532000000
004FFFFFB61004DFFFFFFECA50
0005FFFFFFF90018FFFFFFFF70
00007FFFFFF800003DFFFFFF60
00005FFFFFF3000000CFFFFF60
00009FFFFFE0000000BFFFFF50
0000EFFFFF90000000BFFFFF40
0003FFFFFF40000000BFFFFF40
0007FFFFFF10000000BFFFFF30
000AFFFFFB00000000CFFFFF20
000BFFFFFA00000000CFFFFF20
0009FFFFFD00000000CFFFFF10
0006FFFFFF80000000CFFFFF10
0001EFFFFFFC63346AFFFFFF00
00006FFFFFFFFFFFFFFFFFFE00
000006FFFFFFFFFFFFFFFFFE00
00000029EFFFFFFEA7EFFFFD00
000000000245542000FFFFFC00
000000000000000000FFFFFC00
000000000000000000FFFFFB00
000000000000000001FFFFFB00
000000000000000001FFFFFA00
000000000000000003FFFFF900
000000000000000004FFFFF800
00003BD91000000006FFFFF600
0002EFFFA000000009FFFFF300
0007FFFFF10000000CFFFFE000
0008FFFFE00000002FFFFFA000
0006FFFF500000009FFFFF3000
0001FFFE20000005FFFFFA0000
00008FFFE720018FFFFFD10000
00000AFFFFFEEFFFFFFD200000
0000007EFFFFFFFFFF91000000
000000017CFFFFFC8200000000
00000000000221000000000000
ENDCHAR
STARTCHAR dotlessi
ENCODING 305
SWIDTH 393 0
DWIDTH 14 0
BBX 17 20 -1 -1
BITMAP
4AAAAAAAAAAA800000
028EFFFFFFFFB00000
00018EFFFFFFA00000
0000019FFFFF900000
0000005FFFFF700000
0000004FFFFF600000
0000004FFFFF500000
0000003FFFFF400000
0000002FFFFF300000
0000002FFFFF200000
0000001FFFFF000000
0000000FFFFE000000
0000000FFFFD000000
0000000EFFFC000000
0000000EFFFB000000
0000007FFFFC100000
00003CFFFFFFE50000
0019FFFFFFFFFFA100
02BCDDDEEEEFFFFD40
000000000000000110
ENDCHAR
STARTCHAR Lslash
ENCODING 321
SWIDTH 713 0
DWIDTH 26 0
BBX 29 29 -3 0
BITMAP
344444444444444444444440000000
16CFFFFFFFFFFFFFFFFFE710000000
00039EFFFFFFFFFFFFC50000000000
0000005BFFFFFFFF93000000000000
000000008FFFFFF600000000000000
000000007FFFFFF500000000000000
000000006FFFFFF500000000000000
000000005FFFFFF500000000000000
000000005FFFFFF401810000000000
000000004FFFFFF69FF70000000000
000000003FFFFFFFFFFE0000000000
000000002FFFFFFFFFFF6000000000
000000001FFFFFFFFFFFD000000000
00000005CFFFFFFFFFE71000000040
000005DFFFFFFFFFC5000000000550
0005DFFFFFFFFFF400000000000B50
0006FFFFFFFFFFF200000000002F50
0000EFFFFFFFFFF200000000008F50
00008FE93CFFFFF20000000000DF50
000016100BFFFFF20000000004FF50
000000000AFFFFF1000000000AFF50
0000000009FFFFF1000000001FFF50
0000000009FFFFF1000000007FFF50
0000000008FFFFF100000000DFFF50
0000000008FFFFF554433224FFFF50
00000005CFFFFFFFFFFFFFFFFFFF50
000005CFFFFFFFFFFFFFFFFFFFFF50
0006DFFFFFFFFFFFFFFEEDCCBAA930
028A98876655433211000000000000
ENDCHAR
STARTCHAR lslash
ENCODING 322
SWIDTH 365 0
DWIDTH 13 0
BBX 20 34 -4 -3
BITMAP
5ACCCCCCDDDDDD300000
005BFFFFFFFFFF300000
000027DFFFFFFF300000
00000006FFFFFF200000
00000003FFFFFF200000
00000003FFFFFF100000
00000002FFFFFF100000
00000001FFFFFF000000
00000000FFFFFF000000
00000000FFFFFE000000
00000000EFFFFE017D30
00000000DFFFFEAFFF90
00000000DFFFFFFFFFE0
00000000CFFFFFFFFFD2
0000016CFFFFFFFFD600
00039EFFFFFFFFD60000
008FFFFFFFFFFB000000
004FFFFFFFFFF9000000
000DFFFFFFFFF9000000
0007FFD68FFFF8000000
0001D6007FFFF8000000
000000006FFFF7000000
000000006FFFF7000000
000000005FFFF6000000
000000005FFFF6000000
000000004FFFF5000000
000000003FFFF5000000
000000003FFFF4000000
000000002FFFF4000000
000000002FFFF4000000
00000003CFFFFE700000
0000008FFFFFFFFC3000
00003DFFFFFFFFFFF910
0004AA99887665543310
ENDCHAR
STARTCHAR OE
ENCODING 338
SWIDTH 1195 0
DWIDTH 43 0
BBX 42 27 0 -1
BITMAP
0000000000000000000000000000023456789BCDE9
00000000000000012345689ABCDEFFFFFFFFFFFFF8
00000000000039EFFFFFFFFFFFFFFFFFFFFFFFFFF8
00000000000000159EFFFFFFFFFFFFECBA976CFFF7
00000000000000000049DFFFFFFF2000000004FFF7
000000000133431000000DFFFFFF0000000000DFF6
0000005ADFFFFFFD94000CFFFFFF00000030007FF6
00006DFFFFFFFFFFFFC30CFFFFFF00000460001EF5
001AFFFFFFDA9BFFFFFF6CFFFFFE00000C600009F4
00BFFFFFC400002BFFFFFEFFFFFE00004F500002F4
07FFFFFA00000000BFFFFFFFFFFE0000BF500000B3
1EFFFFD0000000001EFFFFFFFFFD0004FF50000043
5FFFFF500000000009FFFFFFFFFD000BFF40000001
8FFFFF100000000005FFFFFFFFFE89AFFF40000010
9FFFFE000000000003FFFFFFFFFFFFFFFF40000050
9FFFFE000000000003FFFFFFFFFFFFFFFF40000190
7FFFFF100000000005FFFFFFFFFFFFFFFF300005A0
5FFFFF400000000008FFFFFFFFFA124FFF30000AA0
0EFFFFA0000000000EFFFFFFFFFA0008FF30000EA0
07FFFFF4000000009FFFFFFFFFFA0001DF20004FA0
00BFFFFE40000019FFFFFBFFFFF900004F20009FA0
001BFFFFFB7679EFFFFF65FFFFF900000A2000EFA0
00008FFFFFFFFFFFFFC305FFFFF90000011004FFA0
0000028DFFFFFFFFB50018FFFFFA334444444AFFA0
0000000025777541004AFFFFFFFFFFFFFFFFFFFFB0
00000000000000028DFFFFFFFFFFFFFFFFFFFFFFB0
000000000000039CCCCCCCCCBBBBBBBBBAAAAAAA70
ENDCHAR
STARTCHAR oe
ENCODING 339
SWIDTH 1087 0
DWIDTH 39 0
BBX 39 20 0 -3
BITMAP
0000000024565420000000000000000000000000
000005AEFFFFFFFD92000000269BCCB730000000
0003CFFFFFFFFFFFFFA1005BFFFFFFFFFC400000
006FFFFFFB766AFFFFFD3AFFFFFFFFFFFFF70000
04FFFFFC3000002CFFFFFFFFFFEA9BEFFFFF7000
0DFFFFB000000001DFFFFFFFF900001BFFFFF400
4FFFFF20000000005FFFFFFFB0000000CFFFFC00
8FFFFA00000000001FFFFFFF300000005FFFFF30
9FFFF800000000000DFFFFFD000000000FFFFF80
9FFFF800000000000DFFFFFEDDDCCCCCCFFFFFA0
7FFFFA00000000001FFFFFFFFFFFFFFFFFFFFFC0
3FFFFE10000000005FFFFFFFFFFFFFFFFFFFFEB0
0BFFFF9000000001DFFFFFFC3222211110000000
02EFFFF80000002CFFFFFFFF3000000000000200
003EFFFFD8667BFFFFFFFFFFD20000000002B300
0002AFFFFFFFFFFFFE66FFFFFFA4200147BF9000
0000038DFFFFFFEB61006FFFFFFFFFFFFFFA0000
0000000014554200000004DFFFFFFFFFFE600000
000000000000000000000005AEFFFFEB61000000
0000000000000000000000000023320000000000
ENDCHAR
STARTCHAR Scaron
ENCODING 352
SWIDTH 661 0
DWIDTH 24 0
BBX 24 40 0 -4
BITMAP
000000030000000021000000
0000009FB2000007FD200000
000000AFFE7003DFFE200000
0000001DFFFC9FFFF4000000
00000002EFFFFFFF70000000
000000005FFFFFFA00000000
0000000008FFFFD100000000
0000000000BFFE2000000000
00000000001DF50000000000
000000000001300000000000
000000000000000000000000
000000000000000000000090
0000000357776510000007D0
00004AEFFFFFFFFD82004FC0
001BFFFFFFFFFFFFFF94EFA0
01DFFFFFD8668BFFFFFFFF80
0BFFFFE500000017EFFFFF60
3FFFFF50000000001AFFFF50
7FFFFF4000000000006FFF30
9FFFFFC3000000000005FF10
8FFFFFFFA510000000007F00
5FFFFFFFFFFD951000000800
0DFFFFFFFFFFFFFC71000000
02EFFFFFFFFFFFFFFE910000
002CFFFFFFFFFFFFFFFE6000
00005CFFFFFFFFFFFFFFF800
00000027AEFFFFFFFFFFFF70
003000000026BFFFFFFFFFE1
005500000000028FFFFFFFF5
006D000000000003EFFFFFF6
008F9000000000006FFFFFF6
009FF800000000003FFFFFF2
00BFFFB200000000AFFFFFB0
00CFFFFF9510026CFFFFFD10
00EFBFFFFFFFFFFFFFFFB200
00FD03BFFFFFFFFFFFD60000
01F500027BEFFFEB84000000
03D000000000100000000000
046000000000000000000000
040000000000000000000000
ENDCHAR
STARTCHAR scaron
ENCODING 353
SWIDTH 533 0
DWIDTH 19 0
BBX 20 34 0 -1
BITMAP
00000300000000110000
00007FC3000006EE4000
00008FFF9102BFFF4000
00000BFFFD9FFFF70000
000001DFFFFFFFA00000
0000003EFFFFFC100000
00000005FFFFE2000000
000000008FFF40000000
000000000BF800000000
00000000013000000000
00000000000000000000
00000000100000000510
000039DFFFD950000D00
0019FFFFFFFFFC406F00
00CFFFFFEFFFFFF7DE00
08FFFF710039FFFFFE00
1EFFFA0000002BFFFD00
3FFFFB00000000AFFC00
4FFFFFA10000000AFC00
1FFFFFFF94000000CB00
0AFFFFFFFFE940002A00
01DFFFFFFFFFFC600200
001CFFFFFFFFFFFD5000
01006EFFFFFFFFFFF800
0550017DFFFFFFFFFF60
06D1000038DFFFFFFFD0
08FB00000004CFFFFFF2
09FFB100000008FFFFF2
0BFFFD40000003FFFFF0
0CFFFFFC63114CFFFF90
0EFFFFFFFFFFFFFFFC10
0FE37EFFFFFFFFFF9100
2F400048ACDDC9610000
36000000000000000000
ENDCHAR
STARTCHAR Ydieresis
ENCODING 376
SWIDTH 848 0
DWIDTH 31 0
BBX 38 33 -5 -3
BITMAP
00000000000000004DE8001BFC200000000000
0000000000000000EFFF308FFF900000000000
0000000000000000FFFF409FFFA00000000000
00000000000000008FFC003EFF400000000000
00000000000000000451000252000000000000
00000000000000000000000000000000000000
00000000001223455673000000000000000000
17ABCCDEFFFFFFFFFE50000000000000000000
0039EFFFFFFFFFFF9100001211000000000000
000005AFFFFFFFF900000018FFFFEDDCCBBA94
000000016CFFFFFF500000002BFFFFFFFFE820
0000000001CFFFFFE3000000005DFFFFC50000
00000000002DFFFFFD100000001CFFA3000000
000000000003EFFFFFC0000001CFF800000000
0000000000004FFFFFFA00001CFFA000000000
00000000000006FFFFFF7001CFFB0000000000
000000000000008FFFFFF51CFFC10000000000
0000000000000009FFFFFECFFD100000000000
0000000000000000BFFFFFFFD2000000000000
00000000000000001CFFFFFE30000000000000
000000000000000002DFFFF500000000000000
000000000000000000BFFFF500000000000000
000000000000000000BFFFF700000000000000
000000000000000000CFFFF800000000000000
000000000000000000CFFFFA00000000000000
000000000000000000DFFFFB00000000000000
000000000000000000EFFFFC00000000000000
000000000000000000EFFFFE00000000000000
000000000000000000FFFFFF00000000000000
000000000000000005FFFFFFA4000000000000
0000000000000017DFFFFFFFFFE94000000000
00000000000029EFFFFFFFFFFFFFFD83000000
00000000000377777777776666666666300000
ENDCHAR
STARTCHAR Zcaron
ENCODING 381
SWIDTH 685 0
DWIDTH 25 0
BBX 26 34 0 0
BITMAP
00000000300000000210000000
00000008FB2000007ED3000000
0000000AFFF8003CFFE2000000
00000001CFFFD9FFFF50000000
000000002EFFFFFFF800000000
0000000004FFFFFFB000000000
00000000007FFFFD1000000000
00000000000AFFF30000000000
000000000001DF600000000000
00000000000013000000000000
00000000000000000000000000
00000000000000000000000000
2667788899AAABBCCCDDEEEFF7
4FFFFFFFFFFFFFFFFFFFFFFFA0
0EFFFFFFFFFFFFFFFFFFFFFD10
0AFFFDCBBAA9988DFFFFFFE300
06FFF3000000007FFFFFFF5000
02FFF000000004FFFFFFF80000
00DFC00000003EFFFFFFB00000
009F90000001DFFFFFFE100000
005F6000001CFFFFFFF3000000
001F300000AFFFFFFF60000010
000C100008FFFFFFFA00000530
000600006FFFFFFFC100000D30
00000004FFFFFFFE2000006F20
0000002EFFFFFFF5000001EF10
000001DFFFFFFF80000008FF00
00000BFFFFFFFB0000001EFE00
00009FFFFFFFD10000009FFE00
0007FFFFFFFF30000002FFFD00
005FFFFFFFFFEDDCCBACFFFC00
03FFFFFFFFFFFFFFFFFFFFFB00
2EFFFFFFFFFFFFFFFFFFFFFA00
23444444455555556666666400
ENDCHAR
STARTCHAR zcaron
ENCODING 382
SWIDTH 549 0
DWIDTH 20 0
BBX 22 33 0 -1
BITMAP
0000012000000003000000
00003DE7000002BF800000
00003EFFC3008FFF900000
000005FFFF9DFFFC000000
0000008FFFFFFFE2000000
0000000BFFFFFF40000000
00000001DFFFF700000000
000000003FFFA000000000
0000000006FD1000000000
0000000000310000000000
0000000000000000000000
0000000000000000000000
0000000000000000000000
2556677788999AAABBCCB1
5FFFFFFFFFFFFFFFFFFF40
2FFFFFFFFFFFFFFFFFF800
0EFFFA998877EFFFFFB000
0BFFC0000009FFFFFE2000
08FF8000006FFFFFF40000
05FF300003FFFFFF800000
02FD00001DFFFFFC000000
00E90000BFFFFFE2001000
00C40009FFFFFF50007000
0080006FFFFFF90003B000
001003FFFFFFC0000AC000
00001DFFFFFE20002FD000
0000BFFFFFF600008FE000
0009FFFFFFA00001EFE000
005FFFFFFF521007FFF000
03EFFFFFFFFFFEDEFFF100
1DFFFFFFFFFFFFFFFFF200
3789ABCDEFFFFFFFFFF300
0000000000123456789200
ENDCHAR
STARTCHAR circumflex
ENCODING 710
SWIDTH 714 0
DWIDTH 26 0
BBX 13 10 8 24
BITMAP
00000130000000
00000CF6000000
00009FFF300000
0006FFFFD10000
003FFFFFFB0000
01DFFFFFFF9000
0BFFFD9FFFF500
8FFF8103CFFE30
8FC3000007EE30
03000000002100
ENDCHAR
STARTCHAR caron
ENCODING 711
SWIDTH 714 0
DWIDTH 26 0
BBX 13 10 8 24
BITMAP
03000000002100
8FC3000006ED30
9FFF8103CFFF30
0CFFFD9FFFF600
01EFFFFFFF9000
003FFFFFFC0000
0006FFFFE20000
00009FFF400000
00000CF7000000
00000130000000
ENDCHAR
STARTCHAR breve
ENCODING 728
SWIDTH 715 0
DWIDTH 26 0
BBX 13 8 8 26
BITMAP
05300000006100
5FE4000009FD10
3FFF9203CFFB00
0AFFFFFFFFF300
02EFFFFFFF8000
005FFFFFFB0000
0004EFFFA10000
00001563000000
ENDCHAR
STARTCHAR dotaccent
ENCODING 729
SWIDTH 708 0
DWIDTH 26 0
BBX 5 5 10 29
BITMAP
09FD30
5FFFD0
6FFFE0
1DFF70
015300
ENDCHAR
STARTCHAR ring
ENCODING 730
SWIDTH 704 0
DWIDTH 25 0
BBX 8 9 10 25
BITMAP
00156200
04EFFF60
2EFFFFF4
9FE43DFB
BFB008FD
8FF65EFB
1EFFFFF3
02CFFD40
00022000
ENDCHAR
STARTCHAR ogonek
ENCODING 731
SWIDTH 988 0
DWIDTH 36 0
BBX 14 10 11 -5
BITMAP
01A94000000000
0AFF4000000000
2FFF3000000000
7FFF4000000000
9FFF9000000000
9FFFF931136881
5FFFFFFFFFFFF1
0CFFFFFFFFFD40
019FFFFFFB6000
00013454100000
ENDCHAR
STARTCHAR tilde
ENCODING 732
SWIDTH 707 0
DWIDTH 25 0
BBX 12 7 8 25
BITMAP
004752000026
3DFFFFB516E9
5FFFFFFFFFF9
5FFFFFFFFFF9
5FFBDFFFFFF9
5D2004AEFFA3
210000001000
ENDCHAR
STARTCHAR hungarumlaut
ENCODING 733
SWIDTH 671 0
DWIDTH 24 0
BBX 13 9 7 26
BITMAP
00AA3000D82000
01FFFC54FFFA30
05FFFFB9FFFF70
0BFFFF3EFFFD10
1FFFF94FFFF600
6FFFF29FFFC000
BFFF80EFFF4000
5BFE106DFB0000
00340000430000
ENDCHAR
STARTCHAR endash
ENCODING 8211
SWIDTH 576 0
DWIDTH 21 0
BBX 17 7 2 10
BITMAP
000000000000111210
ACDDDEEEFFFFFFFF60
DFFFFFFFFFFFFFFF70
DFFFFFFFFFFFFFFF70
DFFFFFFFFFFFFFFF80
BDEEFFFFFFFFFFFF80
000000011222333420
ENDCHAR
STARTCHAR emdash
ENCODING 8212
SWIDTH 993 0
DWIDTH 36 0
BBX 32 6 2 10
BITMAP
5667777788888899999AAAAAABBBBBC5
DFFFFFFFFFFFFFFFFFFFFFFFFFFFFFF7
DFFFFFFFFFFFFFFFFFFFFFFFFFFFFFF7
DFFFFFFFFFFFFFFFFFFFFFFFFFFFFFF8
DFFFFFFFFFFFFFFFFFFFFFFFFFFFFFF8
33444445555566666777778888899996
ENDCHAR
STARTCHAR quoteleft
ENCODING 8216
SWIDTH 261 0
DWIDTH 9 0
BBX 9 11 0 15
BITMAP
00006C5000
0001EFFD70
0007FFFFD0
001EFFFF80
009FFFFF20
02FFFFFC00
0AFFFFF700
3FFFFFF200
4CFFFFC000
004AFF7000
0000292000
ENDCHAR
STARTCHAR quoteright
ENCODING 8217
SWIDTH 301 0
DWIDTH 11 0
BBX 9 11 1 15
BITMAP
001D710000
006FFF9300
00BFFFFF80
01FFFFFF30
06FFFFFA00
0BFFFFF200
1FFFFF9000
6FFFFE1000
BFFFF70000
29EFE10000
0016500000
ENDCHAR
STARTCHAR quotesinglbase
ENCODING 8218
SWIDTH 332 0
DWIDTH 12 0
BBX 9 11 1 -3
BITMAP
001D710000
006FFF9300
00BFFFFF80
01FFFFFF30
06FFFFFA00
0BFFFFF200
1FFFFF9000
6FFFFE1000
BFFFF80000
29EFE10000
0016500000
ENDCHAR
STARTCHAR quotedblleft
ENCODING 8220
SWIDTH 477 0
DWIDTH 17 0
BBX 17 11 0 15
BITMAP
00006C5000009A3000
0001EFFD7003FFFC50
0007FFFFD00BFFFF90
001EFFFF804FFFFF40
009FFFFF20CFFFFE00
02FFFFFC05FFFFF900
0AFFFFF70DFFFFF300
3FFFFFF27FFFFFD000
4CFFFFC06DFFFF8000
004AFF70005CFF3000
000029200000490000
ENDCHAR
STARTCHAR quotedblright
ENCODING 8221
SWIDTH 477 0
DWIDTH 17 0
BBX 17 11 0 15
BITMAP
000B9300001D810000
002FFFB4005FFF9300
007FFFFFC0AFFFFF80
00CFFFFF71FFFFFF40
02FFFFFD15FFFFFB00
07FFFFF60BFFFFF300
0CFFFFC01FFFFF9000
2FFFFF406FFFFE2000
7FFFFB00BFFFF80000
17DFF30028EFE10000
000570000016500000
ENDCHAR
STARTCHAR quotedblbase
ENCODING 8222
SWIDTH 477 0
DWIDTH 17 0
BBX 17 11 0 -3
BITMAP
000B9300001D810000
002FFFB4005FFF9300
007FFFFFC0AFFFFF80
00CFFFFF71FFFFFF40
02FFFFFD15FFFFFB00
07FFFFF60BFFFFF300
0CFFFFD01FFFFF9000
2FFFFF506FFFFF2000
7FFFFB00BFFFF80000
17DFF30029EFE10000
000570000016500000
ENDCHAR
STARTCHAR dagger
ENCODING 8224
SWIDTH 487 0
DWIDTH 18 0
BBX 17 42 0 -11
BITMAP
000000000123000000
000000BEFFFF100000
000000CFFFFF100000
000000CFFFFF100000
000000CFFFFF000000
000000BFFFFF000000
000000BFFFFF000000
000000BFFFFF000000
000000AFFFFE000000
098765CFFFFE000000
1FFFFFFFFFFFEDDC90
2FFFFFFFFFFFFFFFB0
3FFFFFFFFFFFFFFF90
3FFFFFFFFFFFFFFF80
4FFFFFFFFFFECBAA40
1211008FFFFC000000
0000008FFFFC000000
0000008FFFFB000000
0000007FFFFB000000
0000007FFFFB000000
0000007FFFFA000000
0000007FFFFA000000
0000006FFFFA000000
0000006FFFF9000000
0000006FFFF9000000
0000005FFFF9000000
0000005FFFF8000000
0000005FFFF8000000
0000004FFFF8000000
0000004FFFF7000000
0000004FFFF7000000
0000004FFFF7000000
0000003FFFF6000000
0000003FFFF6000000
0000003FFFF6000000
0000002FFFF5000000
0000002FFFF5000000
0000002FFFF5000000
0000001FFFF4000000
0000001FFFF4000000
0000001FFFF4000000
000000099992000000
ENDCHAR
STARTCHAR daggerdbl
ENCODING 8225
SWIDTH 497 0
DWIDTH 18 0
BBX 17 42 0 -11
BITMAP
000000000123000000
000000BEFFFF100000
000000CFFFFF100000
000000CFFFFF100000
000000CFFFFF000000
000000BFFFFF000000
000000BFFFFF000000
000000BFFFFF000000
000000AFFFFE000000
098765CFFFFE000000
1FFFFFFFFFFFEDDC90
2FFFFFFFFFFFFFFFB0
3FFFFFFFFFFFFFFF90
3FFFFFFFFFFFFFFF80
4FFFFFFFFFFECBAA40
1211008FFFFC000000
0000008FFFFC000000
0000008FFFFB000000
0001239FFFFD9ABC70
4FFFFFFFFFFFFFFF90
3FFFFFFFFFFFFFFFA0
1FFFFFFFFFFFFFFFB0
0FFFFFFFFFFFFFFFB0
067789CFFFFECDDEB0
0000006FFFF9000000
0000006FFFF9000000
0000005FFFF9000000
0000005FFFF8000000
0000005FFFF8000000
0000004FFFF8000000
0000004FFFF7000000
0000004FFFF7000000
0000003FFFF7000000
0000003FFFF6000000
0000003FFFF6000000
0000002FFFF5000000
0000002FFFF5000000
0000002FFFF5000000
0000001FFFF4000000
0000001FFFF4000000
0000001FFFF4000000
000000099992000000
ENDCHAR
STARTCHAR bullet
ENCODING 8226
SWIDTH 275 0
DWIDTH 10 0
BBX 10 11 0 8
BITMAP
0017996000
04EFFFFD30
2EFFFFFFE1
AFFFFFFFF8
EFFFFFFFFD
FFFFFFFFFD
CFFFFFFFFB
6FFFFFFFF5
0BFFFFFFA0
008EFFE700
0000220000
ENDCHAR
STARTCHAR ellipsis
ENCODING 8230
SWIDTH 787 0
DWIDTH 28 0
BBX 28 7 0 -4
BITMAP
029DEA3000019DEB3000018DEB40
2DFFFFE3001DFFFFF4001CFFFFF4
8FFFFFFA007FFFFFFC006FFFFFFD
9FFFFFFB008FFFFFFD007FFFFFFE
4FFFFFF6003EFFFFF7002EFFFFF8
04CFFD600003BFFE700003BFFE80
0001100000000010000000001000
ENDCHAR
STARTCHAR perthousand
ENCODING 8240
SWIDTH 888 0
DWIDTH 32 0
BBX 34 30 0 -2
BITMAP
0000000000000009D83000000000000000
000256510000001EFFFE30000000000000
02BFFFFF9100006FFFFD00000000000000
2EFFFFFFFB0000CFFFF700000000000000
9FFFB7CFFF6003FFFFE100000000000000
EFFE102FFFA009FFFF9000000000000000
FFFB000FFFC01EFFFF2000000000000000
DFFE002FFFA06FFFFA0000000000000000
8FFFB7DFFF50CFFFF40000000000000000
1DFFFFFFFA03FFFFC00000000000000000
01AFFFFE8009FFFF600000000000000000
00025641001EFFFE000000000000000000
00000000006FFFF8000000000000000000
0000000000CFFFF1000000000000000000
0000000003FFFFA0000000000000000000
0000000009FFFF30000000000000000000
000000001EFFFB00000000000000000000
000000006FFFF500000000000000000000
00000000CFFFD000146520000035640000
00000003FFFF7019FFFFFC205DFFFFE600
00000009FFFE10BFFFFFFFE7FFFFFFFF60
0000001EFFF905FFFD7AFFFFFFF97FFFE1
0000006FFFF20AFFF300DFFFFF9008FFF5
000000CFFFB00BFFF000AFFFFF6005FFF6
000003FFFF4009FFF300DFFFFF9008FFF4
000009FFFC0004FFFD8BFFFFFFF99FFFE0
00001EFFF60000AFFFFFFFD5FFFFFFFF40
00006FFFE0000007EFFFFA104CFFFFC400
00006DFF80000000145410000025520000
0000003810000000000000000000000000
ENDCHAR
STARTCHAR guilsinglleft
ENCODING 8249
SWIDTH 234 0
DWIDTH 8 0
BBX 8 19 0 -1
BITMAP
00000072
000003F8
00001DFE
0000AFFB
0006FFF4
003EFFC0
01CFFF60
09FFFE00
5FFFF800
AFFFF300
6FFFF700
0AFFFD00
01DFFF50
003FFFC0
0007FFF3
0000BFFA
00001EFE
000004F8
00000082
ENDCHAR
STARTCHAR guilsinglright
ENCODING 8250
SWIDTH 223 0
DWIDTH 8 0
BBX 9 19 0 -1
BITMAP
0810000000
2FA0000000
8FF6000000
5FFE200000
0DFFC00000
06FFF80000
01EFFF4000
008FFFE100
002FFFFB00
000BFFFF10
001FFFFC00
007FFFE200
00EFFF5000
06FFF90000
0CFFD10000
4FFF300000
8FF6000000
2FA0000000
0910000000
ENDCHAR
STARTCHAR fraction
ENCODING 8260
SWIDTH 600 0
DWIDTH 22 0
BBX 24 35 -1 -5
BITMAP
000000000000000001D60000
000000000000000009FFB200
00000000000000003FFFFF70
0000000000000000BFFFFFF7
0000000000000005FFFFFFE1
000000000000001DFFFFFF60
000000000000007FFFFFFB00
00000000000002EFFFFFF200
0000000000000AFFFFFF8000
0000000000003FFFFFFD1000
000000000000CFFFFFF40000
000000000006FFFFFFA00000
00000000001EFFFFFE200000
00000000008FFFFFF6000000
0000000002FFFFFFC0000000
000000000BFFFFFF30000000
000000004FFFFFF900000000
00000000DFFFFFE100000000
00000007FFFFFF5000000000
0000001EFFFFFB0000000000
0000009FFFFFE20000000000
000003FFFFFF700000000000
00000BFFFFFD000000000000
00005FFFFFF4000000000000
0001DFFFFF90000000000000
0007FFFFFE10000000000000
002EFFFFF600000000000000
00AFFFFFB000000000000000
03FFFFFF3000000000000000
0CFFFFF80000000000000000
6FFFFFD10000000000000000
DFFFFF400000000000000000
2AFFFA000000000000000000
004DE2000000000000000000
000030000000000000000000
ENDCHAR
STARTCHAR Euro
ENCODING 8364
SWIDTH 590 0
DWIDTH 21 0
BBX 24 23 -2 1
BITMAP
000000000000368974000000
00000000007DFFFFFFE70000
000000003DFFFFFFFFFFC200
00000004EFFFFA669EFFFD10
0000002EFFFE400002FFFF90
000000CFFFF6000004FFFFF0
000006FFFFD0000006FFFFF2
00000CFFFF70000003FFFFE0
0BBAAFFFFF865543007FFE50
0FFFFFFFFFFFFFFF00013100
1FFFFFFFFFFFFFFF40000000
1BBACFFFFE88777630000000
00007FFFFE00000000000000
09AACFFFFFCCDDDEE1000002
0FFFFFFFFFFFFFFFF6000038
1ABBCEFFFFFFFFFFFB0001D6
000008FFFFF9112233001DF2
000001EFFFFF90000004DFB0
0000005FFFFFFE8657CFFF30
00000007FFFFFFFFFFFFF500
000000006EFFFFFFFFFE5000
00000000028EFFFFFE810000
000000000000356530000000
ENDCHAR
STARTCHAR trademark
ENCODING 8482
SWIDTH 624 0
DWIDTH 22 0
BBX 24 16 0 11
BITMAP
000480000000000000000000
0009D0000000000000000000
001EB0000000000000000000
00AFA0000000000000000000
8DFFB6420000000000000000
DEFFFFFA0000000000000000
04FF74530000000000000000
05FF40003699267201551000
06FF204BFFFFFFFE9FFFD100
07FF10001BFF76DFFB7EF700
09FF000008FA005FE007F900
0AFE000106F8004FB006F800
0BFC004405F7004F9006F700
0AFE12D319FB104F802BFA10
05FFFFC2677765BFC4678871
007EEB200000355555100000
ENDCHAR
STARTCHAR minus
ENCODING 8722
SWIDTH 549 0
DWIDTH 20 0
BBX 20 7 0 9
BITMAP
5A987765433210000000
8FFFFFFFFFFFFFFEDCC5
8FFFFFFFFFFFFFFFFFF5
8FFFFFFFFFFFFFFFFFF5
9FFFFFFFFFFFFFFFFFF4
9FFFFFFFFFFFFFFFFFF3
6A998877665544332220
ENDCHAR
STARTCHAR fi
ENCODING 64257
SWIDTH 757 0
DWIDTH 27 0
BBX 31 50 -2 -15
BITMAP
00000000000001578763000000000000
000000000002AFFFFFFFE82000000000
00000000004EFFFFFFFFFFE500000000
0000000004FFFFE979EFFFFF60000000
000000001EFFFD20002BFFFFF4000000
000000009FFFF4000001CFFFFC000000
00000001EFFFC00000005FFFFF300000
00000005FFFF900000009FFFFF800000
00000009FFFF70000004FFFFFFA00000
0000000CFFFF60000008FFFFFFB00000
0000000DFFFF60000007FFFFFFA00000
0000000EFFFF60000002FFFFFF500000
0000000EFFFF700000005EFFF8000000
0000000DFFFF80000000014520000000
0000000DFFFF90000000000000000000
0000000BFFFFA0000000000000000000
0011111AFFFFC1222233334444400000
007FFFFFFFFFFFFFFFFFFFFFFFC00000
007FFFFFFFFFFFFFFFFFFFFFFFB00000
007FFFFFFFFFFFFFFFFFFFFFFFA00000
00122224FFFFF72211117FFFFF900000
00000001FFFFF80000006FFFFF800000
00000000EFFFF90000005FFFFF700000
00000000DFFFFB0000003FFFFF500000
00000000BFFFFD0000002FFFFF400000
000000009FFFFF0000001FFFFF300000
000000007FFFFF1000000EFFFF200000
000000005FFFFF3000000DFFFF100000
000000004FFFFF5000000CFFFE000000
000000002FFFFF7000000BFFFD000000
000000000FFFFF8000000AFFFC000000
000000000DFFFFA000004DFFFD200000
000000000BFFFFC0001AFFFFFFE60000
0000000009FFFFE006EFFFFFFFFFA100
0000000008FFFFF19CDDDDEEEFFFFE50
0000000005FFFFF20000000000000110
0000000003FFFFF40000000000000000
0000000001FFFFF50000000000000000
0000000000EFFFF60000000000000000
0000000000DFFFF70000000000000000
1AFE700000CFFFF60000000000000000
8FFFF60000CFFFF50000000000000000
BFFFF90000DFFFF10000000000000000
BFFFF70002FFFFC00000000000000000
7FFFE10007FFFF700000000000000000
2EFFF6002EFFFD100000000000000000
06FFFFBAEFFFF4000000000000000000
007FFFFFFFFE50000000000000000000
0004CFFFFFA200000000000000000000
00000245410000000000000000000000
ENDCHAR
STARTCHAR fl
ENCODING 64258
SWIDTH 776 0
DWIDTH 28 0
BBX 32 50 -2 -15
BITMAP
0000000000000279AA96200000000000
000000000002BFFFFFFFFB3000000000
00000000005EFFFFFFFFFFF600000000
0000000004FFFFC646CFFFFF60000000
000000001EFFFB00000AFFFFF2000000
000000008FFFF2000001EFFFFA000000
00000001EFFFB0000000AFFFFF200000
00000005FFFF800000006FFFFF700000
00000009FFFF700000004FFFFFA00000
0000000CFFFF600000002FFFFFD00000
0000000DFFFF600000001FFFFFF00000
0000000EFFFF600000000FFFFFF10000
0000000EFFFF700000000EFFFFF10000
0000000DFFFF800000000DFFFFF10000
0000000CFFFF900000000DFFFFF10000
0000000BFFFFA00000000CFFFFF10000
0011111AFFFFC11111100CFFFFF10000
007FFFFFFFFFFFFFFFE00BFFFFF10000
007FFFFFFFFFFFFFFFE00AFFFFF00000
007FFFFFFFFFFFFFFFE00AFFFFE00000
00122224FFFFF722222009FFFFE00000
00000001FFFFF800000008FFFFD00000
00000000EFFFF900000008FFFFC00000
00000000DFFFFB00000007FFFFC00000
00000000BFFFFD00000006FFFFB00000
000000009FFFFF00000006FFFFA00000
000000007FFFFF10000005FFFFA00000
000000005FFFFF30000005FFFF900000
000000004FFFFF50000004FFFF800000
000000002FFFFF70000003FFFF700000
000000000FFFFF80000003FFFF700000
000000000DFFFFA0000002FFFF600000
000000000BFFFFC0000001FFFF500000
0000000009FFFFE0000001FFFF500000
0000000008FFFFF000002CFFFFF80000
0000000005FFFFF20007FFFFFFFFD400
0000000003FFFFF403CFFFFFFFFFFFA1
0000000001FFFFF54AA9988766554331
0000000000EFFFF60000000000000000
0000000000DFFFF70000000000000000
1AFE700000CFFFF60000000000000000
8FFFF60000CFFFF50000000000000000
BFFFF90000DFFFF10000000000000000
BFFFF70002FFFFC00000000000000000
7FFFE10007FFFF700000000000000000
2EFFF6002EFFFD100000000000000000
06FFFFBAEFFFF4000000000000000000
007FFFFFFFFE50000000000000000000
0004CFFFFFA200000000000000000000
00000245410000000000000000000000
ENDCHAR
STARTCHAR .notdef
ENCODING -1
SWIDTH 320 0
DWIDTH 12 0
BBX 1 1 0 0
BITMAP
00
ENDCHAR
ENDFONT
